SplineFontDB: 3.0
FontName: EGYSansThin-Regular
FullName: EGY Sans Thin Regular
FamilyName: EGY Sans Thin
Weight: Regular
Copyright: Copyright (c) 2010 by Oriol Esparraguera Font. All rights reserved.
Version: 1.000
ItalicAngle: 0
UnderlinePosition: -75
UnderlineWidth: 50
Ascent: 800
Descent: 200
sfntRevision: 0x00010000
LayerCount: 2
Layer: 0 1 "Back"  1
Layer: 1 1 "Fore"  0
XUID: [1021 288 713564382 13242236]
FSType: 0
OS2Version: 3
OS2_WeightWidthSlopeOnly: 0
OS2_UseTypoMetrics: 1
CreationTime: 1287916140
ModificationTime: 1304089856
PfmFamily: 17
TTFWeight: 400
TTFWidth: 5
LineGap: 0
VLineGap: 0
Panose: 2 0 5 3 0 0 0 2 0 4
OS2TypoAscent: 980
OS2TypoAOffset: 0
OS2TypoDescent: -235
OS2TypoDOffset: 0
OS2TypoLinegap: 0
OS2WinAscent: 980
OS2WinAOffset: 0
OS2WinDescent: 235
OS2WinDOffset: 0
HheadAscent: 980
HheadAOffset: 0
HheadDescent: -235
HheadDOffset: 0
OS2SubXSize: 204
OS2SubYSize: 204
OS2SubXOff: 0
OS2SubYOff: 286
OS2SupXSize: 204
OS2SupYSize: 204
OS2SupXOff: 0
OS2SupYOff: 286
OS2StrikeYSize: 50
OS2StrikeYPos: 250
OS2Vendor: 'LINO'
OS2CodePages: 20000011.00000000
OS2UnicodeRanges: 8000006f.40000042.00000000.00000000
MacStyle: 0
Lookup: 4 0 1 "'liga' Standard Ligatures in Latin lookup 0"  {"'liga' Standard Ligatures in Latin lookup 0 subtable"  } ['liga' ('latn' <'dflt' > ) ]
Lookup: 4 0 0 "'ccmp' Glyph Composition/Decomposition in Latin lookup 1"  {"'ccmp' Glyph Composition/Decomposition in Latin lookup 1 subtable"  } ['ccmp' ('latn' <'dflt' > ) ]
Lookup: 258 0 0 "'kern' Horizontal Kerning in Latin lookup 0"  {"'kern' Horizontal Kerning in Latin lookup 0 subtable"  } ['kern' ('latn' <'dflt' > ) ]
MarkAttachClasses: 1
DEI: 91125
TtTable: prep
PUSHW_1
 511
SCANCTRL
PUSHB_1
 4
SCANTYPE
EndTTInstrs
TtTable: fpgm
PUSHW_1
 0
FDEF
MPPEM
PUSHW_1
 9
LT
IF
PUSHB_2
 1
 1
INSTCTRL
EIF
PUSHW_1
 511
SCANCTRL
PUSHW_1
 68
SCVTCI
PUSHW_2
 9
 3
SDS
SDB
ENDF
PUSHW_1
 1
FDEF
DUP
DUP
RCVT
ROUND[Black]
WCVTP
PUSHB_1
 1
ADD
ENDF
PUSHW_1
 2
FDEF
PUSHW_1
 1
LOOPCALL
POP
ENDF
PUSHW_1
 3

StartChar: exclam
Encoding: 33 33 1
Width: 264
Flags: W
LayerCount: 2
Fore
SplineSet
95 86 m 1,0,-1
 180 86 l 1,1,-1
 180 0 l 1,2,-1
 95 0 l 1,3,-1
 95 86 l 1,0,-1
144 225 m 1,4,-1
 123 225 l 1,5,-1
 98 519 l 1,6,-1
 98 732 l 1,7,-1
 169 732 l 1,8,-1
 169 519 l 1,9,-1
 144 225 l 1,4,-1
EndSplineSet
EndChar

StartChar: quotedbl
Encoding: 34 34 2
Width: 435
Flags: W
LayerCount: 2
Fore
SplineSet
283 493 m 1,0,-1
 283 730 l 1,1,-1
 327 730 l 1,2,-1
 327 493 l 1,3,-1
 283 493 l 1,0,-1
176 730 m 1,4,-1
 176 493 l 1,5,-1
 130 493 l 1,6,-1
 130 730 l 1,7,-1
 176 730 l 1,4,-1
EndSplineSet
EndChar

StartChar: numbersign
Encoding: 35 35 3
Width: 574
Flags: W
LayerCount: 2
Fore
SplineSet
248 458 m 1,0,-1
 212 254 l 1,1,-1
 378 254 l 1,2,3
 385 293 385 293 390.5 322.5 c 128,-1,4
 396 352 396 352 400 376 c 128,-1,5
 404 400 404 400 407.5 420 c 128,-1,6
 411 440 411 440 414 458 c 1,7,-1
 248 458 l 1,0,-1
72 458 m 1,8,-1
 72 489 l 1,9,-1
 207 489 l 1,10,-1
 243 709 l 1,11,-1
 289 709 l 1,12,-1
 251 489 l 1,13,-1
 419 489 l 1,14,-1
 456 709 l 1,15,-1
 503 709 l 1,16,-1
 464 489 l 1,17,-1
 560 489 l 1,18,-1
 560 458 l 1,19,-1
 459 458 l 1,20,-1
 425 254 l 1,21,-1
 528 254 l 1,22,-1
 528 223 l 1,23,-1
 422 223 l 1,24,25
 410 167 410 167 401 111 c 128,-1,26
 392 55 392 55 384 0 c 1,27,-1
 338 0 l 1,28,-1
 375 223 l 1,29,-1
 207 223 l 1,30,31
 198 167 198 167 192.5 130 c 128,-1,32
 187 93 187 93 183 68.5 c 128,-1,33
 179 44 179 44 176.5 28.5 c 128,-1,34
 174 13 174 13 171 0 c 1,35,-1
 125 0 l 1,36,-1
 162 223 l 1,37,-1
 46 223 l 1,38,-1
 46 254 l 1,39,-1
 167 254 l 1,40,-1
 202 458 l 1,41,-1
 72 458 l 1,8,-1
EndSplineSet
EndChar

StartChar: dollar
Encoding: 36 36 4
Width: 585
Flags: W
LayerCount: 2
Fore
SplineSet
329 27 m 1,0,1
 405 48 405 48 446.5 86.5 c 128,-1,2
 488 125 488 125 488 174 c 0,3,4
 488 188 488 188 484 207.5 c 128,-1,5
 480 227 480 227 464.5 249.5 c 128,-1,6
 449 272 449 272 417 296 c 128,-1,7
 385 320 385 320 329 344 c 1,8,-1
 329 27 l 1,0,1
298 708 m 1,9,10
 225 695 225 695 181.5 658.5 c 128,-1,11
 138 622 138 622 138 563 c 0,12,13
 138 510 138 510 183.5 472.5 c 128,-1,14
 229 435 229 435 298 409 c 1,15,-1
 298 708 l 1,9,10
329 751 m 1,16,17
 415 746 415 746 466 732 c 128,-1,18
 517 718 517 718 543 704 c 1,19,-1
 543 654 l 1,20,21
 487 681 487 681 435.5 693 c 128,-1,22
 384 705 384 705 329 709 c 1,23,-1
 329 405 l 1,24,25
 371 390 371 390 413.5 371.5 c 128,-1,26
 456 353 456 353 490 326.5 c 128,-1,27
 524 300 524 300 545.5 263 c 128,-1,28
 567 226 567 226 567 174 c 0,29,30
 567 127 567 127 545 93 c 128,-1,31
 523 59 523 59 488.5 35.5 c 128,-1,32
 454 12 454 12 411.5 -1 c 128,-1,33
 369 -14 369 -14 329 -19 c 1,34,-1
 329 -119 l 1,35,-1
 298 -119 l 1,36,-1
 298 -20 l 1,37,38
 205 -16 205 -16 144.5 3 c 128,-1,39
 84 22 84 22 58 40 c 1,40,-1
 58 105 l 1,41,42
 93 79 93 79 155 55.5 c 128,-1,43
 217 32 217 32 298 28 c 1,44,-1
 298 349 l 1,45,46
 181 384 181 384 119.5 433 c 128,-1,47
 58 482 58 482 58 564 c 0,48,49
 58 596 58 596 73 627 c 128,-1,50
 88 658 88 658 118 683.5 c 128,-1,51
 148 709 148 709 193 727 c 128,-1,52
 238 745 238 745 298 751 c 1,53,-1
 298 820 l 1,54,-1
 329 820 l 1,55,-1
 329 751 l 1,16,17
EndSplineSet
EndChar

StartChar: percent
Encoding: 37 37 5
Width: 1000
Flags: W
LayerCount: 2
Fore
SplineSet
795 383 m 0,0,1
 843 383 843 383 873 366 c 128,-1,2
 903 349 903 349 920 321.5 c 128,-1,3
 937 294 937 294 944 258 c 128,-1,4
 951 222 951 222 952 183 c 1,5,6
 951 117 951 117 936 78.5 c 128,-1,7
 921 40 921 40 898.5 20.5 c 128,-1,8
 876 1 876 1 849 -4 c 128,-1,9
 822 -9 822 -9 796 -9 c 0,10,11
 769 -9 769 -9 740.5 -4 c 128,-1,12
 712 1 712 1 688.5 20.5 c 128,-1,13
 665 40 665 40 649.5 78.5 c 128,-1,14
 634 117 634 117 633 183 c 1,15,16
 634 231 634 231 643.5 268 c 128,-1,17
 653 305 653 305 672 330.5 c 128,-1,18
 691 356 691 356 721 369.5 c 128,-1,19
 751 383 751 383 795 383 c 0,0,1
795 6 m 0,20,21
 825 6 825 6 847 15 c 128,-1,22
 869 24 869 24 883.5 44.5 c 128,-1,23
 898 65 898 65 905.5 99 c 128,-1,24
 913 133 913 133 913 183 c 0,25,26
 913 235 913 235 906.5 270 c 128,-1,27
 900 305 900 305 885.5 326 c 128,-1,28
 871 347 871 347 848.5 356 c 128,-1,29
 826 365 826 365 795 365 c 0,30,31
 766 365 766 365 743.5 356 c 128,-1,32
 721 347 721 347 705.5 325 c 128,-1,33
 690 303 690 303 682 267.5 c 128,-1,34
 674 232 674 232 674 179 c 0,35,36
 674 128 674 128 682.5 94.5 c 128,-1,37
 691 61 691 61 707 41.5 c 128,-1,38
 723 22 723 22 745.5 14 c 128,-1,39
 768 6 768 6 795 6 c 0,20,21
848 740 m 1,40,-1
 285 -19 l 1,41,-1
 235 -19 l 1,42,-1
 797 740 l 1,43,-1
 848 740 l 1,40,-1
263 353 m 0,44,45
 290 353 290 353 312 361 c 128,-1,46
 334 369 334 369 349.5 389 c 128,-1,47
 365 409 365 409 373.5 442 c 128,-1,48
 382 475 382 475 382 525 c 0,49,50
 382 578 382 578 373 612.5 c 128,-1,51
 364 647 364 647 348.5 667 c 128,-1,52
 333 687 333 687 311 695 c 128,-1,53
 289 703 289 703 263 703 c 0,54,55
 236 703 236 703 213.5 695 c 128,-1,56
 191 687 191 687 175.5 666.5 c 128,-1,57
 160 646 160 646 151.5 611 c 128,-1,58
 143 576 143 576 143 522 c 0,59,60
 143 471 143 471 153 438 c 128,-1,61
 163 405 163 405 179.5 386 c 128,-1,62
 196 367 196 367 217.5 360 c 128,-1,63
 239 353 239 353 263 353 c 0,44,45
263 726 m 0,64,65
 311 726 311 726 341.5 709.5 c 128,-1,66
 372 693 372 693 389.5 665 c 128,-1,67
 407 637 407 637 414 600.5 c 128,-1,68
 421 564 421 564 422 525 c 1,69,70
 421 459 421 459 405 420.5 c 128,-1,71
 389 382 389 382 365.5 362.5 c 128,-1,72
 342 343 342 343 314.5 337.5 c 128,-1,73
 287 332 287 332 264 332 c 0,74,75
 243 332 243 332 215 337.5 c 128,-1,76
 187 343 187 343 162.5 362.5 c 128,-1,77
 138 382 138 382 120.5 420.5 c 128,-1,78
 103 459 103 459 102 525 c 1,79,80
 104 621 104 621 141 673.5 c 128,-1,81
 178 726 178 726 263 726 c 0,64,65
EndSplineSet
EndChar

StartChar: ampersand
Encoding: 38 38 6
Width: 759
Flags: W
LayerCount: 2
Fore
SplineSet
408 728 m 0,0,1
 481 727 481 727 523.5 702 c 128,-1,2
 566 677 566 677 566 614 c 0,3,4
 566 606 566 606 564 589 c 128,-1,5
 562 572 562 572 558 548 c 1,6,7
 610 539 610 539 647.5 521 c 128,-1,8
 685 503 685 503 709 474 c 128,-1,9
 733 445 733 445 744.5 403.5 c 128,-1,10
 756 362 756 362 756 306 c 0,11,12
 756 230 756 230 727.5 168 c 128,-1,13
 699 106 699 106 631 56 c 1,14,15
 667 36 667 36 695.5 31 c 128,-1,16
 724 26 724 26 741 26 c 0,17,18
 793 26 793 26 829.5 38 c 128,-1,19
 866 50 866 50 897 67 c 1,20,-1
 897 14 l 1,21,22
 870 -1 870 -1 833 -8.5 c 128,-1,23
 796 -16 796 -16 738 -16 c 0,24,25
 698 -16 698 -16 661 -7.5 c 128,-1,26
 624 1 624 1 579 29 c 1,27,28
 524 4 524 4 461.5 -7 c 128,-1,29
 399 -18 399 -18 327 -18 c 0,30,31
 249 -18 249 -18 195.5 0.5 c 128,-1,32
 142 19 142 19 109 53.5 c 128,-1,33
 76 88 76 88 61 138.5 c 128,-1,34
 46 189 46 189 46 254 c 0,35,36
 46 312 46 312 59 354.5 c 128,-1,37
 72 397 72 397 99.5 426 c 128,-1,38
 127 455 127 455 169 472.5 c 128,-1,39
 211 490 211 490 269 499 c 1,40,41
 264 520 264 520 260 533 c 128,-1,42
 256 546 256 546 253 557.5 c 128,-1,43
 250 569 250 569 248.5 581.5 c 128,-1,44
 247 594 247 594 247 614 c 0,45,46
 247 650 247 650 261 672 c 128,-1,47
 275 694 275 694 297.5 706.5 c 128,-1,48
 320 719 320 719 349 723.5 c 128,-1,49
 378 728 378 728 408 728 c 0,0,1
274 473 m 1,50,51
 233 462 233 462 202.5 449.5 c 128,-1,52
 172 437 172 437 152 414.5 c 128,-1,53
 132 392 132 392 122 355 c 128,-1,54
 112 318 112 318 112 258 c 0,55,56
 112 190 112 190 125 145 c 128,-1,57
 138 100 138 100 165 73 c 128,-1,58
 192 46 192 46 232.5 35 c 128,-1,59
 273 24 273 24 329 24 c 0,60,61
 420 24 420 24 537 57 c 1,62,63
 444 146 444 146 381 253.5 c 128,-1,64
 318 361 318 361 274 473 c 1,50,51
546 517 m 1,65,66
 526 458 526 458 494 392 c 128,-1,67
 462 326 462 326 424 263 c 1,68,69
 449 225 449 225 467 199.5 c 128,-1,70
 485 174 485 174 501 154.5 c 128,-1,71
 517 135 517 135 533.5 119.5 c 128,-1,72
 550 104 550 104 572 86 c 1,73,74
 630 114 630 114 659.5 167 c 128,-1,75
 689 220 689 220 689 310 c 0,76,77
 689 362 689 362 680.5 396.5 c 128,-1,78
 672 431 672 431 654.5 453.5 c 128,-1,79
 637 476 637 476 610 490 c 128,-1,80
 583 504 583 504 546 517 c 1,65,66
518 598 m 0,81,82
 518 626 518 626 509 643 c 128,-1,83
 500 660 500 660 485 669 c 128,-1,84
 470 678 470 678 450 681 c 128,-1,85
 430 684 430 684 408 684 c 0,86,87
 382 684 382 684 361 681 c 128,-1,88
 340 678 340 678 324.5 669 c 128,-1,89
 309 660 309 660 300.5 643 c 128,-1,90
 292 626 292 626 292 598 c 0,91,92
 292 571 292 571 303.5 533 c 128,-1,93
 315 495 315 495 332.5 454.5 c 128,-1,94
 350 414 350 414 370.5 374.5 c 128,-1,95
 391 335 391 335 408 306 c 1,96,97
 430 349 430 349 450 389 c 128,-1,98
 470 429 470 429 485 465.5 c 128,-1,99
 500 502 500 502 509 535.5 c 128,-1,100
 518 569 518 569 518 598 c 0,81,82
EndSplineSet
EndChar

StartChar: quotesingle
Encoding: 39 39 7
Width: 286
Flags: W
LayerCount: 2
Fore
SplineSet
130 493 m 1,0,-1
 130 730 l 1,1,-1
 175 730 l 1,2,-1
 175 493 l 1,3,-1
 130 493 l 1,0,-1
EndSplineSet
EndChar

StartChar: parenleft
Encoding: 40 40 8
Width: 315
Flags: W
LayerCount: 2
Fore
SplineSet
302 753 m 1,0,1
 282 722 282 722 254 670 c 128,-1,2
 226 618 226 618 200.5 553.5 c 128,-1,3
 175 489 175 489 156.5 416 c 128,-1,4
 138 343 138 343 138 269 c 0,5,6
 138 207 138 207 152 143.5 c 128,-1,7
 166 80 166 80 188.5 17.5 c 128,-1,8
 211 -45 211 -45 239 -103.5 c 128,-1,9
 267 -162 267 -162 295 -213 c 1,10,-1
 266 -213 l 1,11,12
 253 -198 253 -198 220 -154 c 128,-1,13
 187 -110 187 -110 152.5 -45.5 c 128,-1,14
 118 19 118 19 91.5 99.5 c 128,-1,15
 65 180 65 180 65 269 c 0,16,17
 65 336 65 336 81 402.5 c 128,-1,18
 97 469 97 469 124.5 531 c 128,-1,19
 152 593 152 593 188.5 649.5 c 128,-1,20
 225 706 225 706 266 753 c 1,21,-1
 302 753 l 1,0,1
EndSplineSet
EndChar

StartChar: parenright
Encoding: 41 41 9
Width: 308
Flags: W
LayerCount: 2
Fore
SplineSet
58 753 m 1,0,1
 100 701 100 701 137 643.5 c 128,-1,2
 174 586 174 586 201.5 524.5 c 128,-1,3
 229 463 229 463 244.5 399 c 128,-1,4
 260 335 260 335 260 269 c 0,5,6
 260 210 260 210 247.5 154 c 128,-1,7
 235 98 235 98 215.5 47.5 c 128,-1,8
 196 -3 196 -3 172.5 -46 c 128,-1,9
 149 -89 149 -89 126.5 -123 c 128,-1,10
 104 -157 104 -157 85.5 -180 c 128,-1,11
 67 -203 67 -203 59 -213 c 1,12,-1
 28 -213 l 1,13,14
 57 -157 57 -157 85.5 -98.5 c 128,-1,15
 114 -40 114 -40 136.5 20.5 c 128,-1,16
 159 81 159 81 173 143.5 c 128,-1,17
 187 206 187 206 187 269 c 0,18,19
 187 344 187 344 168 417.5 c 128,-1,20
 149 491 149 491 123 555.5 c 128,-1,21
 97 620 97 620 69 671.5 c 128,-1,22
 41 723 41 723 22 753 c 1,23,-1
 58 753 l 1,0,1
EndSplineSet
EndChar

StartChar: asterisk
Encoding: 42 42 10
Width: 329
Flags: W
LayerCount: 2
Fore
SplineSet
184 605 m 1,0,1
 199 598 199 598 219 587.5 c 128,-1,2
 239 577 239 577 257 567.5 c 128,-1,3
 275 558 275 558 287.5 551.5 c 128,-1,4
 300 545 300 545 300 545 c 1,5,-1
 292 520 l 1,6,-1
 189 592 l 1,7,-1
 189 462 l 1,8,-1
 163 462 l 1,9,-1
 163 592 l 1,10,-1
 60 520 l 1,11,-1
 52 545 l 1,12,13
 74 558 74 558 95 569 c 0,14,15
 113 579 113 579 133 588.5 c 128,-1,16
 153 598 153 598 168 605 c 1,17,18
 140 618 140 618 108.5 631.5 c 128,-1,19
 77 645 77 645 52 656 c 1,20,21
 54 664 54 664 56.5 669 c 128,-1,22
 59 674 59 674 61 679 c 1,23,-1
 163 625 l 1,24,-1
 163 731 l 1,25,-1
 189 731 l 1,26,-1
 189 625 l 1,27,-1
 291 679 l 1,28,29
 293 674 293 674 295.5 669 c 128,-1,30
 298 664 298 664 300 656 c 1,31,32
 275 645 275 645 243.5 631.5 c 128,-1,33
 212 618 212 618 184 605 c 1,0,1
EndSplineSet
EndChar

StartChar: plus
Encoding: 43 43 11
Width: 600
Flags: W
LayerCount: 2
Fore
SplineSet
331 509 m 1,0,-1
 331 274 l 1,1,-1
 567 274 l 1,2,-1
 567 232 l 1,3,-1
 331 232 l 1,4,-1
 331 1 l 1,5,-1
 286 1 l 1,6,-1
 286 232 l 1,7,-1
 59 232 l 1,8,-1
 59 274 l 1,9,-1
 286 274 l 1,10,-1
 286 509 l 1,11,-1
 331 509 l 1,0,-1
EndSplineSet
EndChar

StartChar: comma
Encoding: 44 44 12
Width: 278
Flags: W
LayerCount: 2
Fore
SplineSet
106 84 m 1,0,-1
 193 84 l 1,1,2
 197 55 197 55 199 30 c 128,-1,3
 201 5 201 5 201 -15 c 0,4,5
 201 -60 201 -60 192 -91.5 c 128,-1,6
 183 -123 183 -123 167.5 -143.5 c 128,-1,7
 152 -164 152 -164 132.5 -174 c 128,-1,8
 113 -184 113 -184 92 -187 c 1,9,-1
 92 -152 l 1,10,11
 120 -149 120 -149 135 -134.5 c 128,-1,12
 150 -120 150 -120 157 -99 c 128,-1,13
 164 -78 164 -78 165 -52 c 128,-1,14
 166 -26 166 -26 166 0 c 1,15,-1
 106 0 l 1,16,-1
 106 84 l 1,0,-1
EndSplineSet
EndChar

StartChar: hyphen
Encoding: 45 45 13
Width: 398
Flags: W
LayerCount: 2
Fore
SplineSet
347 304 m 1,0,-1
 347 253 l 1,1,-1
 67 253 l 1,2,-1
 67 304 l 1,3,-1
 347 304 l 1,0,-1
EndSplineSet
EndChar

StartChar: period
Encoding: 46 46 14
Width: 271
Flags: W
LayerCount: 2
Fore
SplineSet
106 83 m 1,0,-1
 191 83 l 1,1,-1
 191 -1 l 1,2,-1
 106 -1 l 1,3,-1
 106 83 l 1,0,-1
EndSplineSet
EndChar

StartChar: slash
Encoding: 47 47 15
Width: 347
Flags: W
LayerCount: 2
Fore
SplineSet
310 753 m 1,0,-1
 357 753 l 1,1,-1
 53 -19 l 1,2,-1
 6 -19 l 1,3,-1
 310 753 l 1,0,-1
EndSplineSet
EndChar

StartChar: zero
Encoding: 48 48 16
Width: 650
Flags: W
LayerCount: 2
Fore
SplineSet
343 678 m 0,0,1
 294 678 294 678 253.5 661.5 c 128,-1,2
 213 645 213 645 184.5 605.5 c 128,-1,3
 156 566 156 566 140 501.5 c 128,-1,4
 124 437 124 437 124 341 c 0,5,6
 124 248 124 248 141.5 187 c 128,-1,7
 159 126 159 126 189 90 c 128,-1,8
 219 54 219 54 258.5 39.5 c 128,-1,9
 298 25 298 25 343 25 c 256,10,11
 388 25 388 25 426.5 42.5 c 128,-1,12
 465 60 465 60 493.5 98 c 128,-1,13
 522 136 522 136 538.5 197.5 c 128,-1,14
 555 259 555 259 555 348 c 0,15,16
 555 440 555 440 538.5 503 c 128,-1,17
 522 566 522 566 493.5 605 c 128,-1,18
 465 644 465 644 426.5 661 c 128,-1,19
 388 678 388 678 343 678 c 0,0,1
343 723 m 0,20,21
 371 723 371 723 402.5 718 c 128,-1,22
 434 713 434 713 465 698.5 c 128,-1,23
 496 684 496 684 524.5 658.5 c 128,-1,24
 553 633 553 633 574.5 591 c 128,-1,25
 596 549 596 549 608.5 489.5 c 128,-1,26
 621 430 621 430 621 348 c 0,27,28
 621 268 621 268 607.5 210 c 128,-1,29
 594 152 594 152 571.5 111.5 c 128,-1,30
 549 71 549 71 519.5 46 c 128,-1,31
 490 21 490 21 459.5 7.5 c 128,-1,32
 429 -6 429 -6 398.5 -11 c 128,-1,33
 368 -16 368 -16 343 -16 c 256,34,35
 318 -16 318 -16 287 -11 c 128,-1,36
 256 -6 256 -6 224 7.5 c 128,-1,37
 192 21 192 21 161.5 46 c 128,-1,38
 131 71 131 71 107.5 111.5 c 128,-1,39
 84 152 84 152 70 210 c 128,-1,40
 56 268 56 268 56 348 c 0,41,42
 56 466 56 466 81.5 539.5 c 128,-1,43
 107 613 107 613 148 654 c 128,-1,44
 189 695 189 695 240.5 709 c 128,-1,45
 292 723 292 723 343 723 c 0,20,21
EndSplineSet
EndChar

StartChar: one
Encoding: 49 49 17
Width: 435
Flags: W
LayerCount: 2
Fore
SplineSet
255 726 m 1,0,-1
 255 0 l 1,1,-1
 189 0 l 1,2,-1
 189 674 l 1,3,4
 164 667 164 667 146 662 c 0,5,6
 130 657 130 657 117 653.5 c 128,-1,7
 104 650 104 650 104 651 c 2,8,-1
 104 680 l 1,9,10
 104 680 104 680 112 685 c 128,-1,11
 120 690 120 690 130.5 697 c 128,-1,12
 141 704 141 704 153 712 c 128,-1,13
 165 720 165 720 173 726 c 1,14,-1
 255 726 l 1,0,-1
EndSplineSet
EndChar

StartChar: two
Encoding: 50 50 18
Width: 581
Flags: W
LayerCount: 2
Fore
SplineSet
524 48 m 1,0,-1
 524 0 l 1,1,-1
 34 0 l 1,2,3
 36 77 36 77 56 131.5 c 128,-1,4
 76 186 76 186 111 226.5 c 128,-1,5
 146 267 146 267 195 298 c 128,-1,6
 244 329 244 329 304 360 c 1,7,-1
 303 360 l 1,8,9
 375 395 375 395 406 440.5 c 128,-1,10
 437 486 437 486 437 537 c 0,11,12
 437 564 437 564 427.5 588.5 c 128,-1,13
 418 613 418 613 398.5 632.5 c 128,-1,14
 379 652 379 652 348 664.5 c 128,-1,15
 317 677 317 677 274 679 c 1,16,17
 239 679 239 679 212.5 670.5 c 128,-1,18
 186 662 186 662 166.5 650 c 128,-1,19
 147 638 147 638 133.5 624.5 c 128,-1,20
 120 611 120 611 112 601 c 1,21,22
 98 612 98 612 87 621 c 128,-1,23
 76 630 76 630 62 640 c 1,24,25
 88 674 88 674 144.5 700 c 128,-1,26
 201 726 201 726 273 726 c 0,27,28
 332 726 332 726 375 711 c 128,-1,29
 418 696 418 696 446 670 c 128,-1,30
 474 644 474 644 487.5 609.5 c 128,-1,31
 501 575 501 575 501 537 c 0,32,33
 501 465 501 465 458 405.5 c 128,-1,34
 415 346 415 346 322 301 c 0,35,36
 282 281 282 281 245.5 256.5 c 128,-1,37
 209 232 209 232 181.5 201 c 128,-1,38
 154 170 154 170 136.5 132.5 c 128,-1,39
 119 95 119 95 117 48 c 1,40,-1
 524 48 l 1,0,-1
EndSplineSet
EndChar

StartChar: three
Encoding: 51 51 19
Width: 620
Flags: W
LayerCount: 2
Fore
SplineSet
311 679 m 0,0,1
 276 679 276 679 240 671 c 128,-1,2
 204 663 204 663 171 652 c 128,-1,3
 138 641 138 641 110 628 c 128,-1,4
 82 615 82 615 62 605 c 1,5,-1
 62 659 l 1,6,7
 109 683 109 683 171 705 c 128,-1,8
 233 727 233 727 311 727 c 0,9,10
 356 727 356 727 398 718 c 128,-1,11
 440 709 440 709 472 689 c 128,-1,12
 504 669 504 669 523.5 637.5 c 128,-1,13
 543 606 543 606 543 561 c 0,14,15
 543 493 543 493 513 448.5 c 128,-1,16
 483 404 483 404 413 385 c 1,17,18
 449 376 449 376 481.5 363.5 c 128,-1,19
 514 351 514 351 538 330 c 128,-1,20
 562 309 562 309 576 278 c 128,-1,21
 590 247 590 247 590 202 c 0,22,23
 590 158 590 158 569.5 118.5 c 128,-1,24
 549 79 549 79 510 49 c 128,-1,25
 471 19 471 19 415 1 c 128,-1,26
 359 -17 359 -17 288 -17 c 0,27,28
 235 -17 235 -17 194 -12.5 c 128,-1,29
 153 -8 153 -8 123 -2 c 128,-1,30
 93 4 93 4 73 10.5 c 128,-1,31
 53 17 53 17 43 22 c 1,32,-1
 43 75 l 1,33,34
 101 49 101 49 161 37.5 c 128,-1,35
 221 26 221 26 282 26 c 0,36,37
 348 26 348 26 391 45.5 c 128,-1,38
 434 65 434 65 459.5 92.5 c 128,-1,39
 485 120 485 120 495.5 150 c 128,-1,40
 506 180 506 180 506 202 c 0,41,42
 506 229 506 229 493 256.5 c 128,-1,43
 480 284 480 284 455 306.5 c 128,-1,44
 430 329 430 329 392 343 c 128,-1,45
 354 357 354 357 305 357 c 2,46,-1
 219 357 l 1,47,-1
 219 405 l 1,48,-1
 305 405 l 2,49,50
 353 405 353 405 384.5 417 c 128,-1,51
 416 429 416 429 434.5 448.5 c 128,-1,52
 453 468 453 468 460 493.5 c 128,-1,53
 467 519 467 519 467 546 c 0,54,55
 467 570 467 570 458.5 594 c 128,-1,56
 450 618 450 618 431 636.5 c 128,-1,57
 412 655 412 655 382.5 667 c 128,-1,58
 353 679 353 679 311 679 c 0,0,1
EndSplineSet
EndChar

StartChar: four
Encoding: 52 52 20
Width: 676
Flags: W
LayerCount: 2
Fore
SplineSet
425 244 m 1,0,-1
 425 674 l 1,1,2
 298 522 298 522 211.5 416.5 c 128,-1,3
 125 311 125 311 70 244 c 1,4,-1
 425 244 l 1,0,-1
37 201 m 1,5,-1
 37 263 l 1,6,7
 137 380 137 380 233.5 495 c 128,-1,8
 330 610 330 610 430 727 c 1,9,-1
 490 727 l 1,10,-1
 490 244 l 1,11,-1
 655 244 l 1,12,-1
 655 201 l 1,13,-1
 490 201 l 1,14,-1
 490 0 l 1,15,-1
 425 0 l 1,16,-1
 425 201 l 1,17,-1
 37 201 l 1,5,-1
EndSplineSet
EndChar

StartChar: five
Encoding: 53 53 21
Width: 620
Flags: W
LayerCount: 2
Fore
SplineSet
579 715 m 1,0,1
 577 703 577 703 575.5 694.5 c 128,-1,2
 574 686 574 686 572 676 c 1,3,-1
 166 676 l 1,4,-1
 137 446 l 1,5,6
 163 457 163 457 206 470 c 128,-1,7
 249 483 249 483 301 483 c 0,8,9
 364 483 364 483 416.5 470 c 128,-1,10
 469 457 469 457 507 428.5 c 128,-1,11
 545 400 545 400 566 356 c 128,-1,12
 587 312 587 312 587 250 c 0,13,14
 587 189 587 189 565.5 142.5 c 128,-1,15
 544 96 544 96 505.5 64.5 c 128,-1,16
 467 33 467 33 414.5 16.5 c 128,-1,17
 362 0 362 0 301 0 c 0,18,19
 245 0 245 0 202 6 c 128,-1,20
 159 12 159 12 127 20.5 c 128,-1,21
 95 29 95 29 74.5 38 c 128,-1,22
 54 47 54 47 44 53 c 1,23,-1
 44 111 l 1,24,25
 104 82 104 82 169.5 61.5 c 128,-1,26
 235 41 235 41 301 41 c 0,27,28
 359 41 359 41 400 61 c 128,-1,29
 441 81 441 81 466.5 112 c 128,-1,30
 492 143 492 143 503.5 180 c 128,-1,31
 515 217 515 217 515 250 c 0,32,33
 515 286 515 286 503.5 320.5 c 128,-1,34
 492 355 492 355 466.5 382 c 128,-1,35
 441 409 441 409 400 425.5 c 128,-1,36
 359 442 359 442 301 442 c 0,37,38
 275 442 275 442 246.5 437 c 128,-1,39
 218 432 218 432 192.5 425.5 c 128,-1,40
 167 419 167 419 146.5 411.5 c 128,-1,41
 126 404 126 404 114 400 c 1,42,-1
 60 432 l 1,43,44
 68 484 68 484 74.5 523 c 128,-1,45
 81 562 81 562 86 591 c 128,-1,46
 91 620 91 620 94.5 640.5 c 128,-1,47
 98 661 98 661 101 677 c 0,48,49
 102 685 102 685 103.5 695.5 c 128,-1,50
 105 706 105 706 107 715 c 1,51,-1
 579 715 l 1,0,1
EndSplineSet
EndChar

StartChar: six
Encoding: 54 54 22
Width: 602
Flags: W
LayerCount: 2
Fore
SplineSet
133 219 m 1,0,1
 133 188 133 188 145 154.5 c 128,-1,2
 157 121 157 121 180 93.5 c 128,-1,3
 203 66 203 66 236.5 48 c 128,-1,4
 270 30 270 30 313 30 c 0,5,6
 374 30 374 30 416 57 c 128,-1,7
 458 84 458 84 480.5 125 c 128,-1,8
 503 166 503 166 505.5 213.5 c 128,-1,9
 508 261 508 261 490.5 302 c 128,-1,10
 473 343 473 343 435.5 370 c 128,-1,11
 398 397 398 397 341 397 c 0,12,13
 303 397 303 397 270.5 382 c 128,-1,14
 238 367 238 367 211.5 342 c 128,-1,15
 185 317 185 317 165 285 c 128,-1,16
 145 253 145 253 133 219 c 1,0,1
563 601 m 1,17,18
 545 612 545 612 520.5 625 c 128,-1,19
 496 638 496 638 467 649.5 c 128,-1,20
 438 661 438 661 404.5 669 c 128,-1,21
 371 677 371 677 336 677 c 0,22,23
 284 677 284 677 247.5 657.5 c 128,-1,24
 211 638 211 638 186.5 606.5 c 128,-1,25
 162 575 162 575 148 533.5 c 128,-1,26
 134 492 134 492 127 448.5 c 128,-1,27
 120 405 120 405 119 362.5 c 128,-1,28
 118 320 118 320 120 285 c 1,29,30
 126 303 126 303 143.5 330.5 c 128,-1,31
 161 358 161 358 189.5 383.5 c 128,-1,32
 218 409 218 409 256 427 c 128,-1,33
 294 445 294 445 341 445 c 0,34,35
 421 445 421 445 474.5 411.5 c 128,-1,36
 528 378 528 378 554.5 327 c 128,-1,37
 581 276 581 276 580 217.5 c 128,-1,38
 579 159 579 159 549 108 c 128,-1,39
 519 57 519 57 460.5 23.5 c 128,-1,40
 402 -10 402 -10 314 -10 c 0,41,42
 254 -10 254 -10 205.5 7.5 c 128,-1,43
 157 25 157 25 123 67 c 128,-1,44
 89 109 89 109 70.5 179.5 c 128,-1,45
 52 250 52 250 52 356 c 0,46,47
 52 459 52 459 74.5 530 c 128,-1,48
 97 601 97 601 135.5 644.5 c 128,-1,49
 174 688 174 688 225.5 707.5 c 128,-1,50
 277 727 277 727 336 727 c 0,51,52
 372 727 372 727 402.5 721 c 128,-1,53
 433 715 433 715 461 705.5 c 128,-1,54
 489 696 489 696 515 684 c 128,-1,55
 541 672 541 672 567 659 c 1,56,-1
 563 601 l 1,17,18
EndSplineSet
EndChar

StartChar: seven
Encoding: 55 55 23
Width: 613
Flags: W
LayerCount: 2
Fore
SplineSet
72 709 m 1,0,-1
 576 709 l 1,1,2
 576 684 576 684 571.5 667 c 128,-1,3
 567 650 567 650 560 637 c 128,-1,4
 553 624 553 624 544 612.5 c 128,-1,5
 535 601 535 601 525 587 c 1,6,7
 526 587 526 587 513.5 571.5 c 128,-1,8
 501 556 501 556 479.5 529 c 128,-1,9
 458 502 458 502 429 465.5 c 128,-1,10
 400 429 400 429 367 388 c 1,11,12
 338 346 338 346 324 303 c 128,-1,13
 310 260 310 260 310 209 c 2,14,-1
 310 0 l 1,15,-1
 242 0 l 1,16,-1
 242 209 l 2,17,18
 242 280 242 280 263.5 327 c 128,-1,19
 285 374 285 374 311 409 c 0,20,21
 366 480 366 480 416.5 544 c 128,-1,22
 467 608 467 608 519 672 c 1,23,-1
 56 672 l 1,24,-1
 72 709 l 1,0,-1
EndSplineSet
EndChar

StartChar: eight
Encoding: 56 56 24
Width: 613
Flags: W
LayerCount: 2
Fore
SplineSet
349 445 m 1,0,1
 354 446 354 446 375 455.5 c 128,-1,2
 396 465 396 465 419 482 c 128,-1,3
 442 499 442 499 460.5 523 c 128,-1,4
 479 547 479 547 479 576 c 0,5,6
 479 610 479 610 463.5 630.5 c 128,-1,7
 448 651 448 651 424 662 c 128,-1,8
 400 673 400 673 371 676.5 c 128,-1,9
 342 680 342 680 315 680 c 0,10,11
 290 680 290 680 261 674.5 c 128,-1,12
 232 669 232 669 207.5 656.5 c 128,-1,13
 183 644 183 644 167 624 c 128,-1,14
 151 604 151 604 151 576 c 0,15,16
 151 549 151 549 174.5 527.5 c 128,-1,17
 198 506 198 506 230 489.5 c 128,-1,18
 262 473 262 473 295.5 462 c 128,-1,19
 329 451 329 451 349 445 c 1,0,1
280 402 m 1,20,21
 205 379 205 379 160.5 326 c 128,-1,22
 116 273 116 273 116 195 c 0,23,24
 116 150 116 150 134 118.5 c 128,-1,25
 152 87 152 87 181 67.5 c 128,-1,26
 210 48 210 48 245.5 39 c 128,-1,27
 281 30 281 30 316 30 c 0,28,29
 356 30 356 30 393 41.5 c 128,-1,30
 430 53 430 53 457.5 74 c 128,-1,31
 485 95 485 95 501.5 125.5 c 128,-1,32
 518 156 518 156 518 195 c 0,33,34
 518 243 518 243 496.5 280 c 128,-1,35
 475 317 475 317 441 343 c 128,-1,36
 407 369 407 369 364.5 384 c 128,-1,37
 322 399 322 399 280 402 c 1,20,21
224 416 m 1,38,39
 207 423 207 423 182.5 436 c 128,-1,40
 158 449 158 449 135 468 c 128,-1,41
 112 487 112 487 95.5 512 c 128,-1,42
 79 537 79 537 79 567 c 0,43,44
 79 643 79 643 140 684.5 c 128,-1,45
 201 726 201 726 316 726 c 0,46,47
 376 726 376 726 419.5 713.5 c 128,-1,48
 463 701 463 701 492 679 c 128,-1,49
 521 657 521 657 535 628.5 c 128,-1,50
 549 600 549 600 549 567 c 0,51,52
 549 516 549 516 512 479 c 128,-1,53
 475 442 475 442 408 418 c 1,54,55
 444 401 444 401 477 380 c 128,-1,56
 510 359 510 359 534.5 332 c 128,-1,57
 559 305 559 305 574 271 c 128,-1,58
 589 237 589 237 589 195 c 0,59,60
 589 142 589 142 568 102.5 c 128,-1,61
 547 63 547 63 510.5 36.5 c 128,-1,62
 474 10 474 10 423.5 -3.5 c 128,-1,63
 373 -17 373 -17 315 -17 c 0,64,65
 260 -17 260 -17 211.5 -6.5 c 128,-1,66
 163 4 163 4 127 28.5 c 128,-1,67
 91 53 91 53 70 93.5 c 128,-1,68
 49 134 49 134 49 195 c 0,69,70
 49 242 49 242 69 279 c 128,-1,71
 89 316 89 316 116.5 344 c 128,-1,72
 144 372 144 372 174 390 c 128,-1,73
 204 408 204 408 224 416 c 1,38,39
EndSplineSet
EndChar

StartChar: colon
Encoding: 58 58 25
Width: 281
Flags: W
LayerCount: 2
Fore
SplineSet
106 83 m 1,0,-1
 191 83 l 1,1,-1
 191 -1 l 1,2,-1
 106 -1 l 1,3,-1
 106 83 l 1,0,-1
106 433 m 1,4,-1
 106 517 l 1,5,-1
 191 517 l 1,6,-1
 191 433 l 1,7,-1
 106 433 l 1,4,-1
EndSplineSet
EndChar

StartChar: semicolon
Encoding: 59 59 26
Width: 287
Flags: W
LayerCount: 2
Fore
SplineSet
106 0 m 1,0,-1
 106 84 l 1,1,-1
 193 84 l 1,2,3
 197 55 197 55 199 30 c 128,-1,4
 201 5 201 5 201 -15 c 0,5,6
 201 -60 201 -60 192 -91.5 c 128,-1,7
 183 -123 183 -123 167.5 -143.5 c 128,-1,8
 152 -164 152 -164 132.5 -174 c 128,-1,9
 113 -184 113 -184 92 -187 c 1,10,-1
 92 -152 l 1,11,12
 120 -149 120 -149 135 -134.5 c 128,-1,13
 150 -120 150 -120 157 -99 c 128,-1,14
 164 -78 164 -78 165 -52 c 128,-1,15
 166 -26 166 -26 166 0 c 1,16,-1
 106 0 l 1,0,-1
106 433 m 1,17,-1
 106 517 l 1,18,-1
 191 517 l 1,19,-1
 191 433 l 1,20,-1
 106 433 l 1,17,-1
EndSplineSet
EndChar

StartChar: less
Encoding: 60 60 27
Width: 621
Flags: W
LayerCount: 2
Fore
SplineSet
590 458 m 1,0,-1
 101 253 l 1,1,-1
 599 49 l 1,2,-1
 599 -2 l 1,3,4
 530 26 530 26 463 56 c 128,-1,5
 396 86 396 86 329 116.5 c 128,-1,6
 262 147 262 147 195 177 c 128,-1,7
 128 207 128 207 59 235 c 1,8,-1
 59 274 l 1,9,10
 190 328 190 328 324.5 392.5 c 128,-1,11
 459 457 459 457 590 511 c 1,12,-1
 590 458 l 1,0,-1
EndSplineSet
EndChar

StartChar: equal
Encoding: 61 61 28
Width: 598
Flags: W
LayerCount: 2
Fore
SplineSet
560 169 m 1,0,-1
 560 128 l 1,1,-1
 59 128 l 1,2,-1
 59 169 l 1,3,-1
 560 169 l 1,0,-1
560 378 m 1,4,-1
 560 335 l 1,5,-1
 59 335 l 1,6,-1
 59 378 l 1,7,-1
 560 378 l 1,4,-1
EndSplineSet
EndChar

StartChar: greater
Encoding: 62 62 29
Width: 618
Flags: W
LayerCount: 2
Fore
SplineSet
57 511 m 1,0,1
 188 457 188 457 322.5 392.5 c 128,-1,2
 457 328 457 328 588 274 c 1,3,-1
 588 235 l 1,4,5
 519 207 519 207 452 177 c 128,-1,6
 385 147 385 147 318 116.5 c 128,-1,7
 251 86 251 86 184 56 c 128,-1,8
 117 26 117 26 48 -2 c 1,9,-1
 48 49 l 1,10,-1
 546 253 l 1,11,-1
 57 458 l 1,12,-1
 57 511 l 1,0,1
EndSplineSet
EndChar

StartChar: question
Encoding: 63 63 30
Width: 581
Flags: W
LayerCount: 2
Fore
SplineSet
236 223 m 1,0,1
 238 263 238 263 250 294.5 c 128,-1,2
 262 326 262 326 278.5 350 c 128,-1,3
 295 374 295 374 314.5 391.5 c 128,-1,4
 334 409 334 409 351 423 c 0,5,6
 369 438 369 438 386 452.5 c 128,-1,7
 403 467 403 467 415.5 484 c 128,-1,8
 428 501 428 501 436 523 c 128,-1,9
 444 545 444 545 444 575 c 0,10,11
 444 630 444 630 402.5 665 c 128,-1,12
 361 700 361 700 268 700 c 0,13,14
 236 700 236 700 207.5 695 c 128,-1,15
 179 690 179 690 154 682.5 c 128,-1,16
 129 675 129 675 108.5 666 c 128,-1,17
 88 657 88 657 73 650 c 1,18,-1
 73 719 l 1,19,20
 92 727 92 727 116 733 c 128,-1,21
 140 739 140 739 165.5 743 c 128,-1,22
 191 747 191 747 217.5 749 c 128,-1,23
 244 751 244 751 268 751 c 0,24,25
 320 751 320 751 365 741 c 128,-1,26
 410 731 410 731 443 710 c 128,-1,27
 476 689 476 689 495 655.5 c 128,-1,28
 514 622 514 622 514 575 c 0,29,30
 514 543 514 543 504 517.5 c 128,-1,31
 494 492 494 492 478 471 c 128,-1,32
 462 450 462 450 442 432.5 c 128,-1,33
 422 415 422 415 401 399 c 0,34,35
 358 366 358 366 322 324 c 128,-1,36
 286 282 286 282 276 223 c 1,37,-1
 236 223 l 1,0,1
219 83 m 1,38,-1
 303 83 l 1,39,-1
 303 -1 l 1,40,-1
 219 -1 l 1,41,-1
 219 83 l 1,38,-1
EndSplineSet
EndChar

StartChar: at
Encoding: 64 64 31
Width: 817
Flags: W
LayerCount: 2
Fore
SplineSet
506 399 m 1,0,1
 503 403 503 403 493 415 c 128,-1,2
 483 427 483 427 469 440 c 128,-1,3
 455 453 455 453 439.5 462.5 c 128,-1,4
 424 472 424 472 409 472 c 0,5,6
 344 472 344 472 344 358 c 0,7,8
 344 315 344 315 362.5 294.5 c 128,-1,9
 381 274 381 274 413 274 c 0,10,11
 426 274 426 274 440 281 c 128,-1,12
 454 288 454 288 466 298.5 c 128,-1,13
 478 309 478 309 486.5 322 c 128,-1,14
 495 335 495 335 497 347 c 2,15,-1
 506 399 l 1,0,1
806 441 m 0,16,17
 806 401 806 401 796.5 360 c 128,-1,18
 787 319 787 319 765 285.5 c 128,-1,19
 743 252 743 252 705.5 231 c 128,-1,20
 668 210 668 210 613 210 c 0,21,22
 586 210 586 210 565.5 217 c 128,-1,23
 545 224 545 224 531 234.5 c 128,-1,24
 517 245 517 245 507.5 257 c 128,-1,25
 498 269 498 269 494 279 c 1,26,27
 484 261 484 261 471 250 c 128,-1,28
 458 239 458 239 444.5 233 c 128,-1,29
 431 227 431 227 418 225 c 128,-1,30
 405 223 405 223 394 223 c 0,31,32
 371 223 371 223 350 229.5 c 128,-1,33
 329 236 329 236 313 252 c 128,-1,34
 297 268 297 268 287.5 295.5 c 128,-1,35
 278 323 278 323 278 365 c 0,36,37
 278 396 278 396 285 425.5 c 128,-1,38
 292 455 292 455 307 477 c 128,-1,39
 322 499 322 499 344.5 512.5 c 128,-1,40
 367 526 367 526 398 526 c 0,41,42
 408 526 408 526 422 522 c 128,-1,43
 436 518 436 518 451.5 510 c 128,-1,44
 467 502 467 502 483 488.5 c 128,-1,45
 499 475 499 475 513 456 c 1,46,47
 516 476 516 476 520.5 490 c 128,-1,48
 525 504 525 504 529 518 c 0,49,50
 530 518 530 518 530.5 517.5 c 128,-1,51
 531 517 531 517 535.5 515.5 c 128,-1,52
 540 514 540 514 549.5 510.5 c 128,-1,53
 559 507 559 507 579 500 c 1,54,55
 573 456 573 456 565.5 405.5 c 128,-1,56
 558 355 558 355 558 313 c 0,57,58
 558 252 558 252 619 252 c 0,59,60
 647 252 647 252 668 267.5 c 128,-1,61
 689 283 689 283 703 310 c 128,-1,62
 717 337 717 337 723.5 373 c 128,-1,63
 730 409 730 409 730 449 c 0,64,65
 730 513 730 513 704 561 c 128,-1,66
 678 609 678 609 636 640.5 c 128,-1,67
 594 672 594 672 540.5 688 c 128,-1,68
 487 704 487 704 432 704 c 0,69,70
 420 704 420 704 393 702.5 c 128,-1,71
 366 701 366 701 332 691.5 c 128,-1,72
 298 682 298 682 262 661.5 c 128,-1,73
 226 641 226 641 196 603.5 c 128,-1,74
 166 566 166 566 147 508.5 c 128,-1,75
 128 451 128 451 128 367 c 0,76,77
 128 279 128 279 148 220 c 128,-1,78
 168 161 168 161 200 123.5 c 128,-1,79
 232 86 232 86 271 66.5 c 128,-1,80
 310 47 310 47 348.5 38.5 c 128,-1,81
 387 30 387 30 420 29 c 128,-1,82
 453 28 453 28 473 28 c 0,83,84
 512 28 512 28 553.5 35.5 c 128,-1,85
 595 43 595 43 636 56 c 128,-1,86
 677 69 677 69 715.5 86 c 128,-1,87
 754 103 754 103 789 123 c 1,88,-1
 789 38 l 1,89,90
 701 6 701 6 612.5 -6 c 128,-1,91
 524 -18 524 -18 436 -18 c 0,92,93
 337 -18 337 -18 263 10 c 128,-1,94
 189 38 189 38 141 89 c 128,-1,95
 93 140 93 140 70 210.5 c 128,-1,96
 47 281 47 281 49 366 c 1,97,98
 49 455 49 455 78 526.5 c 128,-1,99
 107 598 107 598 158.5 648 c 128,-1,100
 210 698 210 698 280.5 725 c 128,-1,101
 351 752 351 752 435 752 c 0,102,103
 512 752 512 752 579.5 733 c 128,-1,104
 647 714 647 714 697.5 675 c 128,-1,105
 748 636 748 636 777 577.5 c 128,-1,106
 806 519 806 519 806 441 c 0,16,17
EndSplineSet
EndChar

StartChar: A
Encoding: 65 65 32
Width: 640
Flags: W
LayerCount: 2
Fore
SplineSet
339 682 m 1,0,-1
 197 314 l 1,1,-1
 466 314 l 1,2,-1
 339 682 l 1,0,-1
293 715 m 1,3,-1
 384 715 l 1,4,-1
 635 0 l 1,5,-1
 569 0 l 1,6,-1
 479 272 l 1,7,-1
 187 272 l 1,8,-1
 76 0 l 1,9,-1
 11 0 l 1,10,-1
 293 715 l 1,3,-1
EndSplineSet
EndChar

StartChar: B
Encoding: 66 66 33
Width: 685
Flags: W
LayerCount: 2
Fore
SplineSet
158 33 m 1,0,-1
 308 26 l 1,1,2
 388 24 388 24 439.5 36 c 128,-1,3
 491 48 491 48 520.5 71.5 c 128,-1,4
 550 95 550 95 561.5 128.5 c 128,-1,5
 573 162 573 162 573 203 c 0,6,7
 573 242 573 242 557.5 272.5 c 128,-1,8
 542 303 542 303 514.5 324 c 128,-1,9
 487 345 487 345 448 356 c 128,-1,10
 409 367 409 367 362 367 c 2,11,-1
 158 367 l 1,12,-1
 158 33 l 1,0,-1
317 412 m 2,13,14
 419 412 419 412 464 441.5 c 128,-1,15
 509 471 509 471 509 539 c 0,16,17
 509 600 509 600 466.5 635.5 c 128,-1,18
 424 671 424 671 324 671 c 2,19,-1
 158 671 l 1,20,-1
 158 412 l 1,21,-1
 317 412 l 2,13,14
323 714 m 2,22,23
 397 714 397 714 447 700.5 c 128,-1,24
 497 687 497 687 527.5 663 c 128,-1,25
 558 639 558 639 571 607 c 128,-1,26
 584 575 584 575 584 539 c 0,27,28
 584 506 584 506 573 481.5 c 128,-1,29
 562 457 562 457 542.5 439 c 128,-1,30
 523 421 523 421 496.5 410 c 128,-1,31
 470 399 470 399 439 395 c 1,32,33
 482 388 482 388 521 373 c 128,-1,34
 560 358 560 358 589 333.5 c 128,-1,35
 618 309 618 309 635 275 c 128,-1,36
 652 241 652 241 652 195 c 0,37,38
 652 155 652 155 639.5 116.5 c 128,-1,39
 627 78 627 78 595 48.5 c 128,-1,40
 563 19 563 19 506.5 2 c 128,-1,41
 450 -15 450 -15 362 -13 c 0,42,43
 294 -12 294 -12 247.5 -10 c 128,-1,44
 201 -8 201 -8 170 -6.5 c 128,-1,45
 139 -5 139 -5 121.5 -3.5 c 128,-1,46
 104 -2 104 -2 95 -1 c 1,47,48
 95 182 95 182 94 356.5 c 128,-1,49
 93 531 93 531 93 714 c 1,50,-1
 323 714 l 2,22,23
EndSplineSet
EndChar

StartChar: C
Encoding: 67 67 34
Width: 680
Flags: W
LayerCount: 2
Fore
SplineSet
426 731 m 0,0,1
 477 731 477 731 526 721 c 128,-1,2
 575 711 575 711 618 698 c 1,3,-1
 618 637 l 1,4,5
 572 659 572 659 525 674 c 128,-1,6
 478 689 478 689 426 689 c 0,7,8
 422 689 422 689 400 687 c 128,-1,9
 378 685 378 685 347.5 675.5 c 128,-1,10
 317 666 317 666 282 645 c 128,-1,11
 247 624 247 624 216.5 587 c 128,-1,12
 186 550 186 550 165 493.5 c 128,-1,13
 144 437 144 437 141 355 c 1,14,15
 142 272 142 272 161.5 216 c 128,-1,16
 181 160 181 160 210.5 124 c 128,-1,17
 240 88 240 88 275 68.5 c 128,-1,18
 310 49 310 49 341 40.5 c 128,-1,19
 372 32 372 32 395.5 31 c 128,-1,20
 419 30 419 30 426 30 c 0,21,22
 487 30 487 30 536 53 c 128,-1,23
 585 76 585 76 625 108 c 1,24,-1
 625 39 l 1,25,26
 613 31 613 31 594.5 20.5 c 128,-1,27
 576 10 576 10 550.5 1 c 128,-1,28
 525 -8 525 -8 493.5 -14.5 c 128,-1,29
 462 -21 462 -21 426 -21 c 0,30,31
 337 -21 337 -21 269 8.5 c 128,-1,32
 201 38 201 38 154.5 89 c 128,-1,33
 108 140 108 140 84 208.5 c 128,-1,34
 60 277 60 277 59 354 c 1,35,36
 59 446 59 446 88 516.5 c 128,-1,37
 117 587 117 587 167 634.5 c 128,-1,38
 217 682 217 682 283.5 706.5 c 128,-1,39
 350 731 350 731 426 731 c 0,0,1
EndSplineSet
EndChar

StartChar: D
Encoding: 68 68 35
Width: 682
Flags: W
LayerCount: 2
Fore
SplineSet
157 83 m 2,0,1
 157 69 157 69 157.5 61 c 128,-1,2
 158 53 158 53 160.5 49 c 128,-1,3
 163 45 163 45 168 44.5 c 128,-1,4
 173 44 173 44 182 44 c 2,5,-1
 273 44 l 2,6,7
 317 44 317 44 367.5 59 c 128,-1,8
 418 74 418 74 460.5 110 c 128,-1,9
 503 146 503 146 531.5 205.5 c 128,-1,10
 560 265 560 265 560 355 c 0,11,12
 560 441 560 441 531.5 501.5 c 128,-1,13
 503 562 503 562 460.5 600 c 128,-1,14
 418 638 418 638 367.5 655.5 c 128,-1,15
 317 673 317 673 273 673 c 0,16,17
 205 673 205 673 181 671.5 c 128,-1,18
 157 670 157 670 157 665 c 2,19,-1
 157 83 l 2,0,1
272 716 m 2,20,21
 372 716 372 716 442 680 c 128,-1,22
 512 644 512 644 556 589.5 c 128,-1,23
 600 535 600 535 620 472 c 128,-1,24
 640 409 640 409 640 355 c 256,25,26
 640 301 640 301 623 238.5 c 128,-1,27
 606 176 606 176 564.5 123.5 c 128,-1,28
 523 71 523 71 452 36 c 128,-1,29
 381 1 381 1 273 1 c 2,30,-1
 92 1 l 1,31,-1
 92 716 l 1,32,-1
 272 716 l 2,20,21
EndSplineSet
EndChar

StartChar: E
Encoding: 69 69 36
Width: 568
Flags: W
LayerCount: 2
Fore
SplineSet
94 714 m 1,0,-1
 509 714 l 1,1,-1
 509 672 l 1,2,-1
 157 672 l 1,3,-1
 157 385 l 1,4,-1
 418 385 l 1,5,-1
 418 342 l 1,6,-1
 157 342 l 1,7,-1
 157 43 l 1,8,-1
 533 43 l 1,9,-1
 533 0 l 1,10,-1
 94 0 l 1,11,-1
 94 714 l 1,0,-1
EndSplineSet
EndChar

StartChar: F
Encoding: 70 70 37
Width: 579
Flags: W
LayerCount: 2
Fore
SplineSet
94 714 m 1,0,-1
 556 714 l 1,1,-1
 556 670 l 1,2,-1
 158 670 l 1,3,-1
 158 385 l 1,4,-1
 405 385 l 1,5,-1
 405 335 l 1,6,-1
 158 335 l 1,7,-1
 158 0 l 1,8,-1
 94 0 l 1,9,-1
 94 714 l 1,0,-1
EndSplineSet
EndChar

StartChar: H
Encoding: 72 72 38
Width: 750
Flags: W
LayerCount: 2
Fore
SplineSet
617 715 m 1,0,-1
 682 715 l 1,1,-1
 682 0 l 1,2,-1
 617 0 l 1,3,-1
 617 336 l 1,4,-1
 165 336 l 1,5,-1
 165 0 l 1,6,-1
 93 0 l 1,7,-1
 93 715 l 1,8,-1
 165 715 l 1,9,-1
 165 381 l 1,10,-1
 617 381 l 1,11,-1
 617 715 l 1,0,-1
EndSplineSet
EndChar

StartChar: I
Encoding: 73 73 39
Width: 259
Flags: W
LayerCount: 2
Fore
SplineSet
103 715 m 1,0,-1
 167 715 l 1,1,-1
 167 0 l 1,2,-1
 103 0 l 1,3,-1
 103 715 l 1,0,-1
EndSplineSet
EndChar

StartChar: J
Encoding: 74 74 40
Width: 272
Flags: W
LayerCount: 2
Fore
SplineSet
183 716 m 1,0,-1
 183 -22 l 2,1,2
 183 -76 183 -76 169.5 -109.5 c 128,-1,3
 156 -143 156 -143 136.5 -163 c 128,-1,4
 117 -183 117 -183 96.5 -192 c 128,-1,5
 76 -201 76 -201 61 -204 c 1,6,-1
 61 -167 l 1,7,8
 93 -135 93 -135 107 -102.5 c 128,-1,9
 121 -70 121 -70 121 -22 c 2,10,-1
 121 716 l 1,11,-1
 183 716 l 1,0,-1
EndSplineSet
EndChar

StartChar: K
Encoding: 75 75 41
Width: 626
Flags: W
LayerCount: 2
Fore
SplineSet
502 715 m 1,0,-1
 570 715 l 1,1,-1
 335 436 l 1,2,-1
 624 0 l 1,3,-1
 546 0 l 1,4,-1
 292 384 l 1,5,-1
 151 230 l 1,6,-1
 151 0 l 1,7,-1
 87 0 l 1,8,-1
 87 715 l 1,9,-1
 151 715 l 1,10,-1
 151 307 l 1,11,-1
 502 715 l 1,0,-1
EndSplineSet
EndChar

StartChar: L
Encoding: 76 76 42
Width: 535
Flags: W
LayerCount: 2
Fore
SplineSet
531 45 m 1,0,-1
 531 0 l 1,1,-1
 94 0 l 1,2,-1
 94 715 l 1,3,-1
 160 715 l 1,4,-1
 160 71 l 2,5,6
 160 51 160 51 162.5 48 c 128,-1,7
 165 45 165 45 182 45 c 2,8,-1
 531 45 l 1,0,-1
EndSplineSet
EndChar

StartChar: M
Encoding: 77 77 43
Width: 920
Flags: W
LayerCount: 2
Fore
SplineSet
444 84 m 1,0,-1
 158 674 l 1,1,2
 158 515 158 515 156.5 344 c 128,-1,3
 155 173 155 173 155 0 c 1,4,-1
 92 0 l 1,5,-1
 92 715 l 1,6,-1
 214 715 l 1,7,-1
 456 179 l 2,8,9
 463 164 463 164 470 159 c 128,-1,10
 477 154 477 154 483.5 155.5 c 128,-1,11
 490 157 490 157 495.5 163.5 c 128,-1,12
 501 170 501 170 505 179 c 0,13,14
 557 296 557 296 593.5 379 c 128,-1,15
 630 462 630 462 655.5 519 c 128,-1,16
 681 576 681 576 696.5 611 c 128,-1,17
 712 646 712 646 721.5 666.5 c 128,-1,18
 731 687 731 687 735.5 697 c 128,-1,19
 740 707 740 707 743 715 c 1,20,-1
 856 715 l 1,21,-1
 856 0 l 1,22,-1
 792 0 l 1,23,-1
 791 675 l 1,24,25
 724 531 724 531 653.5 378.5 c 128,-1,26
 583 226 583 226 518 84 c 1,27,-1
 444 84 l 1,0,-1
EndSplineSet
EndChar

StartChar: N
Encoding: 78 78 44
Width: 711
Flags: W
LayerCount: 2
Fore
SplineSet
91 714 m 1,0,-1
 186 714 l 1,1,-1
 583 76 l 1,2,-1
 583 714 l 1,3,-1
 649 714 l 1,4,-1
 649 0 l 1,5,-1
 574 0 l 1,6,-1
 155 673 l 1,7,-1
 155 0 l 1,8,-1
 91 0 l 1,9,-1
 91 714 l 1,0,-1
EndSplineSet
EndChar

StartChar: O
Encoding: 79 79 45
Width: 824
Flags: W
LayerCount: 2
Fore
SplineSet
125 357 m 0,0,1
 125 271 125 271 144 213 c 128,-1,2
 163 155 163 155 192 118.5 c 128,-1,3
 221 82 221 82 256.5 62.5 c 128,-1,4
 292 43 292 43 325 35 c 128,-1,5
 358 27 358 27 385 26 c 128,-1,6
 412 25 412 25 424 25 c 0,7,8
 434 25 434 25 461 26.5 c 128,-1,9
 488 28 488 28 522 37.5 c 128,-1,10
 556 47 556 47 593 67 c 128,-1,11
 630 87 630 87 661 124 c 128,-1,12
 692 161 692 161 712 217.5 c 128,-1,13
 732 274 732 274 732 357 c 0,14,15
 732 441 732 441 712 498 c 128,-1,16
 692 555 692 555 661 592 c 128,-1,17
 630 629 630 629 593 648 c 128,-1,18
 556 667 556 667 521.5 676 c 128,-1,19
 487 685 487 685 460 686 c 128,-1,20
 433 687 433 687 423 687 c 0,21,22
 411 687 411 687 384.5 685.5 c 128,-1,23
 358 684 358 684 324.5 674.5 c 128,-1,24
 291 665 291 665 256 645 c 128,-1,25
 221 625 221 625 191.5 588 c 128,-1,26
 162 551 162 551 143.5 495 c 128,-1,27
 125 439 125 439 125 357 c 0,0,1
424 731 m 1,28,29
 620 728 620 728 709.5 634 c 128,-1,30
 799 540 799 540 799 356 c 0,31,32
 799 276 799 276 778.5 207.5 c 128,-1,33
 758 139 758 139 713 88.5 c 128,-1,34
 668 38 668 38 596.5 9 c 128,-1,35
 525 -20 525 -20 424 -20 c 0,36,37
 321 -20 321 -20 249.5 7 c 128,-1,38
 178 34 178 34 133.5 83.5 c 128,-1,39
 89 133 89 133 68.5 202.5 c 128,-1,40
 48 272 48 272 47 356 c 1,41,42
 47 540 47 540 146 634 c 128,-1,43
 245 728 245 728 424 731 c 1,28,29
EndSplineSet
EndChar

StartChar: P
Encoding: 80 80 46
Width: 616
Flags: W
LayerCount: 2
Fore
SplineSet
159 347 m 1,0,-1
 341 347 l 2,1,2
 394 347 394 347 428 365.5 c 128,-1,3
 462 384 462 384 482 409.5 c 128,-1,4
 502 435 502 435 510 461.5 c 128,-1,5
 518 488 518 488 518 505 c 0,6,7
 518 531 518 531 510 560.5 c 128,-1,8
 502 590 502 590 482 614.5 c 128,-1,9
 462 639 462 639 428 655 c 128,-1,10
 394 671 394 671 341 671 c 2,11,-1
 159 671 l 1,12,-1
 159 347 l 1,0,-1
341 715 m 2,13,14
 412 715 412 715 460.5 696 c 128,-1,15
 509 677 509 677 538.5 646.5 c 128,-1,16
 568 616 568 616 581 578.5 c 128,-1,17
 594 541 594 541 594 505 c 0,18,19
 594 471 594 471 581.5 435 c 128,-1,20
 569 399 569 399 540 369 c 128,-1,21
 511 339 511 339 462 320 c 128,-1,22
 413 301 413 301 341 301 c 2,23,-1
 159 301 l 1,24,-1
 159 -1 l 1,25,-1
 95 -1 l 1,26,-1
 95 714 l 1,27,-1
 341 715 l 2,13,14
EndSplineSet
EndChar

StartChar: Q
Encoding: 81 81 47
Width: 821
Flags: W
LayerCount: 2
Fore
SplineSet
125 354 m 0,0,1
 125 268 125 268 144 210 c 128,-1,2
 163 152 163 152 192 115.5 c 128,-1,3
 221 79 221 79 256.5 59.5 c 128,-1,4
 292 40 292 40 325 32 c 128,-1,5
 358 24 358 24 385 23 c 128,-1,6
 412 22 412 22 424 22 c 0,7,8
 434 22 434 22 461 23.5 c 128,-1,9
 488 25 488 25 522 34.5 c 128,-1,10
 556 44 556 44 593 64 c 128,-1,11
 630 84 630 84 660.5 121 c 128,-1,12
 691 158 691 158 711 214.5 c 128,-1,13
 731 271 731 271 731 354 c 0,14,15
 731 438 731 438 711 495 c 128,-1,16
 691 552 691 552 660.5 589 c 128,-1,17
 630 626 630 626 593 645 c 128,-1,18
 556 664 556 664 521.5 673 c 128,-1,19
 487 682 487 682 460 683 c 128,-1,20
 433 684 433 684 423 684 c 0,21,22
 411 684 411 684 384.5 682.5 c 128,-1,23
 358 681 358 681 324.5 671.5 c 128,-1,24
 291 662 291 662 256 642 c 128,-1,25
 221 622 221 622 191.5 585 c 128,-1,26
 162 548 162 548 143.5 492 c 128,-1,27
 125 436 125 436 125 354 c 0,0,1
424 728 m 1,28,29
 620 725 620 725 709.5 631 c 128,-1,30
 799 537 799 537 799 353 c 0,31,32
 799 277 799 277 780 211.5 c 128,-1,33
 761 146 761 146 719 96.5 c 128,-1,34
 677 47 677 47 609.5 15.5 c 128,-1,35
 542 -16 542 -16 446 -23 c 1,36,-1
 446 -56 l 2,37,38
 446 -93 446 -93 459 -118.5 c 128,-1,39
 472 -144 472 -144 491.5 -160.5 c 128,-1,40
 511 -177 511 -177 533 -185.5 c 128,-1,41
 555 -194 555 -194 573 -196 c 1,42,-1
 573 -207 l 1,43,44
 513 -204 513 -204 477.5 -184.5 c 128,-1,45
 442 -165 442 -165 423.5 -141 c 128,-1,46
 405 -117 405 -117 400 -93 c 128,-1,47
 395 -69 395 -69 395 -55 c 2,48,-1
 395 -23 l 1,49,50
 299 -16 299 -16 233.5 14.5 c 128,-1,51
 168 45 168 45 127 94.5 c 128,-1,52
 86 144 86 144 67 209.5 c 128,-1,53
 48 275 48 275 47 353 c 1,54,55
 47 537 47 537 146 631 c 128,-1,56
 245 725 245 725 424 728 c 1,28,29
EndSplineSet
EndChar

StartChar: R
Encoding: 82 82 48
Width: 662
Flags: W
LayerCount: 2
Fore
SplineSet
332 397 m 2,0,1
 382 397 382 397 414.5 410.5 c 128,-1,2
 447 424 447 424 466.5 444 c 128,-1,3
 486 464 486 464 493.5 488.5 c 128,-1,4
 501 513 501 513 501 535 c 0,5,6
 501 559 501 559 492.5 583 c 128,-1,7
 484 607 484 607 464 626.5 c 128,-1,8
 444 646 444 646 411.5 658.5 c 128,-1,9
 379 671 379 671 332 671 c 2,10,-1
 155 671 l 1,11,-1
 155 397 l 1,12,-1
 332 397 l 2,0,1
332 715 m 2,13,14
 393 715 393 715 437.5 702 c 128,-1,15
 482 689 482 689 511 666 c 128,-1,16
 540 643 540 643 554.5 612 c 128,-1,17
 569 581 569 581 569 544 c 0,18,19
 569 502 569 502 554.5 471 c 128,-1,20
 540 440 540 440 517.5 419 c 128,-1,21
 495 398 495 398 467.5 386.5 c 128,-1,22
 440 375 440 375 414 372 c 1,23,24
 440 366 440 366 457.5 354.5 c 128,-1,25
 475 343 475 343 487 328 c 128,-1,26
 499 313 499 313 507.5 295 c 128,-1,27
 516 277 516 277 524 257 c 2,28,-1
 627 0 l 1,29,-1
 561 0 l 1,30,31
 531 76 531 76 510 128.5 c 128,-1,32
 489 181 489 181 475.5 214.5 c 128,-1,33
 462 248 462 248 455.5 265 c 128,-1,34
 449 282 449 282 447 286 c 0,35,36
 432 318 432 318 411 333 c 128,-1,37
 390 348 390 348 356 348 c 2,38,-1
 155 348 l 1,39,-1
 155 0 l 1,40,-1
 92 0 l 1,41,-1
 92 715 l 1,42,-1
 332 715 l 2,13,14
EndSplineSet
EndChar

StartChar: S
Encoding: 83 83 49
Width: 588
Flags: W
LayerCount: 2
Fore
SplineSet
531 638 m 1,0,1
 496 654 496 654 466.5 664 c 128,-1,2
 437 674 437 674 410 679 c 128,-1,3
 383 684 383 684 357 686 c 128,-1,4
 331 688 331 688 304 688 c 0,5,6
 270 688 270 688 239.5 679 c 128,-1,7
 209 670 209 670 185.5 652 c 128,-1,8
 162 634 162 634 148.5 608.5 c 128,-1,9
 135 583 135 583 135 550 c 0,10,11
 135 518 135 518 145.5 495 c 128,-1,12
 156 472 156 472 176 455 c 128,-1,13
 196 438 196 438 225 425.5 c 128,-1,14
 254 413 254 413 291 403 c 1,15,16
 333 390 333 390 379 373.5 c 128,-1,17
 425 357 425 357 463.5 330.5 c 128,-1,18
 502 304 502 304 527.5 265.5 c 128,-1,19
 553 227 553 227 553 170 c 0,20,21
 553 111 553 111 524.5 74 c 128,-1,22
 496 37 496 37 454 16 c 128,-1,23
 412 -5 412 -5 365.5 -12.5 c 128,-1,24
 319 -20 319 -20 283 -20 c 0,25,26
 195 -20 195 -20 138.5 0 c 128,-1,27
 82 20 82 20 56 38 c 1,28,-1
 56 104 l 1,29,30
 75 90 75 90 100 76.5 c 128,-1,31
 125 63 125 63 154 52.5 c 128,-1,32
 183 42 183 42 215.5 35 c 128,-1,33
 248 28 248 28 283 28 c 0,34,35
 324 28 324 28 359.5 39 c 128,-1,36
 395 50 395 50 421 69.5 c 128,-1,37
 447 89 447 89 462 114.5 c 128,-1,38
 477 140 477 140 477 170 c 0,39,40
 477 187 477 187 473 209.5 c 128,-1,41
 469 232 469 232 451 256 c 128,-1,42
 433 280 433 280 396 302 c 128,-1,43
 359 324 359 324 294 341 c 1,44,-1
 295 341 l 1,45,46
 238 357 238 357 193.5 375.5 c 128,-1,47
 149 394 149 394 118.5 419 c 128,-1,48
 88 444 88 444 72 476 c 128,-1,49
 56 508 56 508 56 551 c 0,50,51
 56 586 56 586 72 618.5 c 128,-1,52
 88 651 88 651 119.5 676 c 128,-1,53
 151 701 151 701 197.5 716 c 128,-1,54
 244 731 244 731 305 731 c 0,55,56
 354 731 354 731 390 727 c 128,-1,57
 426 723 426 723 452.5 717 c 128,-1,58
 479 711 479 711 498 703.5 c 128,-1,59
 517 696 517 696 531 689 c 1,60,-1
 531 638 l 1,0,1
EndSplineSet
EndChar

StartChar: T
Encoding: 84 84 50
Width: 616
Flags: W
LayerCount: 2
Fore
SplineSet
621 673 m 1,0,-1
 354 673 l 1,1,-1
 354 0 l 1,2,-1
 287 0 l 1,3,-1
 287 673 l 1,4,-1
 12 673 l 1,5,-1
 12 716 l 1,6,-1
 621 716 l 1,7,-1
 621 673 l 1,0,-1
EndSplineSet
EndChar

StartChar: U
Encoding: 85 85 51
Width: 717
Flags: W
LayerCount: 2
Fore
SplineSet
643 715 m 1,0,-1
 643 306 l 2,1,2
 643 279 643 279 642 245 c 128,-1,3
 641 211 641 211 633.5 175.5 c 128,-1,4
 626 140 626 140 610 106 c 128,-1,5
 594 72 594 72 563.5 45.5 c 128,-1,6
 533 19 533 19 485.5 3 c 128,-1,7
 438 -13 438 -13 369 -13 c 0,8,9
 299 -13 299 -13 250.5 3 c 128,-1,10
 202 19 202 19 171 46 c 128,-1,11
 140 73 140 73 123 107.5 c 128,-1,12
 106 142 106 142 98 178 c 128,-1,13
 90 214 90 214 88.5 249.5 c 128,-1,14
 87 285 87 285 87 314 c 2,15,-1
 87 715 l 1,16,-1
 152 715 l 1,17,-1
 152 306 l 2,18,19
 152 290 152 290 153 264 c 128,-1,20
 154 238 154 238 160 207.5 c 128,-1,21
 166 177 166 177 179.5 146 c 128,-1,22
 193 115 193 115 217 90.5 c 128,-1,23
 241 66 241 66 278 50 c 128,-1,24
 315 34 315 34 369 34 c 0,25,26
 422 34 422 34 458 49.5 c 128,-1,27
 494 65 494 65 517.5 90 c 128,-1,28
 541 115 541 115 553.5 145.5 c 128,-1,29
 566 176 566 176 572 206.5 c 128,-1,30
 578 237 578 237 579 263.5 c 128,-1,31
 580 290 580 290 580 306 c 2,32,-1
 580 715 l 1,33,-1
 643 715 l 1,0,-1
EndSplineSet
EndChar

StartChar: V
Encoding: 86 86 52
Width: 683
Flags: W
LayerCount: 2
Fore
SplineSet
379 0 m 1,0,-1
 282 0 l 1,1,-1
 21 715 l 1,2,-1
 91 715 l 1,3,-1
 331 46 l 1,4,-1
 571 715 l 1,5,-1
 650 715 l 1,6,-1
 379 0 l 1,0,-1
EndSplineSet
EndChar

StartChar: W
Encoding: 87 87 53
Width: 1060
Flags: W
LayerCount: 2
Fore
SplineSet
92 715 m 1,0,-1
 334 49 l 1,1,-1
 506 715 l 1,2,-1
 588 715 l 1,3,-1
 756 47 l 1,4,-1
 993 715 l 1,5,-1
 1069 715 l 1,6,-1
 809 0 l 1,7,-1
 712 0 l 1,8,-1
 547 679 l 1,9,-1
 380 0 l 1,10,-1
 283 0 l 1,11,-1
 18 715 l 1,12,-1
 92 715 l 1,0,-1
EndSplineSet
EndChar

StartChar: X
Encoding: 88 88 54
Width: 683
Flags: W
LayerCount: 2
Fore
SplineSet
317 368 m 1,0,-1
 48 715 l 1,1,-1
 126 715 l 1,2,-1
 350 417 l 1,3,-1
 576 715 l 1,4,-1
 654 715 l 1,5,-1
 391 368 l 1,6,-1
 669 -1 l 1,7,-1
 600 -1 l 1,8,-1
 350 320 l 1,9,-1
 102 -1 l 1,10,-1
 32 -1 l 1,11,-1
 317 368 l 1,0,-1
EndSplineSet
EndChar

StartChar: Y
Encoding: 89 89 55
Width: 690
Flags: W
LayerCount: 2
Fore
SplineSet
29 715 m 1,0,-1
 102 715 l 1,1,-1
 352 319 l 1,2,-1
 605 715 l 1,3,-1
 679 715 l 1,4,-1
 390 268 l 1,5,-1
 390 -1 l 1,6,-1
 318 -1 l 1,7,-1
 318 268 l 1,8,-1
 29 715 l 1,0,-1
EndSplineSet
EndChar

StartChar: Z
Encoding: 90 90 56
Width: 655
Flags: W
LayerCount: 2
Fore
SplineSet
641 50 m 1,0,-1
 641 0 l 1,1,-1
 34 0 l 1,2,-1
 34 67 l 1,3,-1
 582 672 l 1,4,-1
 34 672 l 1,5,-1
 34 715 l 1,6,-1
 641 715 l 1,7,-1
 641 649 l 1,8,-1
 102 50 l 1,9,-1
 641 50 l 1,0,-1
EndSplineSet
EndChar

StartChar: bracketleft
Encoding: 91 91 57
Width: 324
Flags: W
LayerCount: 2
Fore
SplineSet
323 705 m 1,0,-1
 165 705 l 1,1,-1
 165 -169 l 1,2,-1
 323 -169 l 1,3,-1
 323 -213 l 1,4,-1
 90 -213 l 1,5,-1
 90 750 l 1,6,-1
 323 750 l 1,7,-1
 323 705 l 1,0,-1
EndSplineSet
EndChar

StartChar: bracketright
Encoding: 93 93 58
Width: 324
Flags: W
LayerCount: 2
Fore
SplineSet
247 750 m 1,0,-1
 247 -212 l 1,1,-1
 15 -212 l 1,2,-1
 15 -166 l 1,3,-1
 173 -166 l 1,4,-1
 173 705 l 1,5,-1
 15 705 l 1,6,-1
 15 750 l 1,7,-1
 247 750 l 1,0,-1
EndSplineSet
EndChar

StartChar: asciicircum
Encoding: 94 94 59
Width: 602
Flags: W
LayerCount: 2
Fore
SplineSet
73 289 m 1,0,-1
 298 710 l 1,1,-1
 298 711 l 1,2,-1
 334 711 l 1,3,4
 358 659 358 659 387 605 c 128,-1,5
 416 551 416 551 446.5 496.5 c 128,-1,6
 477 442 477 442 506.5 387.5 c 128,-1,7
 536 333 536 333 562 281 c 1,8,-1
 515 281 l 1,9,-1
 316 674 l 1,10,11
 279 595 279 595 249.5 537 c 128,-1,12
 220 479 220 479 196.5 434.5 c 128,-1,13
 173 390 173 390 155.5 355.5 c 128,-1,14
 138 321 138 321 124 290 c 1,15,-1
 73 289 l 1,0,-1
EndSplineSet
EndChar

StartChar: underscore
Encoding: 95 95 60
Width: 500
Flags: W
LayerCount: 2
Fore
SplineSet
511 -120 m 1,0,-1
 511 -139 l 1,1,-1
 10 -139 l 1,2,-1
 10 -120 l 1,3,-1
 511 -120 l 1,0,-1
EndSplineSet
EndChar

StartChar: grave
Encoding: 96 96 61
Width: 222
Flags: W
LayerCount: 2
Fore
SplineSet
82 751 m 1,0,-1
 132 639 l 1,1,-1
 90 639 l 1,2,-1
 4 751 l 1,3,-1
 82 751 l 1,0,-1
EndSplineSet
EndChar

StartChar: a
Encoding: 97 97 62
Width: 463
Flags: W
LayerCount: 2
Fore
SplineSet
355 273 m 1,0,1
 310 262 310 262 278.5 260 c 128,-1,2
 247 258 247 258 213 258 c 0,3,4
 195 258 195 258 175.5 256.5 c 128,-1,5
 156 255 156 255 140.5 244.5 c 128,-1,6
 125 234 125 234 114.5 211.5 c 128,-1,7
 104 189 104 189 104 147 c 0,8,9
 104 89 104 89 137 62.5 c 128,-1,10
 170 36 170 36 217 36 c 0,11,12
 250 36 250 36 285.5 51.5 c 128,-1,13
 321 67 321 67 353 98 c 1,14,-1
 355 273 l 1,0,1
420 0 m 1,15,-1
 373 0 l 1,16,-1
 340 37 l 1,17,18
 323 28 323 28 305.5 20 c 128,-1,19
 288 12 288 12 268 6 c 128,-1,20
 248 0 248 0 224 -3.5 c 128,-1,21
 200 -7 200 -7 169 -7 c 0,22,23
 111 -7 111 -7 74.5 32.5 c 128,-1,24
 38 72 38 72 38 148 c 0,25,26
 38 178 38 178 45.5 205.5 c 128,-1,27
 53 233 53 233 72 254.5 c 128,-1,28
 91 276 91 276 121.5 288.5 c 128,-1,29
 152 301 152 301 199 301 c 0,30,31
 237 301 237 301 262 301.5 c 128,-1,32
 287 302 287 302 303.5 304.5 c 128,-1,33
 320 307 320 307 331 312.5 c 128,-1,34
 342 318 342 318 353 328 c 1,35,36
 353 381 353 381 347 412.5 c 128,-1,37
 341 444 341 444 327.5 460 c 128,-1,38
 314 476 314 476 292 480.5 c 128,-1,39
 270 485 270 485 237 485 c 0,40,41
 185 485 185 485 148.5 474.5 c 128,-1,42
 112 464 112 464 89 455 c 1,43,44
 84 469 84 469 81 477.5 c 128,-1,45
 78 486 78 486 72 499 c 1,46,47
 107 514 107 514 151 523.5 c 128,-1,48
 195 533 195 533 243 533 c 0,49,50
 279 533 279 533 311 524.5 c 128,-1,51
 343 516 343 516 367.5 493.5 c 128,-1,52
 392 471 392 471 406 432 c 128,-1,53
 420 393 420 393 420 331 c 2,54,-1
 420 0 l 1,15,-1
EndSplineSet
EndChar

StartChar: b
Encoding: 98 98 63
Width: 514
Flags: W
LayerCount: 2
Fore
SplineSet
119 63 m 1,0,1
 151 46 151 46 188 37.5 c 128,-1,2
 225 29 225 29 257 29 c 0,3,4
 309 29 309 29 340 52 c 128,-1,5
 371 75 371 75 388 111 c 128,-1,6
 405 147 405 147 410.5 190.5 c 128,-1,7
 416 234 416 234 416 275 c 0,8,9
 416 313 416 313 412 351 c 128,-1,10
 408 389 408 389 396 419.5 c 128,-1,11
 384 450 384 450 362.5 469 c 128,-1,12
 341 488 341 488 307 488 c 0,13,14
 275 488 275 488 248.5 474.5 c 128,-1,15
 222 461 222 461 201 439.5 c 128,-1,16
 180 418 180 418 165 391 c 128,-1,17
 150 364 150 364 139.5 336.5 c 128,-1,18
 129 309 129 309 124 283.5 c 128,-1,19
 119 258 119 258 119 241 c 2,20,-1
 119 63 l 1,0,1
50 794 m 1,21,-1
 117 794 l 1,22,-1
 117 384 l 1,23,24
 123 407 123 407 139.5 433.5 c 128,-1,25
 156 460 156 460 181 482 c 128,-1,26
 206 504 206 504 238.5 518.5 c 128,-1,27
 271 533 271 533 309 533 c 0,28,29
 346 533 346 533 378.5 520 c 128,-1,30
 411 507 411 507 434.5 477 c 128,-1,31
 458 447 458 447 471.5 397.5 c 128,-1,32
 485 348 485 348 485 275 c 0,33,34
 485 125 485 125 426.5 56.5 c 128,-1,35
 368 -12 368 -12 241 -12 c 0,36,37
 183 -12 183 -12 133.5 0 c 128,-1,38
 84 12 84 12 52 25 c 1,39,-1
 50 794 l 1,21,-1
EndSplineSet
EndChar

StartChar: c
Encoding: 99 99 64
Width: 509
Flags: W
LayerCount: 2
Fore
SplineSet
323 30 m 0,0,1
 375 30 375 30 421.5 44.5 c 128,-1,2
 468 59 468 59 497 73 c 1,3,4
 497 47 497 47 497.5 35.5 c 128,-1,5
 498 24 498 24 498 15 c 1,6,7
 452 1 452 1 412.5 -7.5 c 128,-1,8
 373 -16 373 -16 323 -16 c 0,9,10
 188 -16 188 -16 120.5 51.5 c 128,-1,11
 53 119 53 119 53 263 c 0,12,13
 53 339 53 339 71.5 390.5 c 128,-1,14
 90 442 90 442 125 473.5 c 128,-1,15
 160 505 160 505 210 518.5 c 128,-1,16
 260 532 260 532 323 532 c 0,17,18
 373 532 373 532 415 518.5 c 128,-1,19
 457 505 457 505 488 488 c 1,20,-1
 488 435 l 1,21,22
 446 454 446 454 405.5 470 c 128,-1,23
 365 486 365 486 323 486 c 0,24,25
 284 486 284 486 247 477.5 c 128,-1,26
 210 469 210 469 182 445 c 128,-1,27
 154 421 154 421 137 378 c 128,-1,28
 120 335 120 335 120 265 c 0,29,30
 120 192 120 192 136.5 146.5 c 128,-1,31
 153 101 153 101 180.5 75 c 128,-1,32
 208 49 208 49 245 39.5 c 128,-1,33
 282 30 282 30 323 30 c 0,0,1
EndSplineSet
EndChar

StartChar: d
Encoding: 100 100 65
Width: 538
Flags: W
LayerCount: 2
Fore
SplineSet
424 448 m 1,0,1
 411 454 411 454 390 461 c 128,-1,2
 369 468 369 468 346 475 c 128,-1,3
 323 482 323 482 299.5 486.5 c 128,-1,4
 276 491 276 491 257 491 c 0,5,6
 222 491 222 491 198 477.5 c 128,-1,7
 174 464 174 464 158.5 442.5 c 128,-1,8
 143 421 143 421 135 394.5 c 128,-1,9
 127 368 127 368 123.5 342.5 c 128,-1,10
 120 317 120 317 119.5 295.5 c 128,-1,11
 119 274 119 274 119 262 c 0,12,13
 119 230 119 230 123 190 c 128,-1,14
 127 150 127 150 140.5 115 c 128,-1,15
 154 80 154 80 180.5 56 c 128,-1,16
 207 32 207 32 251 32 c 0,17,18
 341 32 341 32 382 81 c 128,-1,19
 423 130 423 130 423 222 c 2,20,-1
 424 448 l 1,0,1
424 68 m 1,21,22
 401 33 401 33 357.5 10.5 c 128,-1,23
 314 -12 314 -12 251 -12 c 0,24,25
 210 -12 210 -12 174 2 c 128,-1,26
 138 16 138 16 111 48 c 128,-1,27
 84 80 84 80 68 132 c 128,-1,28
 52 184 52 184 52 261 c 0,29,30
 52 336 52 336 69 388.5 c 128,-1,31
 86 441 86 441 114.5 474 c 128,-1,32
 143 507 143 507 180 522 c 128,-1,33
 217 537 217 537 257 537 c 0,34,35
 283 537 283 537 327 529 c 128,-1,36
 371 521 371 521 424 501 c 1,37,-1
 424 793 l 1,38,-1
 491 793 l 1,39,-1
 491 -4 l 1,40,-1
 428 -4 l 1,41,42
 428 1 428 1 427.5 5.5 c 128,-1,43
 427 10 427 10 426 17.5 c 128,-1,44
 425 25 425 25 424.5 36.5 c 128,-1,45
 424 48 424 48 424 68 c 1,21,22
EndSplineSet
EndChar

StartChar: e
Encoding: 101 101 66
Width: 521
Flags: W
LayerCount: 2
Fore
SplineSet
434 306 m 1,0,1
 433 343 433 343 424.5 374 c 128,-1,2
 416 405 416 405 401 431 c 1,3,4
 384 458 384 458 357 472 c 128,-1,5
 330 486 330 486 288 486 c 0,6,7
 244 486 244 486 213.5 471 c 128,-1,8
 183 456 183 456 164 430.5 c 128,-1,9
 145 405 145 405 136 372.5 c 128,-1,10
 127 340 127 340 127 305 c 1,11,-1
 434 306 l 1,0,1
288 25 m 0,12,13
 318 25 318 25 343 33.5 c 128,-1,14
 368 42 368 42 387 54 c 128,-1,15
 406 66 406 66 419.5 80 c 128,-1,16
 433 94 433 94 441 106 c 1,17,18
 464 88 464 88 472 81.5 c 128,-1,19
 480 75 480 75 485 71 c 1,20,21
 462 44 462 44 437.5 27 c 128,-1,22
 413 10 413 10 387.5 0.5 c 128,-1,23
 362 -9 362 -9 337 -12.5 c 128,-1,24
 312 -16 312 -16 288 -16 c 0,25,26
 221 -16 221 -16 176.5 2.5 c 128,-1,27
 132 21 132 21 105 55 c 128,-1,28
 78 89 78 89 66 138 c 128,-1,29
 54 187 54 187 53 247 c 1,30,31
 53 381 53 381 109.5 456.5 c 128,-1,32
 166 532 166 532 288 532 c 0,33,34
 390 532 390 532 442 466 c 128,-1,35
 494 400 494 400 493 263 c 1,36,-1
 119 264 l 1,37,38
 119 211 119 211 123 167.5 c 128,-1,39
 127 124 127 124 144 92 c 128,-1,40
 161 60 161 60 194.5 42.5 c 128,-1,41
 228 25 228 25 288 25 c 0,12,13
EndSplineSet
EndChar

StartChar: f
Encoding: 102 102 67
Width: 322
Flags: W
LayerCount: 2
Fore
SplineSet
423 697 m 1,0,1
 396 711 396 711 370 719 c 128,-1,2
 344 727 344 727 312 727 c 0,3,4
 260 727 260 727 232.5 714.5 c 128,-1,5
 205 702 205 702 192.5 680.5 c 128,-1,6
 180 659 180 659 178.5 629 c 128,-1,7
 177 599 177 599 177 563 c 2,8,-1
 177 518 l 1,9,-1
 306 518 l 1,10,-1
 306 475 l 1,11,-1
 177 475 l 1,12,-1
 177 0 l 1,13,-1
 113 0 l 1,14,-1
 113 475 l 1,15,-1
 27 475 l 1,16,-1
 27 518 l 1,17,-1
 113 518 l 1,18,-1
 113 563 l 2,19,20
 113 626 113 626 126 668 c 128,-1,21
 139 710 139 710 164.5 734.5 c 128,-1,22
 190 759 190 759 227 769 c 128,-1,23
 264 779 264 779 312 779 c 0,24,25
 353 779 353 779 380.5 768 c 128,-1,26
 408 757 408 757 422 748 c 1,27,-1
 423 697 l 1,0,1
EndSplineSet
EndChar

StartChar: h
Encoding: 104 104 68
Width: 569
Flags: W
LayerCount: 2
Fore
SplineSet
442 320 m 2,0,1
 442 398 442 398 410.5 440.5 c 128,-1,2
 379 483 379 483 316 483 c 0,3,4
 282 483 282 483 251 470.5 c 128,-1,5
 220 458 220 458 196.5 437 c 128,-1,6
 173 416 173 416 159 388.5 c 128,-1,7
 145 361 145 361 145 331 c 2,8,-1
 145 0 l 1,9,-1
 79 0 l 1,10,-1
 79 795 l 1,11,-1
 145 795 l 1,12,-1
 145 411 l 1,13,14
 155 435 155 435 176.5 457 c 128,-1,15
 198 479 198 479 225.5 496 c 128,-1,16
 253 513 253 513 284 523 c 128,-1,17
 315 533 315 533 346 533 c 0,18,19
 381 533 381 533 410.5 519.5 c 128,-1,20
 440 506 440 506 461 479 c 128,-1,21
 482 452 482 452 494 410.5 c 128,-1,22
 506 369 506 369 506 313 c 2,23,-1
 506 0 l 1,24,-1
 442 0 l 1,25,-1
 442 320 l 2,0,1
EndSplineSet
EndChar

StartChar: i
Encoding: 105 105 69
Width: 229
Flags: W
LayerCount: 2
Fore
SplineSet
75 711 m 1,0,-1
 75 796 l 1,1,-1
 160 796 l 1,2,-1
 160 711 l 1,3,-1
 75 711 l 1,0,-1
92 518 m 1,4,-1
 160 518 l 1,5,-1
 160 0 l 1,6,-1
 92 0 l 1,7,-1
 92 518 l 1,4,-1
EndSplineSet
EndChar

StartChar: j
Encoding: 106 106 70
Width: 231
Flags: W
LayerCount: 2
Fore
SplineSet
161 -16 m 2,0,1
 161 -75 161 -75 146.5 -112.5 c 128,-1,2
 132 -150 132 -150 111.5 -171.5 c 128,-1,3
 91 -193 91 -193 68.5 -202 c 128,-1,4
 46 -211 46 -211 30 -214 c 1,5,6
 31 -200 31 -200 31 -189.5 c 128,-1,7
 31 -179 31 -179 31 -169 c 1,8,9
 62 -141 62 -141 77.5 -104.5 c 128,-1,10
 93 -68 93 -68 93 -26 c 2,11,-1
 93 518 l 1,12,-1
 161 518 l 1,13,-1
 161 -16 l 2,0,1
161 711 m 1,14,-1
 77 711 l 1,15,-1
 77 796 l 1,16,-1
 161 796 l 1,17,-1
 161 711 l 1,14,-1
EndSplineSet
EndChar

StartChar: k
Encoding: 107 107 71
Width: 538
Flags: W
LayerCount: 2
Fore
SplineSet
509 0 m 1,0,-1
 430 0 l 1,1,-1
 300 170 l 1,2,-1
 239 143 l 1,3,-1
 239 196 l 1,4,5
 270 209 270 209 307.5 229 c 128,-1,6
 345 249 345 249 377 275.5 c 128,-1,7
 409 302 409 302 430.5 333 c 128,-1,8
 452 364 452 364 452 399 c 0,9,10
 452 444 452 444 424.5 471.5 c 128,-1,11
 397 499 397 499 355 499 c 0,12,13
 323 499 323 499 288.5 482 c 128,-1,14
 254 465 254 465 224.5 436.5 c 128,-1,15
 195 408 195 408 175 372 c 128,-1,16
 155 336 155 336 154 297 c 1,17,-1
 154 0 l 1,18,-1
 86 0 l 1,19,-1
 86 794 l 1,20,-1
 154 794 l 1,21,-1
 154 411 l 1,22,23
 196 476 196 476 252 513 c 128,-1,24
 308 550 308 550 374 550 c 0,25,26
 406 550 406 550 431.5 539 c 128,-1,27
 457 528 457 528 475 509 c 128,-1,28
 493 490 493 490 502.5 464.5 c 128,-1,29
 512 439 512 439 512 410 c 0,30,31
 512 353 512 353 470.5 300.5 c 128,-1,32
 429 248 429 248 357 200 c 1,33,-1
 509 0 l 1,0,-1
EndSplineSet
EndChar

StartChar: l
Encoding: 108 108 72
Width: 229
Flags: W
LayerCount: 2
Fore
SplineSet
92 0 m 1,0,-1
 92 794 l 1,1,-1
 158 794 l 1,2,-1
 158 0 l 1,3,-1
 92 0 l 1,0,-1
EndSplineSet
EndChar

StartChar: m
Encoding: 109 109 73
Width: 789
Flags: W
LayerCount: 2
Fore
SplineSet
684 330 m 2,0,1
 684 365 684 365 681 393.5 c 128,-1,2
 678 422 678 422 668 442 c 128,-1,3
 658 462 658 462 639.5 473 c 128,-1,4
 621 484 621 484 591 484 c 0,5,6
 553 484 553 484 525.5 469.5 c 128,-1,7
 498 455 498 455 480 432 c 128,-1,8
 462 409 462 409 453.5 379.5 c 128,-1,9
 445 350 445 350 445 320 c 2,10,-1
 445 0 l 1,11,-1
 377 0 l 1,12,-1
 377 320 l 2,13,14
 377 399 377 399 358.5 441.5 c 128,-1,15
 340 484 340 484 286 484 c 0,16,17
 248 484 248 484 220.5 466.5 c 128,-1,18
 193 449 193 449 175 422 c 128,-1,19
 157 395 157 395 148.5 363 c 128,-1,20
 140 331 140 331 140 303 c 2,21,-1
 140 0 l 1,22,-1
 74 0 l 1,23,-1
 74 517 l 1,24,-1
 133 517 l 1,25,-1
 139 407 l 1,26,27
 159 468 159 468 204.5 500.5 c 128,-1,28
 250 533 250 533 316 533 c 0,29,30
 359 533 359 533 388.5 503.5 c 128,-1,31
 418 474 418 474 436 407 c 1,32,33
 447 432 447 432 463.5 454.5 c 128,-1,34
 480 477 480 477 503 494.5 c 128,-1,35
 526 512 526 512 555.5 522.5 c 128,-1,36
 585 533 585 533 622 533 c 0,37,38
 685 533 685 533 715 483.5 c 128,-1,39
 745 434 745 434 745 323 c 1,40,-1
 748 0 l 1,41,-1
 684 0 l 1,42,-1
 684 330 l 2,0,1
EndSplineSet
EndChar

StartChar: n
Encoding: 110 110 74
Width: 562
Flags: W
LayerCount: 2
Fore
SplineSet
445 320 m 2,0,1
 445 398 445 398 413.5 440.5 c 128,-1,2
 382 483 382 483 319 483 c 0,3,4
 285 483 285 483 254 470.5 c 128,-1,5
 223 458 223 458 199.5 437 c 128,-1,6
 176 416 176 416 162 388.5 c 128,-1,7
 148 361 148 361 148 331 c 2,8,-1
 148 0 l 1,9,-1
 82 0 l 1,10,-1
 82 518 l 1,11,-1
 141 518 l 1,12,-1
 147 415 l 1,13,14
 157 439 157 439 178.5 460 c 128,-1,15
 200 481 200 481 227.5 497.5 c 128,-1,16
 255 514 255 514 287 523.5 c 128,-1,17
 319 533 319 533 349 533 c 0,18,19
 420 533 420 533 464.5 479 c 128,-1,20
 509 425 509 425 509 313 c 2,21,-1
 509 0 l 1,22,-1
 445 0 l 1,23,-1
 445 320 l 2,0,1
EndSplineSet
EndChar

StartChar: o
Encoding: 111 111 75
Width: 563
Flags: W
LayerCount: 2
Fore
SplineSet
118 261 m 0,0,1
 118 179 118 179 135 132.5 c 128,-1,2
 152 86 152 86 178 63 c 128,-1,3
 204 40 204 40 235 34.5 c 128,-1,4
 266 29 266 29 294 29 c 0,5,6
 316 29 316 29 343.5 33 c 128,-1,7
 371 37 371 37 395.5 58.5 c 128,-1,8
 420 80 420 80 437 127 c 128,-1,9
 454 174 454 174 454 261 c 0,10,11
 454 345 454 345 437 391 c 128,-1,12
 420 437 420 437 394 458 c 128,-1,13
 368 479 368 479 338 483 c 128,-1,14
 308 487 308 487 283 487 c 0,15,16
 257 487 257 487 228 484 c 128,-1,17
 199 481 199 481 174.5 460 c 128,-1,18
 150 439 150 439 134 393 c 128,-1,19
 118 347 118 347 118 261 c 0,0,1
283 533 m 0,20,21
 355 533 355 533 402.5 511.5 c 128,-1,22
 450 490 450 490 478 453 c 128,-1,23
 506 416 506 416 517.5 366.5 c 128,-1,24
 529 317 529 317 529 261 c 0,25,26
 529 193 529 193 518 141 c 128,-1,27
 507 89 507 89 480 54 c 128,-1,28
 453 19 453 19 408 1 c 128,-1,29
 363 -17 363 -17 294 -17 c 256,30,31
 225 -17 225 -17 178.5 5.5 c 128,-1,32
 132 28 132 28 103 66.5 c 128,-1,33
 74 105 74 105 61.5 155 c 128,-1,34
 49 205 49 205 49 261 c 0,35,36
 49 326 49 326 61 377 c 128,-1,37
 73 428 73 428 100.5 462.5 c 128,-1,38
 128 497 128 497 173 515 c 128,-1,39
 218 533 218 533 283 533 c 0,20,21
EndSplineSet
EndChar

StartChar: p
Encoding: 112 112 76
Width: 544
Flags: W
LayerCount: 2
Fore
SplineSet
328 490 m 0,0,1
 281 490 281 490 246.5 470 c 128,-1,2
 212 450 212 450 189 420 c 128,-1,3
 166 390 166 390 154.5 356 c 128,-1,4
 143 322 143 322 143 294 c 2,5,-1
 143 71 l 1,6,7
 176 54 176 54 201.5 47.5 c 128,-1,8
 227 41 227 41 264 41 c 0,9,10
 321 41 321 41 355 60.5 c 128,-1,11
 389 80 389 80 407.5 111 c 128,-1,12
 426 142 426 142 432 181.5 c 128,-1,13
 438 221 438 221 438 260 c 256,14,15
 438 299 438 299 435 340 c 128,-1,16
 432 381 432 381 420.5 414.5 c 128,-1,17
 409 448 409 448 387 469 c 128,-1,18
 365 490 365 490 328 490 c 0,0,1
142 -213 m 1,19,-1
 78 -213 l 1,20,-1
 78 517 l 1,21,-1
 130 517 l 1,22,-1
 142 397 l 1,23,24
 145 411 145 411 160 434 c 128,-1,25
 175 457 175 457 199 479.5 c 128,-1,26
 223 502 223 502 256 518 c 128,-1,27
 289 534 289 534 328 534 c 0,28,29
 376 534 376 534 409 515 c 128,-1,30
 442 496 442 496 463 460.5 c 128,-1,31
 484 425 484 425 493 374 c 128,-1,32
 502 323 502 323 502 260 c 0,33,34
 502 119 502 119 444.5 55.5 c 128,-1,35
 387 -8 387 -8 258 -8 c 0,36,37
 231 -8 231 -8 202 -2.5 c 128,-1,38
 173 3 173 3 142 11 c 1,39,-1
 142 -213 l 1,19,-1
EndSplineSet
EndChar

StartChar: q
Encoding: 113 113 77
Width: 540
Flags: W
LayerCount: 2
Fore
SplineSet
227 31 m 0,0,1
 273 31 273 31 307.5 51 c 128,-1,2
 342 71 342 71 365.5 101 c 128,-1,3
 389 131 389 131 400.5 165 c 128,-1,4
 412 199 412 199 412 227 c 2,5,-1
 412 450 l 1,6,7
 380 467 380 467 344.5 478 c 128,-1,8
 309 489 309 489 272 489 c 0,9,10
 222 489 222 489 191 468 c 128,-1,11
 160 447 160 447 143.5 414 c 128,-1,12
 127 381 127 381 121.5 340.5 c 128,-1,13
 116 300 116 300 116 261 c 256,14,15
 116 222 116 222 119.5 181 c 128,-1,16
 123 140 123 140 134 106.5 c 128,-1,17
 145 73 145 73 167 52 c 128,-1,18
 189 31 189 31 227 31 c 0,0,1
412 -211 m 1,19,-1
 412 109 l 1,20,21
 399 89 399 89 381.5 67.5 c 128,-1,22
 364 46 364 46 341.5 28.5 c 128,-1,23
 319 11 319 11 290.5 -0.5 c 128,-1,24
 262 -12 262 -12 227 -12 c 0,25,26
 179 -12 179 -12 146 7 c 128,-1,27
 113 26 113 26 92 61.5 c 128,-1,28
 71 97 71 97 62 147.5 c 128,-1,29
 53 198 53 198 53 261 c 0,30,31
 53 402 53 402 110.5 465.5 c 128,-1,32
 168 529 168 529 296 529 c 0,33,34
 325 529 325 529 352.5 524 c 128,-1,35
 380 519 380 519 403.5 512.5 c 128,-1,36
 427 506 427 506 446 498.5 c 128,-1,37
 465 491 465 491 477 485 c 1,38,-1
 477 -211 l 1,39,-1
 412 -211 l 1,19,-1
EndSplineSet
EndChar

StartChar: r
Encoding: 114 114 78
Width: 367
Flags: W
LayerCount: 2
Fore
SplineSet
78 0 m 1,0,-1
 78 517 l 1,1,-1
 133 517 l 1,2,-1
 147 403 l 1,3,4
 157 429 157 429 169 452.5 c 128,-1,5
 181 476 181 476 197.5 493.5 c 128,-1,6
 214 511 214 511 237 521.5 c 128,-1,7
 260 532 260 532 292 532 c 256,8,9
 324 532 324 532 343 527.5 c 128,-1,10
 362 523 362 523 372 519 c 1,11,-1
 368 464 l 1,12,13
 339 473 339 473 324 476.5 c 128,-1,14
 309 480 309 480 292 480 c 0,15,16
 267 480 267 480 241 468 c 128,-1,17
 215 456 215 456 194 429 c 128,-1,18
 173 402 173 402 160 357.5 c 128,-1,19
 147 313 147 313 147 248 c 2,20,-1
 147 0 l 1,21,-1
 78 0 l 1,0,-1
EndSplineSet
EndChar

StartChar: s
Encoding: 115 115 79
Width: 472
Flags: W
LayerCount: 2
Fore
SplineSet
235 528 m 0,0,1
 269 528 269 528 298 523 c 128,-1,2
 327 518 327 518 351 510.5 c 128,-1,3
 375 503 375 503 394 495 c 128,-1,4
 413 487 413 487 427 481 c 1,5,6
 427 470 427 470 427.5 456.5 c 128,-1,7
 428 443 428 443 428 433 c 1,8,9
 379 454 379 454 332.5 470 c 128,-1,10
 286 486 286 486 235 486 c 0,11,12
 215 486 215 486 195.5 483 c 128,-1,13
 176 480 176 480 161 470.5 c 128,-1,14
 146 461 146 461 136.5 443.5 c 128,-1,15
 127 426 127 426 127 397 c 0,16,17
 127 373 127 373 134 357.5 c 128,-1,18
 141 342 141 342 155.5 332 c 128,-1,19
 170 322 170 322 192 314.5 c 128,-1,20
 214 307 214 307 244 299 c 0,21,22
 350 273 350 273 402 236 c 128,-1,23
 454 199 454 199 454 138 c 0,24,25
 454 102 454 102 439 73.5 c 128,-1,26
 424 45 424 45 397 25.5 c 128,-1,27
 370 6 370 6 332.5 -4.5 c 128,-1,28
 295 -15 295 -15 249 -15 c 0,29,30
 210 -15 210 -15 176.5 -8.5 c 128,-1,31
 143 -2 143 -2 117 7.5 c 128,-1,32
 91 17 91 17 72 27 c 128,-1,33
 53 37 53 37 44 43 c 1,34,35
 44 60 44 60 44.5 75.5 c 128,-1,36
 45 91 45 91 45 108 c 1,37,38
 91 81 91 81 142 58 c 128,-1,39
 193 35 193 35 249 35 c 0,40,41
 276 35 276 35 300 39.5 c 128,-1,42
 324 44 324 44 343 55.5 c 128,-1,43
 362 67 362 67 373 87 c 128,-1,44
 384 107 384 107 384 138 c 0,45,46
 384 163 384 163 369 181 c 128,-1,47
 354 199 354 199 328.5 212.5 c 128,-1,48
 303 226 303 226 269 236 c 128,-1,49
 235 246 235 246 198 256 c 0,50,51
 157 268 157 268 129.5 282 c 128,-1,52
 102 296 102 296 85.5 313.5 c 128,-1,53
 69 331 69 331 62.5 352 c 128,-1,54
 56 373 56 373 56 399 c 0,55,56
 56 417 56 417 63 439.5 c 128,-1,57
 70 462 70 462 89.5 481.5 c 128,-1,58
 109 501 109 501 144 514.5 c 128,-1,59
 179 528 179 528 235 528 c 0,0,1
EndSplineSet
EndChar

StartChar: tt
Encoding: 65537 -1 80
Width: 632
Flags: W
LayerCount: 2
Fore
SplineSet
255 518 m 1,0,-1
 435 518 l 1,1,2
 442 577 442 577 446.5 614 c 128,-1,3
 451 651 451 651 455 672 c 1,4,-1
 501 672 l 1,5,-1
 501 518 l 1,6,-1
 634 518 l 1,7,-1
 634 475 l 1,8,-1
 501 475 l 1,9,-1
 501 139 l 2,10,11
 501 106 501 106 503 85.5 c 128,-1,12
 505 65 505 65 511 54.5 c 128,-1,13
 517 44 517 44 528.5 40.5 c 128,-1,14
 540 37 540 37 560 37 c 0,15,16
 601 37 601 37 632 54 c 1,17,-1
 632 3 l 1,18,19
 603 -8 603 -8 582.5 -10 c 128,-1,20
 562 -12 562 -12 535 -12 c 0,21,22
 526 -12 526 -12 513 -10.5 c 128,-1,23
 500 -9 500 -9 487 -4.5 c 128,-1,24
 474 0 474 0 462 7.5 c 128,-1,25
 450 15 450 15 443 28 c 1,26,27
 418 7 418 7 384.5 -4 c 128,-1,28
 351 -15 351 -15 314 -15 c 0,29,30
 287 -15 287 -15 253.5 -13.5 c 128,-1,31
 220 -12 220 -12 190.5 1.5 c 128,-1,32
 161 15 161 15 140.5 46.5 c 128,-1,33
 120 78 120 78 120 138 c 2,34,-1
 120 474 l 1,35,-1
 19 474 l 1,36,-1
 19 517 l 1,37,-1
 119 517 l 1,38,-1
 140 671 l 1,39,-1
 185 671 l 1,40,-1
 185 138 l 2,41,42
 185 98 185 98 201.5 77 c 128,-1,43
 218 56 218 56 241 47 c 128,-1,44
 264 38 264 38 288.5 37 c 128,-1,45
 313 36 313 36 330 36 c 0,46,47
 338 36 338 36 356 40 c 128,-1,48
 374 44 374 44 392 51.5 c 128,-1,49
 410 59 410 59 423.5 70.5 c 128,-1,50
 437 82 437 82 437 97 c 2,51,-1
 437 475 l 1,52,-1
 255 475 l 1,53,-1
 255 518 l 1,0,-1
EndSplineSet
Ligature2: "'liga' Standard Ligatures in Latin lookup 0 subtable" t t
EndChar

StartChar: u
Encoding: 117 117 81
Width: 574
Flags: W
LayerCount: 2
Fore
SplineSet
146 188 m 2,0,1
 146 111 146 111 169 69.5 c 128,-1,2
 192 28 192 28 258 28 c 0,3,4
 291 28 291 28 324.5 40 c 128,-1,5
 358 52 358 52 385 75 c 128,-1,6
 412 98 412 98 428.5 130.5 c 128,-1,7
 445 163 445 163 445 204 c 2,8,-1
 445 518 l 1,9,-1
 510 518 l 1,10,-1
 510 0 l 1,11,-1
 450 0 l 1,12,-1
 445 108 l 1,13,14
 422 48 422 48 369 15.5 c 128,-1,15
 316 -17 316 -17 242 -17 c 0,16,17
 209 -17 209 -17 179 -6 c 128,-1,18
 149 5 149 5 126.5 30 c 128,-1,19
 104 55 104 55 91 96 c 128,-1,20
 78 137 78 137 78 197 c 2,21,-1
 78 518 l 1,22,-1
 146 518 l 1,23,-1
 146 188 l 2,0,1
EndSplineSet
EndChar

StartChar: v
Encoding: 118 118 82
Width: 548
Flags: W
LayerCount: 2
Fore
SplineSet
102 518 m 1,0,-1
 281 59 l 1,1,2
 281 59 281 59 289.5 78.5 c 128,-1,3
 298 98 298 98 312 130.5 c 128,-1,4
 326 163 326 163 343 204 c 128,-1,5
 360 245 360 245 378.5 288 c 128,-1,6
 397 331 397 331 414 372 c 128,-1,7
 431 413 431 413 444.5 445.5 c 128,-1,8
 458 478 458 478 466 498 c 128,-1,9
 474 518 474 518 473 518 c 2,10,-1
 540 518 l 1,11,-1
 314 0 l 1,12,-1
 251 0 l 1,13,-1
 33 518 l 1,14,-1
 102 518 l 1,0,-1
EndSplineSet
EndChar

StartChar: w
Encoding: 119 119 83
Width: 787
Flags: W
LayerCount: 2
Fore
SplineSet
90 518 m 1,0,-1
 216 50 l 1,1,2
 216 50 216 50 229.5 84.5 c 128,-1,3
 243 119 243 119 262.5 171 c 128,-1,4
 282 223 282 223 305 283.5 c 128,-1,5
 328 344 328 344 347.5 396 c 128,-1,6
 367 448 367 448 380 483 c 128,-1,7
 393 518 393 518 393 518 c 1,8,-1
 447 518 l 1,9,-1
 610 49 l 1,10,-1
 720 518 l 1,11,-1
 784 518 l 1,12,-1
 654 0 l 1,13,-1
 572 0 l 1,14,-1
 420 477 l 1,15,-1
 250 0 l 1,16,-1
 173 0 l 1,17,-1
 27 518 l 1,18,-1
 90 518 l 1,0,-1
EndSplineSet
EndChar

StartChar: x
Encoding: 120 120 84
Width: 511
Flags: W
LayerCount: 2
Fore
SplineSet
96 1 m 1,0,-1
 25 1 l 1,1,-1
 226 271 l 1,2,-1
 46 518 l 1,3,-1
 124 518 l 1,4,-1
 261 320 l 1,5,-1
 402 518 l 1,6,-1
 479 518 l 1,7,-1
 300 271 l 1,8,-1
 498 1 l 1,9,-1
 430 1 l 1,10,-1
 262 223 l 1,11,-1
 96 1 l 1,0,-1
EndSplineSet
EndChar

StartChar: y
Encoding: 121 121 85
Width: 535
Flags: W
LayerCount: 2
Fore
SplineSet
30 518 m 1,0,-1
 98 518 l 1,1,-1
 291 0 l 1,2,-1
 459 518 l 1,3,-1
 527 518 l 1,4,-1
 266 -212 l 1,5,-1
 208 -212 l 1,6,-1
 257 -52 l 1,7,-1
 30 518 l 1,0,-1
EndSplineSet
EndChar

StartChar: z
Encoding: 122 122 86
Width: 458
Flags: W
LayerCount: 2
Fore
SplineSet
439 53 m 1,0,-1
 439 0 l 1,1,-1
 37 0 l 1,2,-1
 37 53 l 1,3,-1
 370 474 l 1,4,-1
 37 474 l 1,5,-1
 37 518 l 1,6,-1
 447 518 l 1,7,-1
 447 474 l 1,8,-1
 109 53 l 1,9,-1
 439 53 l 1,0,-1
EndSplineSet
EndChar

StartChar: braceleft
Encoding: 123 123 87
Width: 447
Flags: W
LayerCount: 2
Fore
SplineSet
430 -213 m 1,0,-1
 362 -213 l 2,1,2
 322 -213 322 -213 284.5 -202.5 c 128,-1,3
 247 -192 247 -192 217.5 -167.5 c 128,-1,4
 188 -143 188 -143 170.5 -103 c 128,-1,5
 153 -63 153 -63 153 -3 c 2,6,-1
 153 150 l 2,7,8
 153 175 153 175 143.5 192.5 c 128,-1,9
 134 210 134 210 120 221 c 128,-1,10
 106 232 106 232 91 238 c 128,-1,11
 76 244 76 244 66 248 c 1,12,-1
 66 294 l 1,13,14
 98 307 98 307 124 330.5 c 128,-1,15
 150 354 150 354 153 396 c 1,16,-1
 153 551 l 2,17,18
 153 606 153 606 170.5 644.5 c 128,-1,19
 188 683 188 683 217.5 707 c 128,-1,20
 247 731 247 731 284.5 742 c 128,-1,21
 322 753 322 753 362 753 c 2,22,-1
 430 753 l 1,23,-1
 430 706 l 1,24,-1
 372 706 l 2,25,26
 361 706 361 706 336.5 704.5 c 128,-1,27
 312 703 312 703 286.5 692.5 c 128,-1,28
 261 682 261 682 241.5 660 c 128,-1,29
 222 638 222 638 222 597 c 2,30,-1
 222 397 l 2,31,32
 222 381 222 381 218.5 363.5 c 128,-1,33
 215 346 215 346 207.5 331 c 128,-1,34
 200 316 200 316 188 304.5 c 128,-1,35
 176 293 176 293 159 290 c 1,36,-1
 159 252 l 1,37,38
 194 245 194 245 208 214.5 c 128,-1,39
 222 184 222 184 222 150 c 2,40,-1
 222 -60 l 2,41,42
 222 -102 222 -102 241.5 -123.5 c 128,-1,43
 261 -145 261 -145 286.5 -155 c 128,-1,44
 312 -165 312 -165 336.5 -166 c 128,-1,45
 361 -167 361 -167 372 -167 c 2,46,-1
 430 -167 l 1,47,-1
 430 -213 l 1,0,-1
EndSplineSet
EndChar

StartChar: bar
Encoding: 124 124 88
Width: 229
Flags: W
LayerCount: 2
Fore
SplineSet
100 809 m 1,0,-1
 147 809 l 1,1,-1
 147 -234 l 1,2,-1
 100 -234 l 1,3,-1
 100 809 l 1,0,-1
EndSplineSet
EndChar

StartChar: braceright
Encoding: 125 125 89
Width: 444
Flags: W
LayerCount: 2
Fore
SplineSet
37 -213 m 1,0,-1
 37 -167 l 1,1,-1
 95 -167 l 2,2,3
 107 -167 107 -167 132 -166 c 128,-1,4
 157 -165 157 -165 182.5 -155 c 128,-1,5
 208 -145 208 -145 227 -123.5 c 128,-1,6
 246 -102 246 -102 246 -60 c 2,7,-1
 246 150 l 2,8,9
 246 185 246 185 260 214.5 c 128,-1,10
 274 244 274 244 309 251 c 1,11,-1
 309 289 l 1,12,13
 291 292 291 292 279 303.5 c 128,-1,14
 267 315 267 315 259.5 330.5 c 128,-1,15
 252 346 252 346 249 363.5 c 128,-1,16
 246 381 246 381 246 397 c 2,17,-1
 246 597 l 2,18,19
 246 638 246 638 227 660 c 128,-1,20
 208 682 208 682 182.5 692.5 c 128,-1,21
 157 703 157 703 132 704.5 c 128,-1,22
 107 706 107 706 95 706 c 2,23,-1
 37 706 l 1,24,-1
 37 753 l 1,25,-1
 105 753 l 2,26,27
 146 753 146 753 184 742 c 128,-1,28
 222 731 222 731 251 707 c 128,-1,29
 280 683 280 683 297.5 644.5 c 128,-1,30
 315 606 315 606 315 551 c 2,31,-1
 315 397 l 2,32,33
 315 371 315 371 324 353.5 c 128,-1,34
 333 336 333 336 346.5 324 c 128,-1,35
 360 312 360 312 375 305 c 128,-1,36
 390 298 390 298 402 294 c 1,37,-1
 402 247 l 1,38,39
 387 241 387 241 372 231.5 c 128,-1,40
 357 222 357 222 344.5 210 c 128,-1,41
 332 198 332 198 324 183 c 128,-1,42
 316 168 316 168 315 150 c 1,43,-1
 315 -3 l 2,44,45
 315 -63 315 -63 297.5 -103 c 128,-1,46
 280 -143 280 -143 251 -167.5 c 128,-1,47
 222 -192 222 -192 184 -202.5 c 128,-1,48
 146 -213 146 -213 105 -213 c 2,49,-1
 37 -213 l 1,0,-1
EndSplineSet
EndChar

StartChar: asciitilde
Encoding: 126 126 90
Width: 600
Flags: W
LayerCount: 2
Fore
SplineSet
207 216 m 0,0,1
 181 216 181 216 154.5 209.5 c 128,-1,2
 128 203 128 203 108 197 c 1,3,4
 108 211 108 211 107 218 c 128,-1,5
 106 225 106 225 106 237 c 1,6,7
 134 250 134 250 158 259 c 128,-1,8
 182 268 182 268 209 268 c 0,9,10
 245 268 245 268 267.5 263.5 c 128,-1,11
 290 259 290 259 311 254 c 128,-1,12
 332 249 332 249 356 244.5 c 128,-1,13
 380 240 380 240 419 240 c 0,14,15
 448 240 448 240 473 246.5 c 128,-1,16
 498 253 498 253 518 262 c 1,17,-1
 518 217 l 1,18,19
 477 200 477 200 455.5 194.5 c 128,-1,20
 434 189 434 189 419 189 c 0,21,22
 382 189 382 189 358 193 c 128,-1,23
 334 197 334 197 312.5 202.5 c 128,-1,24
 291 208 291 208 267.5 212 c 128,-1,25
 244 216 244 216 207 216 c 0,0,1
EndSplineSet
EndChar

StartChar: ccedilla
Encoding: 231 231 91
Width: 531
Flags: W
LayerCount: 2
Fore
SplineSet
292 -84 m 0,0,1
 282 -84 282 -84 273.5 -84 c 128,-1,2
 265 -84 265 -84 257 -85 c 1,3,4
 260 -83 260 -83 261.5 -81 c 128,-1,5
 263 -79 263 -79 266.5 -72.5 c 128,-1,6
 270 -66 270 -66 276.5 -53.5 c 128,-1,7
 283 -41 283 -41 295 -18 c 1,8,9
 175 4 175 4 115.5 72 c 128,-1,10
 56 140 56 140 56 261 c 0,11,12
 56 337 56 337 74.5 388 c 128,-1,13
 93 439 93 439 128 470 c 128,-1,14
 163 501 163 501 213 514.5 c 128,-1,15
 263 528 263 528 326 528 c 0,16,17
 377 528 377 528 420 517 c 128,-1,18
 463 506 463 506 491 492 c 1,19,-1
 491 436 l 1,20,21
 456 456 456 456 412 470 c 128,-1,22
 368 484 368 484 326 484 c 0,23,24
 287 484 287 484 250 475.5 c 128,-1,25
 213 467 213 467 185 443 c 128,-1,26
 157 419 157 419 140 376 c 128,-1,27
 123 333 123 333 123 263 c 0,28,29
 123 190 123 190 139.5 144.5 c 128,-1,30
 156 99 156 99 183.5 73 c 128,-1,31
 211 47 211 47 248 37.5 c 128,-1,32
 285 28 285 28 326 28 c 0,33,34
 378 28 378 28 424.5 42.5 c 128,-1,35
 471 57 471 57 500 71 c 1,36,37
 500 49 500 49 500 34 c 128,-1,38
 500 19 500 19 501 11 c 1,39,40
 457 -2 457 -2 417 -10 c 128,-1,41
 377 -18 377 -18 326 -18 c 2,42,-1
 297 -18 l 1,43,-1
 277 -72 l 1,44,45
 309 -71 309 -71 330.5 -76.5 c 128,-1,46
 352 -82 352 -82 365.5 -92.5 c 128,-1,47
 379 -103 379 -103 384.5 -117 c 128,-1,48
 390 -131 390 -131 390 -146 c 0,49,50
 390 -178 390 -178 368 -196 c 128,-1,51
 346 -214 346 -214 310 -217 c 1,52,-1
 311 -217 l 2,53,54
 285 -217 285 -217 271 -215.5 c 128,-1,55
 257 -214 257 -214 244 -211 c 1,56,-1
 244 -190 l 1,57,58
 255 -195 255 -195 267.5 -197.5 c 128,-1,59
 280 -200 280 -200 292 -200 c 0,60,61
 299 -200 299 -200 309.5 -198 c 128,-1,62
 320 -196 320 -196 329.5 -190 c 128,-1,63
 339 -184 339 -184 346 -173.5 c 128,-1,64
 353 -163 353 -163 353 -146 c 0,65,66
 353 -84 353 -84 292 -84 c 0,0,1
EndSplineSet
Ligature2: "'ccmp' Glyph Composition/Decomposition in Latin lookup 1 subtable" c cedillacmb
EndChar

StartChar: degree
Encoding: 176 176 92
Width: 400
Flags: W
LayerCount: 2
Fore
SplineSet
104 577 m 0,0,1
 104 534 104 534 117.5 511.5 c 128,-1,2
 131 489 131 489 148 479 c 128,-1,3
 165 469 165 469 181.5 468 c 128,-1,4
 198 467 198 467 203 467 c 0,5,6
 209 467 209 467 226 468.5 c 128,-1,7
 243 470 243 470 261 480.5 c 128,-1,8
 279 491 279 491 293 513.5 c 128,-1,9
 307 536 307 536 307 577 c 0,10,11
 307 619 307 619 293 641 c 128,-1,12
 279 663 279 663 261 673.5 c 128,-1,13
 243 684 243 684 226 685.5 c 128,-1,14
 209 687 209 687 203 687 c 256,15,16
 197 687 197 687 181 685.5 c 128,-1,17
 165 684 165 684 147.5 673.5 c 128,-1,18
 130 663 130 663 117 640.5 c 128,-1,19
 104 618 104 618 104 577 c 0,0,1
203 719 m 1,20,21
 278 718 278 718 311 682 c 128,-1,22
 344 646 344 646 344 577 c 0,23,24
 344 547 344 547 336.5 521.5 c 128,-1,25
 329 496 329 496 312 477 c 128,-1,26
 295 458 295 458 268 447.5 c 128,-1,27
 241 437 241 437 203 437 c 256,28,29
 165 437 165 437 138.5 447 c 128,-1,30
 112 457 112 457 95.5 475.5 c 128,-1,31
 79 494 79 494 71.5 519.5 c 128,-1,32
 64 545 64 545 64 577 c 0,33,34
 64 647 64 647 101 682.5 c 128,-1,35
 138 718 138 718 203 719 c 1,20,21
EndSplineSet
EndChar

StartChar: sterling
Encoding: 163 163 93
Width: 585
Flags: W
LayerCount: 2
Fore
SplineSet
539 198 m 1,0,1
 539 227 539 227 534 249 c 128,-1,2
 529 271 529 271 521 287.5 c 128,-1,3
 513 304 513 304 504 315 c 128,-1,4
 495 326 495 326 487 334 c 1,5,6
 494 342 494 342 500.5 348.5 c 128,-1,7
 507 355 507 355 513 362 c 1,8,9
 553 323 553 323 564.5 280 c 128,-1,10
 576 237 576 237 576 198 c 0,11,12
 576 144 576 144 556.5 106 c 128,-1,13
 537 68 537 68 504.5 43.5 c 128,-1,14
 472 19 472 19 429 8.5 c 128,-1,15
 386 -2 386 -2 340 0 c 1,16,-1
 49 0 l 1,17,-1
 49 43 l 1,18,19
 110 52 110 52 135 96 c 128,-1,20
 160 140 160 140 160 205 c 2,21,-1
 160 360 l 1,22,-1
 111 360 l 1,23,-1
 111 405 l 1,24,-1
 160 405 l 1,25,-1
 160 579 l 2,26,27
 160 624 160 624 176.5 656 c 128,-1,28
 193 688 193 688 220 709 c 128,-1,29
 247 730 247 730 281.5 739.5 c 128,-1,30
 316 749 316 749 351 749 c 0,31,32
 394 749 394 749 419 741.5 c 128,-1,33
 444 734 444 734 463 723 c 1,34,-1
 463 680 l 1,35,36
 431 695 431 695 406.5 700 c 128,-1,37
 382 705 382 705 359 705 c 0,38,39
 320 705 320 705 296 692.5 c 128,-1,40
 272 680 272 680 259 659 c 128,-1,41
 246 638 246 638 242 611 c 128,-1,42
 238 584 238 584 238 556 c 2,43,-1
 238 405 l 1,44,-1
 351 405 l 1,45,-1
 351 360 l 1,46,-1
 238 360 l 1,47,-1
 238 205 l 2,48,49
 238 169 238 169 232 143.5 c 128,-1,50
 226 118 226 118 215 99 c 128,-1,51
 204 80 204 80 189 67 c 128,-1,52
 174 54 174 54 157 44 c 1,53,-1
 334 42 l 1,54,55
 435 42 435 42 484 82.5 c 128,-1,56
 533 123 533 123 539 198 c 1,0,1
EndSplineSet
EndChar

StartChar: section
Encoding: 167 167 94
Width: 556
Flags: W
LayerCount: 2
Fore
SplineSet
365 84 m 1,0,1
 386 76 386 76 408 64.5 c 128,-1,2
 430 53 430 53 447 35 c 128,-1,3
 464 17 464 17 475 -7 c 128,-1,4
 486 -31 486 -31 486 -62 c 0,5,6
 486 -99 486 -99 471 -127 c 128,-1,7
 456 -155 456 -155 429 -174 c 128,-1,8
 402 -193 402 -193 364.5 -203 c 128,-1,9
 327 -213 327 -213 281 -213 c 0,10,11
 244 -213 244 -213 212 -206.5 c 128,-1,12
 180 -200 180 -200 154 -191 c 128,-1,13
 128 -182 128 -182 108.5 -172 c 128,-1,14
 89 -162 89 -162 77 -156 c 1,15,-1
 77 -89 l 1,16,17
 122 -118 122 -118 175 -140.5 c 128,-1,18
 228 -163 228 -163 281 -163 c 0,19,20
 310 -163 310 -163 335 -159 c 128,-1,21
 360 -155 360 -155 379 -144 c 128,-1,22
 398 -133 398 -133 408.5 -113.5 c 128,-1,23
 419 -94 419 -94 419 -62 c 0,24,25
 419 -38 419 -38 403.5 -14 c 128,-1,26
 388 10 388 10 362 29 c 128,-1,27
 336 48 336 48 302 59.5 c 128,-1,28
 268 71 268 71 230 71 c 0,29,30
 186 71 186 71 153.5 86 c 128,-1,31
 121 101 121 101 99 127.5 c 128,-1,32
 77 154 77 154 66.5 189.5 c 128,-1,33
 56 225 56 225 56 267 c 0,34,35
 56 290 56 290 62.5 318.5 c 128,-1,36
 69 347 69 347 85.5 374.5 c 128,-1,37
 102 402 102 402 131.5 426.5 c 128,-1,38
 161 451 161 451 207 466 c 1,39,40
 161 494 161 494 141 527.5 c 128,-1,41
 121 561 121 561 121 619 c 0,42,43
 121 638 121 638 127.5 660 c 128,-1,44
 134 682 134 682 153.5 701 c 128,-1,45
 173 720 173 720 208 732.5 c 128,-1,46
 243 745 243 745 300 745 c 0,47,48
 336 745 336 745 367 740 c 128,-1,49
 398 735 398 735 422.5 727.5 c 128,-1,50
 447 720 447 720 465 712 c 128,-1,51
 483 704 483 704 493 699 c 1,52,-1
 493 650 l 1,53,54
 433 679 433 679 380.5 690.5 c 128,-1,55
 328 702 328 702 300 702 c 0,56,57
 280 702 280 702 260 699 c 128,-1,58
 240 696 240 696 224.5 687 c 128,-1,59
 209 678 209 678 199.5 660.5 c 128,-1,60
 190 643 190 643 190 614 c 0,61,62
 190 589 190 589 199 565 c 128,-1,63
 208 541 208 541 228 521 c 128,-1,64
 248 501 248 501 281 485 c 128,-1,65
 314 469 314 469 362 459 c 0,66,67
 395 452 395 452 424 439.5 c 128,-1,68
 453 427 453 427 474 404.5 c 128,-1,69
 495 382 495 382 507.5 348.5 c 128,-1,70
 520 315 520 315 520 267 c 0,71,72
 520 243 520 243 512.5 214.5 c 128,-1,73
 505 186 505 186 487 159.5 c 128,-1,74
 469 133 469 133 439 112.5 c 128,-1,75
 409 92 409 92 365 84 c 1,0,1
235 419 m 0,76,77
 214 419 214 419 194 408 c 128,-1,78
 174 397 174 397 158.5 378.5 c 128,-1,79
 143 360 143 360 133.5 336.5 c 128,-1,80
 124 313 124 313 124 288 c 0,81,82
 124 239 124 239 129 206 c 128,-1,83
 134 173 134 173 153.5 152.5 c 128,-1,84
 173 132 173 132 211 123.5 c 128,-1,85
 249 115 249 115 315 115 c 0,86,87
 341 115 341 115 365.5 125.5 c 128,-1,88
 390 136 390 136 408.5 156 c 128,-1,89
 427 176 427 176 438.5 204 c 128,-1,90
 450 232 450 232 450 267 c 0,91,92
 450 319 450 319 436.5 349 c 128,-1,93
 423 379 423 379 396 394 c 128,-1,94
 369 409 369 409 329 413 c 128,-1,95
 289 417 289 417 235 419 c 0,76,77
EndSplineSet
EndChar

StartChar: bullet
Encoding: 8226 8226 95
Width: 500
Flags: W
LayerCount: 2
Fore
SplineSet
78 364 m 0,0,1
 78 401 78 401 92 434 c 128,-1,2
 106 467 106 467 131 492 c 128,-1,3
 156 517 156 517 188.5 531 c 128,-1,4
 221 545 221 545 259 545 c 0,5,6
 296 545 296 545 329 531 c 128,-1,7
 362 517 362 517 387 492 c 128,-1,8
 412 467 412 467 426 434 c 128,-1,9
 440 401 440 401 440 364 c 0,10,11
 440 326 440 326 426 293.5 c 128,-1,12
 412 261 412 261 387 236 c 128,-1,13
 362 211 362 211 329 197 c 128,-1,14
 296 183 296 183 259 183 c 0,15,16
 221 183 221 183 188.5 197 c 128,-1,17
 156 211 156 211 131 236 c 128,-1,18
 106 261 106 261 92 293.5 c 128,-1,19
 78 326 78 326 78 364 c 0,0,1
EndSplineSet
EndChar

StartChar: germandbls
Encoding: 223 223 96
Width: 572
Flags: W
LayerCount: 2
Fore
SplineSet
441 205 m 0,0,1
 441 232 441 232 435.5 257 c 128,-1,2
 430 282 430 282 412.5 303.5 c 128,-1,3
 395 325 395 325 361.5 343 c 128,-1,4
 328 361 328 361 271 373 c 1,5,-1
 271 425 l 1,6,7
 349 429 349 429 388.5 461 c 128,-1,8
 428 493 428 493 428 565 c 0,9,10
 428 604 428 604 415.5 630 c 128,-1,11
 403 656 403 656 382 671.5 c 128,-1,12
 361 687 361 687 334 693.5 c 128,-1,13
 307 700 307 700 279 700 c 0,14,15
 236 700 236 700 210.5 689 c 128,-1,16
 185 678 185 678 171 653.5 c 128,-1,17
 157 629 157 629 152.5 590.5 c 128,-1,18
 148 552 148 552 148 498 c 2,19,-1
 148 0 l 1,20,-1
 77 0 l 1,21,-1
 77 450 l 2,22,23
 77 513 77 513 81 568 c 128,-1,24
 85 623 85 623 104.5 664 c 128,-1,25
 124 705 124 705 164.5 728.5 c 128,-1,26
 205 752 205 752 279 752 c 0,27,28
 309 752 309 752 345 744.5 c 128,-1,29
 381 737 381 737 412.5 716.5 c 128,-1,30
 444 696 444 696 465 659.5 c 128,-1,31
 486 623 486 623 486 564 c 0,32,33
 486 538 486 538 478.5 512.5 c 128,-1,34
 471 487 471 487 454 465 c 128,-1,35
 437 443 437 443 408 426 c 128,-1,36
 379 409 379 409 336 400 c 1,37,38
 372 391 372 391 405 375.5 c 128,-1,39
 438 360 438 360 463.5 336.5 c 128,-1,40
 489 313 489 313 504 280 c 128,-1,41
 519 247 519 247 519 203 c 0,42,43
 519 132 519 132 496 90 c 128,-1,44
 473 48 473 48 436.5 26.5 c 128,-1,45
 400 5 400 5 355 -1.5 c 128,-1,46
 310 -8 310 -8 267 -8 c 1,47,-1
 267 39 l 1,48,49
 352 47 352 47 396.5 88.5 c 128,-1,50
 441 130 441 130 441 205 c 0,0,1
EndSplineSet
EndChar

StartChar: acute
Encoding: 180 180 97
Width: 222
Flags: W
LayerCount: 2
Fore
SplineSet
232 742 m 1,0,-1
 134 614 l 1,1,-1
 73 614 l 1,2,-1
 130 742 l 1,3,-1
 232 742 l 1,0,-1
EndSplineSet
EndChar

StartChar: dieresis
Encoding: 168 168 98
Width: 222
Flags: W
LayerCount: 2
Fore
SplineSet
254 707 m 1,0,-1
 254 609 l 1,1,-1
 170 609 l 1,2,-1
 170 707 l 1,3,-1
 254 707 l 1,0,-1
56 707 m 1,4,-1
 56 609 l 1,5,-1
 -27 609 l 1,6,-1
 -27 707 l 1,7,-1
 56 707 l 1,4,-1
254 707 m 1,8,-1
 254 609 l 1,9,-1
 170 609 l 1,10,-1
 170 707 l 1,11,-1
 254 707 l 1,8,-1
56 707 m 1,12,-1
 56 609 l 1,13,-1
 -27 609 l 1,14,-1
 -27 707 l 1,15,-1
 56 707 l 1,12,-1
EndSplineSet
EndChar

StartChar: AE
Encoding: 198 198 99
Width: 1041
Flags: W
LayerCount: 2
Fore
SplineSet
347 315 m 1,0,-1
 605 315 l 1,1,-1
 607 672 l 1,2,-1
 347 315 l 1,0,-1
587 714 m 1,3,-1
 1019 714 l 1,4,-1
 1019 672 l 1,5,-1
 673 672 l 1,6,7
 673 601 673 601 673 554 c 128,-1,8
 673 507 673 507 673.5 475 c 128,-1,9
 674 443 674 443 674 422.5 c 128,-1,10
 674 402 674 402 674 385 c 1,11,-1
 930 385 l 1,12,-1
 930 342 l 1,13,-1
 674 342 l 1,14,-1
 676 43 l 1,15,-1
 1044 43 l 1,16,-1
 1044 0 l 1,17,-1
 605 0 l 1,18,-1
 605 273 l 1,19,-1
 324 273 l 1,20,-1
 118 1 l 1,21,-1
 62 1 l 1,22,-1
 587 714 l 1,3,-1
EndSplineSet
EndChar

StartChar: ae
Encoding: 230 230 100
Width: 826
Flags: W
LayerCount: 2
Fore
SplineSet
235 491 m 0,0,1
 204 491 204 491 179 482.5 c 128,-1,2
 154 474 154 474 135 461 c 128,-1,3
 116 448 116 448 102.5 434 c 128,-1,4
 89 420 89 420 80 409 c 1,5,-1
 67 419 l 2,6,7
 58 427 58 427 51.5 432.5 c 128,-1,8
 45 438 45 438 37 444 c 1,9,10
 82 496 82 496 134.5 514 c 128,-1,11
 187 532 187 532 235 532 c 0,12,13
 299 532 299 532 348.5 508 c 128,-1,14
 398 484 398 484 435 441 c 1,15,16
 517 532 517 532 629 532 c 0,17,18
 676 532 676 532 714 518.5 c 128,-1,19
 752 505 752 505 779 476 c 128,-1,20
 806 447 806 447 820.5 401.5 c 128,-1,21
 835 356 835 356 835 292 c 1,22,-1
 467 292 l 1,23,24
 467 241 467 241 470 192.5 c 128,-1,25
 473 144 473 144 488.5 107 c 128,-1,26
 504 70 504 70 537 47.5 c 128,-1,27
 570 25 570 25 630 25 c 0,28,29
 660 25 660 25 684.5 33.5 c 128,-1,30
 709 42 709 42 728 54.5 c 128,-1,31
 747 67 747 67 761 81.5 c 128,-1,32
 775 96 775 96 783 107 c 1,33,34
 797 97 797 97 805 89.5 c 128,-1,35
 813 82 813 82 826 72 c 1,36,37
 803 43 803 43 779 26 c 128,-1,38
 755 9 755 9 729.5 -0.5 c 128,-1,39
 704 -10 704 -10 679 -13 c 128,-1,40
 654 -16 654 -16 630 -16 c 0,41,42
 563 -16 563 -16 515 7.5 c 128,-1,43
 467 31 467 31 427 74 c 1,44,45
 346 -16 346 -16 236 -16 c 0,46,47
 189 -16 189 -16 151 -2.5 c 128,-1,48
 113 11 113 11 86 40.5 c 128,-1,49
 59 70 59 70 44.5 115.5 c 128,-1,50
 30 161 30 161 30 224 c 1,51,-1
 398 224 l 1,52,53
 398 275 398 275 395 323.5 c 128,-1,54
 392 372 392 372 376.5 409 c 128,-1,55
 361 446 361 446 328 468.5 c 128,-1,56
 295 491 295 491 235 491 c 0,0,1
777 333 m 1,57,58
 775 355 775 355 766 382 c 128,-1,59
 757 409 757 409 739 432 c 128,-1,60
 721 455 721 455 694 470.5 c 128,-1,61
 667 486 667 486 629 486 c 0,62,63
 585 486 585 486 556.5 472 c 128,-1,64
 528 458 528 458 510.5 436 c 128,-1,65
 493 414 493 414 485 387 c 128,-1,66
 477 360 477 360 475 333 c 1,67,-1
 777 333 l 1,57,58
89 183 m 1,68,69
 90 160 90 160 99 133.5 c 128,-1,70
 108 107 108 107 125 84 c 128,-1,71
 142 61 142 61 169.5 45.5 c 128,-1,72
 197 30 197 30 236 30 c 0,73,74
 280 30 280 30 308.5 44 c 128,-1,75
 337 58 337 58 354 80 c 128,-1,76
 371 102 371 102 379 129 c 128,-1,77
 387 156 387 156 389 183 c 1,78,-1
 89 183 l 1,68,69
EndSplineSet
EndChar

StartChar: questiondown
Encoding: 191 191 101
Width: 562
Flags: W
LayerCount: 2
Fore
SplineSet
197 118 m 0,0,1
 218 134 218 134 239 151.5 c 128,-1,2
 260 169 260 169 277 189.5 c 128,-1,3
 294 210 294 210 306 235.5 c 128,-1,4
 318 261 318 261 321 293 c 1,5,-1
 359 293 l 1,6,7
 356 252 356 252 344.5 221.5 c 128,-1,8
 333 191 333 191 317.5 167 c 128,-1,9
 302 143 302 143 283 125.5 c 128,-1,10
 264 108 264 108 246 94 c 0,11,12
 228 79 228 79 211 64 c 128,-1,13
 194 49 194 49 181.5 31 c 128,-1,14
 169 13 169 13 161 -9 c 128,-1,15
 153 -31 153 -31 153 -59 c 0,16,17
 153 -114 153 -114 195 -149 c 128,-1,18
 237 -184 237 -184 330 -184 c 0,19,20
 360 -184 360 -184 387.5 -179 c 128,-1,21
 415 -174 415 -174 440 -166.5 c 128,-1,22
 465 -159 465 -159 485.5 -150 c 128,-1,23
 506 -141 506 -141 521 -134 c 1,24,-1
 521 -202 l 1,25,26
 498 -210 498 -210 477 -216 c 128,-1,27
 456 -222 456 -222 434 -226 c 128,-1,28
 412 -230 412 -230 386.5 -232.5 c 128,-1,29
 361 -235 361 -235 330 -235 c 0,30,31
 276 -235 276 -235 230.5 -225 c 128,-1,32
 185 -215 185 -215 151.5 -194 c 128,-1,33
 118 -173 118 -173 99 -139.5 c 128,-1,34
 80 -106 80 -106 80 -59 c 0,35,36
 80 -28 80 -28 89 -3.5 c 128,-1,37
 98 21 98 21 113.5 41.5 c 128,-1,38
 129 62 129 62 150.5 80 c 128,-1,39
 172 98 172 98 197 118 c 0,0,1
377 433 m 1,40,-1
 293 433 l 1,41,-1
 293 517 l 1,42,-1
 377 517 l 1,43,-1
 377 433 l 1,40,-1
EndSplineSet
EndChar

StartChar: exclamdown
Encoding: 161 161 102
Width: 264
Flags: W
LayerCount: 2
Fore
SplineSet
180 431 m 1,0,-1
 96 431 l 1,1,-1
 96 515 l 1,2,-1
 180 515 l 1,3,-1
 180 431 l 1,0,-1
131 290 m 1,4,-1
 152 290 l 1,5,-1
 177 -4 l 1,6,-1
 177 -217 l 1,7,-1
 106 -217 l 1,8,-1
 106 -4 l 1,9,-1
 131 290 l 1,4,-1
EndSplineSet
EndChar

StartChar: guillemotleft
Encoding: 171 171 103
Width: 562
Flags: W
LayerCount: 2
Fore
SplineSet
65 282 m 256,0,1
 65 294 65 294 77 302 c 2,2,-1
 247 423 l 1,3,4
 247 409 247 409 246 396 c 128,-1,5
 245 383 245 383 235 378 c 1,6,-1
 100 282 l 1,7,8
 109 275 109 275 129 260.5 c 128,-1,9
 149 246 149 246 170 231 c 128,-1,10
 191 216 191 216 208.5 204 c 128,-1,11
 226 192 226 192 231 189 c 0,12,13
 244 180 244 180 245.5 166 c 128,-1,14
 247 152 247 152 247 140 c 1,15,-1
 78 262 l 1,16,17
 65 270 65 270 65 282 c 256,0,1
315 282 m 256,18,19
 315 294 315 294 327 302 c 2,20,-1
 497 423 l 1,21,22
 497 409 497 409 496 396 c 128,-1,23
 495 383 495 383 485 378 c 1,24,-1
 350 282 l 1,25,26
 359 275 359 275 379 260.5 c 128,-1,27
 399 246 399 246 420 231 c 128,-1,28
 441 216 441 216 458.5 204 c 128,-1,29
 476 192 476 192 481 189 c 0,30,31
 494 180 494 180 495.5 166 c 128,-1,32
 497 152 497 152 497 140 c 1,33,-1
 328 262 l 1,34,35
 315 270 315 270 315 282 c 256,18,19
EndSplineSet
EndChar

StartChar: guillemotright
Encoding: 187 187 104
Width: 555
Flags: W
LayerCount: 2
Fore
SplineSet
512 282 m 256,0,1
 512 270 512 270 499 262 c 1,2,-1
 330 140 l 1,3,4
 330 152 330 152 331.5 166 c 128,-1,5
 333 180 333 180 346 189 c 0,6,7
 351 192 351 192 368.5 204 c 128,-1,8
 386 216 386 216 407 231 c 128,-1,9
 428 246 428 246 448 260.5 c 128,-1,10
 468 275 468 275 477 282 c 1,11,-1
 342 378 l 1,12,13
 332 383 332 383 331 396 c 128,-1,14
 330 409 330 409 330 423 c 1,15,-1
 500 302 l 2,16,17
 512 294 512 294 512 282 c 256,0,1
262 282 m 256,18,19
 262 270 262 270 249 262 c 1,20,-1
 80 140 l 1,21,22
 80 152 80 152 81.5 166 c 128,-1,23
 83 180 83 180 96 189 c 0,24,25
 101 192 101 192 118.5 204 c 128,-1,26
 136 216 136 216 157 231 c 128,-1,27
 178 246 178 246 198 260.5 c 128,-1,28
 218 275 218 275 227 282 c 1,29,-1
 92 378 l 1,30,31
 82 383 82 383 81 396 c 128,-1,32
 80 409 80 409 80 423 c 1,33,-1
 250 302 l 2,34,35
 262 294 262 294 262 282 c 256,18,19
EndSplineSet
EndChar

StartChar: endash
Encoding: 8211 8211 105
Width: 500
Flags: W
LayerCount: 2
Fore
SplineSet
511 304 m 1,0,-1
 511 253 l 1,1,-1
 12 253 l 1,2,-1
 12 304 l 1,3,-1
 511 304 l 1,0,-1
EndSplineSet
EndChar

StartChar: emdash
Encoding: 8212 8212 106
Width: 1000
Flags: W
LayerCount: 2
Fore
SplineSet
143 304 m 1,0,-1
 902 304 l 1,1,-1
 902 253 l 1,2,-1
 143 253 l 1,3,-1
 143 304 l 1,0,-1
EndSplineSet
EndChar

StartChar: quotedblleft
Encoding: 8220 8220 107
Width: 440
Flags: W
LayerCount: 2
Fore
SplineSet
183 683 m 1,0,1
 156 679 156 679 140.5 665.5 c 128,-1,2
 125 652 125 652 118 631.5 c 128,-1,3
 111 611 111 611 109.5 585.5 c 128,-1,4
 108 560 108 560 108 533 c 1,5,-1
 170 533 l 1,6,-1
 170 448 l 1,7,-1
 83 448 l 1,8,9
 73 504 73 504 73 548 c 0,10,11
 73 593 73 593 82.5 624.5 c 128,-1,12
 92 656 92 656 107.5 676 c 128,-1,13
 123 696 123 696 143 706.5 c 128,-1,14
 163 717 163 717 183 721 c 1,15,-1
 183 683 l 1,0,1
377 533 m 1,16,-1
 377 448 l 1,17,-1
 290 448 l 1,18,19
 287 477 287 477 285 501.5 c 128,-1,20
 283 526 283 526 283 548 c 0,21,22
 283 594 283 594 292 625 c 128,-1,23
 301 656 301 656 316 676.5 c 128,-1,24
 331 697 331 697 350.5 707 c 128,-1,25
 370 717 370 717 391 721 c 1,26,-1
 391 683 l 1,27,28
 364 679 364 679 349.5 665.5 c 128,-1,29
 335 652 335 652 327.5 631.5 c 128,-1,30
 320 611 320 611 318.5 585.5 c 128,-1,31
 317 560 317 560 317 533 c 1,32,-1
 377 533 l 1,16,-1
EndSplineSet
EndChar

StartChar: quotedblright
Encoding: 8221 8221 108
Width: 444
Flags: W
LayerCount: 2
Fore
SplineSet
290 722 m 1,0,-1
 378 722 l 1,1,2
 384 692 384 692 385.5 667.5 c 128,-1,3
 387 643 387 643 387 620 c 0,4,5
 387 575 387 575 377.5 544 c 128,-1,6
 368 513 368 513 353 493 c 128,-1,7
 338 473 338 473 318.5 463 c 128,-1,8
 299 453 299 453 278 449 c 1,9,-1
 278 485 l 1,10,11
 306 488 306 488 321 502 c 128,-1,12
 336 516 336 516 343 537 c 128,-1,13
 350 558 350 558 351 584 c 128,-1,14
 352 610 352 610 352 637 c 1,15,-1
 290 637 l 1,16,-1
 290 722 l 1,0,-1
84 722 m 1,17,-1
 171 722 l 1,18,19
 174 693 174 693 176.5 667.5 c 128,-1,20
 179 642 179 642 179 620 c 0,21,22
 179 575 179 575 169.5 544 c 128,-1,23
 160 513 160 513 144.5 493 c 128,-1,24
 129 473 129 473 109 463 c 128,-1,25
 89 453 89 453 69 449 c 1,26,-1
 69 485 l 1,27,28
 97 488 97 488 112 502 c 128,-1,29
 127 516 127 516 134 537 c 128,-1,30
 141 558 141 558 142.5 584 c 128,-1,31
 144 610 144 610 144 637 c 1,32,-1
 84 637 l 1,33,-1
 84 722 l 1,17,-1
EndSplineSet
EndChar

StartChar: quoteleft
Encoding: 8216 8216 109
Width: 278
Flags: W
LayerCount: 2
Fore
SplineSet
187 533 m 1,0,-1
 187 448 l 1,1,-1
 100 448 l 1,2,3
 95 478 95 478 93 501.5 c 128,-1,4
 91 525 91 525 91 548 c 0,5,6
 91 593 91 593 100 625 c 128,-1,7
 109 657 109 657 124.5 677 c 128,-1,8
 140 697 140 697 159.5 707.5 c 128,-1,9
 179 718 179 718 200 721 c 1,10,-1
 200 682 l 1,11,12
 173 679 173 679 158 665.5 c 128,-1,13
 143 652 143 652 135.5 631.5 c 128,-1,14
 128 611 128 611 126.5 585.5 c 128,-1,15
 125 560 125 560 125 533 c 1,16,-1
 187 533 l 1,0,-1
EndSplineSet
EndChar

StartChar: quoteright
Encoding: 8217 8217 110
Width: 278
Flags: W
LayerCount: 2
Fore
SplineSet
103 722 m 1,0,-1
 190 722 l 1,1,2
 194 693 194 693 196 667.5 c 128,-1,3
 198 642 198 642 198 620 c 0,4,5
 198 575 198 575 188.5 544 c 128,-1,6
 179 513 179 513 163.5 493 c 128,-1,7
 148 473 148 473 128.5 463 c 128,-1,8
 109 453 109 453 89 449 c 1,9,-1
 89 485 l 1,10,11
 117 488 117 488 132 502 c 128,-1,12
 147 516 147 516 154 537 c 128,-1,13
 161 558 161 558 162 584 c 128,-1,14
 163 610 163 610 163 637 c 1,15,-1
 103 637 l 1,16,-1
 103 722 l 1,0,-1
EndSplineSet
EndChar

StartChar: Euro
Encoding: 8364 8364 111
Width: 615
Flags: W
LayerCount: 2
Fore
SplineSet
114 481 m 1,0,1
 169 769 169 769 402 769 c 0,2,3
 457 769 457 769 506.5 757.5 c 128,-1,4
 556 746 556 746 597 734 c 1,5,-1
 597 672 l 1,6,7
 552 692 552 692 502.5 708.5 c 128,-1,8
 453 725 453 725 402 725 c 0,9,10
 377 725 377 725 347.5 718 c 128,-1,11
 318 711 318 711 289 686.5 c 128,-1,12
 260 662 260 662 235 613.5 c 128,-1,13
 210 565 210 565 195 481 c 1,14,-1
 446 481 l 1,15,-1
 439 460 l 1,16,-1
 195 460 l 1,17,18
 194 434 194 434 193 415.5 c 128,-1,19
 192 397 192 397 192 379 c 128,-1,20
 192 361 192 361 193.5 341 c 128,-1,21
 195 321 195 321 198 293 c 1,22,-1
 391 293 l 1,23,24
 390 287 390 287 389 281.5 c 128,-1,25
 388 276 388 276 386 271 c 1,26,-1
 199 271 l 1,27,28
 213 215 213 215 232.5 177.5 c 128,-1,29
 252 140 252 140 273.5 116 c 128,-1,30
 295 92 295 92 316.5 79 c 128,-1,31
 338 66 338 66 356 60 c 128,-1,32
 374 54 374 54 386.5 53.5 c 128,-1,33
 399 53 399 53 402 53 c 0,34,35
 467 53 467 53 516 75.5 c 128,-1,36
 565 98 565 98 605 130 c 1,37,-1
 605 60 l 1,38,39
 592 51 592 51 572.5 40.5 c 128,-1,40
 553 30 553 30 527.5 21 c 128,-1,41
 502 12 502 12 470.5 6 c 128,-1,42
 439 0 439 0 402 0 c 0,43,44
 351 0 351 0 305.5 18.5 c 128,-1,45
 260 37 260 37 222.5 72 c 128,-1,46
 185 107 185 107 157 157 c 128,-1,47
 129 207 129 207 113 271 c 1,48,-1
 40 271 l 1,49,-1
 53 293 l 1,50,-1
 112 293 l 1,51,52
 110 338 110 338 109 378.5 c 128,-1,53
 108 419 108 419 113 460 c 1,54,-1
 40 460 l 1,55,-1
 53 481 l 1,56,-1
 114 481 l 1,0,1
EndSplineSet
EndChar

StartChar: guilsinglleft
Encoding: 8249 8249 112
Width: 306
Flags: W
LayerCount: 2
Fore
SplineSet
71 282 m 256,0,1
 71 294 71 294 83 302 c 2,2,-1
 253 423 l 1,3,4
 253 409 253 409 252 396 c 128,-1,5
 251 383 251 383 241 378 c 1,6,-1
 106 282 l 1,7,8
 115 275 115 275 135 260.5 c 128,-1,9
 155 246 155 246 176 231 c 128,-1,10
 197 216 197 216 214.5 204 c 128,-1,11
 232 192 232 192 237 189 c 0,12,13
 250 180 250 180 251.5 166 c 128,-1,14
 253 152 253 152 253 140 c 1,15,-1
 84 262 l 1,16,17
 71 270 71 270 71 282 c 256,0,1
EndSplineSet
EndChar

StartChar: guilsinglright
Encoding: 8250 8250 113
Width: 311
Flags: W
LayerCount: 2
Fore
SplineSet
257 282 m 256,0,1
 257 270 257 270 244 262 c 1,2,-1
 75 140 l 1,3,4
 75 152 75 152 76.5 166 c 128,-1,5
 78 180 78 180 91 189 c 0,6,7
 96 192 96 192 113.5 204 c 128,-1,8
 131 216 131 216 152 231 c 128,-1,9
 173 246 173 246 193 260.5 c 128,-1,10
 213 275 213 275 222 282 c 1,11,-1
 87 378 l 1,12,13
 77 383 77 383 76 396 c 128,-1,14
 75 409 75 409 75 423 c 1,15,-1
 245 302 l 2,16,17
 257 294 257 294 257 282 c 256,0,1
EndSplineSet
EndChar

StartChar: fi
Encoding: 64257 64257 114
Width: 606
Flags: W
LayerCount: 2
Fore
SplineSet
554 518 m 1,0,-1
 554 0 l 1,1,-1
 483 0 l 1,2,-1
 483 475 l 1,3,-1
 166 475 l 1,4,-1
 166 0 l 1,5,-1
 101 0 l 1,6,-1
 101 475 l 1,7,-1
 22 475 l 1,8,-1
 22 518 l 1,9,-1
 101 518 l 1,10,-1
 101 610 l 2,11,12
 101 664 101 664 116 703.5 c 128,-1,13
 131 743 131 743 157.5 769 c 128,-1,14
 184 795 184 795 219 807.5 c 128,-1,15
 254 820 254 820 293 820 c 0,16,17
 327 820 327 820 352.5 816 c 128,-1,18
 378 812 378 812 397.5 805.5 c 128,-1,19
 417 799 417 799 433.5 790 c 128,-1,20
 450 781 450 781 466 772 c 1,21,-1
 466 805 l 1,22,-1
 554 805 l 1,23,-1
 554 716 l 1,24,-1
 452 716 l 1,25,26
 438 726 438 726 419 737 c 128,-1,27
 400 748 400 748 380 757 c 128,-1,28
 360 766 360 766 339 772 c 128,-1,29
 318 778 318 778 300 778 c 0,30,31
 261 778 261 778 235 761 c 128,-1,32
 209 744 209 744 193.5 718.5 c 128,-1,33
 178 693 178 693 171.5 663 c 128,-1,34
 165 633 165 633 165 606 c 2,35,-1
 165 518 l 1,36,-1
 554 518 l 1,0,-1
EndSplineSet
Ligature2: "'liga' Standard Ligatures in Latin lookup 0 subtable" f i
EndChar

StartChar: fl
Encoding: 64258 64258 115
Width: 602
Flags: W
LayerCount: 2
Fore
SplineSet
479 1 m 1,0,-1
 479 634 l 2,1,2
 479 706 479 706 436.5 738.5 c 128,-1,3
 394 771 394 771 300 771 c 1,4,5
 260 770 260 770 236 757 c 128,-1,6
 212 744 212 744 198.5 722 c 128,-1,7
 185 700 185 700 180.5 670.5 c 128,-1,8
 176 641 176 641 176 607 c 2,9,-1
 176 518 l 1,10,-1
 303 518 l 1,11,-1
 303 474 l 1,12,-1
 176 474 l 1,13,-1
 176 0 l 1,14,-1
 110 0 l 1,15,-1
 110 474 l 1,16,-1
 20 474 l 1,17,-1
 20 518 l 1,18,-1
 110 518 l 1,19,-1
 110 607 l 2,20,21
 110 671 110 671 124 713 c 128,-1,22
 138 755 138 755 163 779.5 c 128,-1,23
 188 804 188 804 223 813.5 c 128,-1,24
 258 823 258 823 300 823 c 0,25,26
 343 823 343 823 387.5 815.5 c 128,-1,27
 432 808 432 808 468 787.5 c 128,-1,28
 504 767 504 767 527 730 c 128,-1,29
 550 693 550 693 550 634 c 2,30,-1
 550 1 l 1,31,-1
 479 1 l 1,0,-1
EndSplineSet
Ligature2: "'liga' Standard Ligatures in Latin lookup 0 subtable" f l
EndChar

StartChar: dotlessi
Encoding: 305 305 116
Width: 241
Flags: W
LayerCount: 2
Fore
SplineSet
92 518 m 1,0,-1
 160 518 l 1,1,-1
 160 0 l 1,2,-1
 92 0 l 1,3,-1
 92 518 l 1,0,-1
EndSplineSet
EndChar

StartChar: circumflex
Encoding: 710 710 117
Width: 240
Flags: W
LayerCount: 2
Fore
SplineSet
121 728 m 1,0,-1
 42 625 l 1,1,-1
 -1 625 l 1,2,-1
 102 754 l 1,3,-1
 141 754 l 1,4,-1
 244 625 l 1,5,-1
 201 625 l 1,6,-1
 121 728 l 1,0,-1
EndSplineSet
EndChar

StartChar: tilde
Encoding: 732 732 118
Width: 222
Flags: W
LayerCount: 2
Fore
SplineSet
-18 705 m 1,0,1
 -14 711 -14 711 -1.5 718 c 128,-1,2
 11 725 11 725 39 725 c 0,3,4
 59 725 59 725 78.5 720.5 c 128,-1,5
 98 716 98 716 117.5 711 c 128,-1,6
 137 706 137 706 157 701.5 c 128,-1,7
 177 697 177 697 198 697 c 0,8,9
 218 697 218 697 233.5 699.5 c 128,-1,10
 249 702 249 702 261 707 c 1,11,-1
 261 669 l 1,12,13
 233 646 233 646 199 646 c 0,14,15
 176 646 176 646 156.5 650 c 128,-1,16
 137 654 137 654 118 659 c 128,-1,17
 99 664 99 664 79 668 c 128,-1,18
 59 672 59 672 37 672 c 0,19,20
 8 672 8 672 -17 662 c 1,21,-1
 -18 705 l 1,0,1
EndSplineSet
EndChar

StartChar: cedilla
Encoding: 184 184 119
Width: 245
Flags: W
LayerCount: 2
Fore
SplineSet
109 -90 m 0,0,1
 100 -90 100 -90 90.5 -91.5 c 128,-1,2
 81 -93 81 -93 72 -95 c 1,3,4
 75 -92 75 -92 80.5 -82 c 128,-1,5
 86 -72 86 -72 93 -58 c 128,-1,6
 100 -44 100 -44 107.5 -28 c 128,-1,7
 115 -12 115 -12 123 2 c 1,8,-1
 130 2 l 1,9,-1
 89 -78 l 1,10,11
 122 -75 122 -75 144.5 -80.5 c 128,-1,12
 167 -86 167 -86 180.5 -97.5 c 128,-1,13
 194 -109 194 -109 200 -123.5 c 128,-1,14
 206 -138 206 -138 206 -151 c 0,15,16
 206 -185 206 -185 184 -202.5 c 128,-1,17
 162 -220 162 -220 125 -224 c 1,18,19
 106 -224 106 -224 91 -222.5 c 128,-1,20
 76 -221 76 -221 61 -216 c 1,21,-1
 61 -196 l 1,22,23
 86 -206 86 -206 109 -206 c 0,24,25
 116 -206 116 -206 126.5 -204.5 c 128,-1,26
 137 -203 137 -203 146.5 -197.5 c 128,-1,27
 156 -192 156 -192 163 -181 c 128,-1,28
 170 -170 170 -170 170 -151 c 0,29,30
 170 -90 170 -90 109 -90 c 0,0,1
EndSplineSet
EndChar

StartChar: twosuperior
Encoding: 178 178 120
Width: 348
Flags: W
LayerCount: 2
Fore
SplineSet
320 311 m 1,0,-1
 320 300 l 1,1,-1
 39 300 l 1,2,3
 42 339 42 339 55 370 c 128,-1,4
 68 401 68 401 88.5 425 c 128,-1,5
 109 449 109 449 136.5 468 c 128,-1,6
 164 487 164 487 197 502 c 1,7,8
 242 525 242 525 263 555.5 c 128,-1,9
 284 586 284 586 284 618 c 0,10,11
 284 637 284 637 278.5 654.5 c 128,-1,12
 273 672 273 672 260.5 685.5 c 128,-1,13
 248 699 248 699 226.5 707 c 128,-1,14
 205 715 205 715 174 715 c 0,15,16
 135 715 135 715 111.5 699.5 c 128,-1,17
 88 684 88 684 77 671 c 1,18,19
 75 672 75 672 69 675 c 128,-1,20
 63 678 63 678 59 681 c 1,21,22
 80 701 80 701 108.5 713.5 c 128,-1,23
 137 726 137 726 175 726 c 0,24,25
 209 726 209 726 234 717.5 c 128,-1,26
 259 709 259 709 275 694 c 128,-1,27
 291 679 291 679 298.5 659.5 c 128,-1,28
 306 640 306 640 306 618 c 0,29,30
 306 577 306 577 281.5 543.5 c 128,-1,31
 257 510 257 510 204 484 c 0,32,33
 176 470 176 470 152 454.5 c 128,-1,34
 128 439 128 439 110 419 c 128,-1,35
 92 399 92 399 82 372.5 c 128,-1,36
 72 346 72 346 72 311 c 1,37,-1
 320 311 l 1,0,-1
EndSplineSet
EndChar

StartChar: threesuperior
Encoding: 179 179 121
Width: 341
Flags: W
LayerCount: 2
Fore
SplineSet
174 713 m 0,0,1
 134 713 134 713 97 700 c 128,-1,2
 60 687 60 687 35 676 c 1,3,-1
 35 690 l 1,4,5
 59 702 59 702 93.5 714.5 c 128,-1,6
 128 727 128 727 174 727 c 0,7,8
 199 727 199 727 223 722 c 128,-1,9
 247 717 247 717 265.5 705 c 128,-1,10
 284 693 284 693 295 673.5 c 128,-1,11
 306 654 306 654 306 626 c 0,12,13
 306 581 306 581 281 558 c 128,-1,14
 256 535 256 535 224 526 c 1,15,16
 240 523 240 523 259.5 517 c 128,-1,17
 279 511 279 511 295.5 499 c 128,-1,18
 312 487 312 487 323.5 467.5 c 128,-1,19
 335 448 335 448 335 418 c 0,20,21
 335 394 335 394 323 371.5 c 128,-1,22
 311 349 311 349 288.5 332 c 128,-1,23
 266 315 266 315 234 305 c 128,-1,24
 202 295 202 295 161 295 c 0,25,26
 101 295 101 295 67.5 301.5 c 128,-1,27
 34 308 34 308 20 313 c 1,28,-1
 20 332 l 1,29,-1
 21 332 l 1,30,31
 53 323 53 323 84.5 317.5 c 128,-1,32
 116 312 116 312 158 312 c 256,33,34
 200 312 200 312 227.5 323 c 128,-1,35
 255 334 255 334 271.5 350 c 128,-1,36
 288 366 288 366 294.5 384.5 c 128,-1,37
 301 403 301 403 301 418 c 0,38,39
 301 434 301 434 293 452 c 128,-1,40
 285 470 285 470 268.5 485 c 128,-1,41
 252 500 252 500 227.5 510 c 128,-1,42
 203 520 203 520 170 520 c 2,43,-1
 128 520 l 1,44,-1
 128 533 l 1,45,-1
 170 533 l 2,46,47
 201 533 201 533 222 540.5 c 128,-1,48
 243 548 243 548 255.5 560.5 c 128,-1,49
 268 573 268 573 273 590 c 128,-1,50
 278 607 278 607 278 626 c 0,51,52
 278 642 278 642 272.5 657.5 c 128,-1,53
 267 673 267 673 254.5 685.5 c 128,-1,54
 242 698 242 698 222 705.5 c 128,-1,55
 202 713 202 713 174 713 c 0,0,1
EndSplineSet
EndChar

StartChar: G
Encoding: 71 71 122
Width: 794
Flags: W
LayerCount: 2
Fore
SplineSet
742 301 m 1,0,-1
 742 38 l 1,1,2
 718 30 718 30 683.5 20 c 128,-1,3
 649 10 649 10 608.5 1 c 128,-1,4
 568 -8 568 -8 523.5 -14 c 128,-1,5
 479 -20 479 -20 436 -20 c 0,6,7
 330 -21 330 -21 257 6.5 c 128,-1,8
 184 34 184 34 138.5 84.5 c 128,-1,9
 93 135 93 135 73 205 c 128,-1,10
 53 275 53 275 53 359 c 256,11,12
 53 443 53 443 78 512 c 128,-1,13
 103 581 103 581 150.5 629.5 c 128,-1,14
 198 678 198 678 267 705 c 128,-1,15
 336 732 336 732 425 732 c 0,16,17
 474 732 474 732 517.5 728 c 128,-1,18
 561 724 561 724 595 718 c 128,-1,19
 629 712 629 712 652.5 705.5 c 128,-1,20
 676 699 676 699 687 695 c 1,21,-1
 687 628 l 1,22,23
 664 636 664 636 639 646.5 c 128,-1,24
 614 657 614 657 583.5 666 c 128,-1,25
 553 675 553 675 514.5 681.5 c 128,-1,26
 476 688 476 688 425 688 c 0,27,28
 350 688 350 688 294 662 c 128,-1,29
 238 636 238 636 201 590.5 c 128,-1,30
 164 545 164 545 146 484 c 128,-1,31
 128 423 128 423 128 353 c 0,32,33
 128 270 128 270 147 214 c 128,-1,34
 166 158 166 158 196 122 c 128,-1,35
 226 86 226 86 262.5 67 c 128,-1,36
 299 48 299 48 333 40 c 128,-1,37
 367 32 367 32 395 31 c 128,-1,38
 423 30 423 30 436 30 c 0,39,40
 508 30 508 30 566 43 c 128,-1,41
 624 56 624 56 676 91 c 1,42,-1
 676 301 l 1,43,-1
 742 301 l 1,0,-1
EndSplineSet
EndChar

StartChar: nine
Encoding: 57 57 123
Width: 602
Flags: W
LayerCount: 2
Fore
SplineSet
494 498 m 1,0,1
 494 529 494 529 482 562.5 c 128,-1,2
 470 596 470 596 447 623.5 c 128,-1,3
 424 651 424 651 390.5 669 c 128,-1,4
 357 687 357 687 314 687 c 0,5,6
 252 687 252 687 210.5 660 c 128,-1,7
 169 633 169 633 146.5 592 c 128,-1,8
 124 551 124 551 121.5 503.5 c 128,-1,9
 119 456 119 456 136.5 415 c 128,-1,10
 154 374 154 374 191.5 347 c 128,-1,11
 229 320 229 320 286 320 c 0,12,13
 324 320 324 320 356.5 335 c 128,-1,14
 389 350 389 350 415.5 375 c 128,-1,15
 442 400 442 400 462 432 c 128,-1,16
 482 464 482 464 494 498 c 1,0,1
64 116 m 1,17,18
 82 105 82 105 106.5 92 c 128,-1,19
 131 79 131 79 160 67.5 c 128,-1,20
 189 56 189 56 222.5 48 c 128,-1,21
 256 40 256 40 291 40 c 0,22,23
 342 40 342 40 379 59.5 c 128,-1,24
 416 79 416 79 440.5 110.5 c 128,-1,25
 465 142 465 142 479 183.5 c 128,-1,26
 493 225 493 225 500 268.5 c 128,-1,27
 507 312 507 312 508 354.5 c 128,-1,28
 509 397 509 397 507 432 c 1,29,30
 501 414 501 414 483.5 386.5 c 128,-1,31
 466 359 466 359 437.5 333.5 c 128,-1,32
 409 308 409 308 371 290 c 128,-1,33
 333 272 333 272 286 272 c 0,34,35
 206 272 206 272 152.5 305.5 c 128,-1,36
 99 339 99 339 72.5 390 c 128,-1,37
 46 441 46 441 47 499.5 c 128,-1,38
 48 558 48 558 78 609 c 128,-1,39
 108 660 108 660 166.5 693.5 c 128,-1,40
 225 727 225 727 313 727 c 0,41,42
 373 727 373 727 421.5 709.5 c 128,-1,43
 470 692 470 692 504 650 c 128,-1,44
 538 608 538 608 556.5 537.5 c 128,-1,45
 575 467 575 467 575 361 c 0,46,47
 575 258 575 258 552.5 187 c 128,-1,48
 530 116 530 116 491.5 72.5 c 128,-1,49
 453 29 453 29 401.5 9.5 c 128,-1,50
 350 -10 350 -10 291 -10 c 0,51,52
 255 -10 255 -10 224.5 -4 c 128,-1,53
 194 2 194 2 166 11.5 c 128,-1,54
 138 21 138 21 112 33 c 128,-1,55
 86 45 86 45 60 58 c 1,56,-1
 64 116 l 1,17,18
EndSplineSet
EndChar

StartChar: ti
Encoding: 65538 -1 124
Width: 547
Flags: W
LayerCount: 2
Fore
SplineSet
438 518 m 1,0,-1
 505 518 l 1,1,-1
 509 12 l 1,2,3
 429 -5 429 -5 382.5 -10 c 128,-1,4
 336 -15 336 -15 316 -15 c 0,5,6
 289 -15 289 -15 255.5 -12 c 128,-1,7
 222 -9 222 -9 192.5 6 c 128,-1,8
 163 21 163 21 143 51.5 c 128,-1,9
 123 82 123 82 123 138 c 2,10,-1
 123 475 l 1,11,-1
 23 475 l 1,12,-1
 23 518 l 1,13,-1
 122 518 l 1,14,-1
 142 671 l 1,15,-1
 189 671 l 1,16,-1
 189 518 l 1,17,-1
 322 518 l 1,18,-1
 322 475 l 1,19,-1
 189 475 l 1,20,-1
 189 138 l 2,21,22
 189 100 189 100 208 79 c 128,-1,23
 227 58 227 58 252.5 48.5 c 128,-1,24
 278 39 278 39 303 37.5 c 128,-1,25
 328 36 328 36 341 36 c 0,26,27
 356 36 356 36 384.5 40.5 c 128,-1,28
 413 45 413 45 438 56 c 1,29,-1
 438 518 l 1,0,-1
422 710 m 1,30,-1
 422 795 l 1,31,-1
 505 795 l 1,32,-1
 505 710 l 1,33,-1
 422 710 l 1,30,-1
EndSplineSet
Ligature2: "'liga' Standard Ligatures in Latin lookup 0 subtable" t i
EndChar

StartChar: th
Encoding: 65539 -1 125
Width: 870
Flags: W
LayerCount: 2
Fore
SplineSet
791 318 m 2,0,1
 791 351 791 351 785 381 c 128,-1,2
 779 411 779 411 766 433 c 128,-1,3
 753 455 753 455 732.5 468 c 128,-1,4
 712 481 712 481 684 481 c 0,5,6
 641 481 641 481 606.5 468 c 128,-1,7
 572 455 572 455 547.5 434 c 128,-1,8
 523 413 523 413 509.5 387.5 c 128,-1,9
 496 362 496 362 496 337 c 2,10,-1
 496 33 l 1,11,12
 475 19 475 19 447.5 9.5 c 128,-1,13
 420 0 420 0 393 -5.5 c 128,-1,14
 366 -11 366 -11 344 -13 c 128,-1,15
 322 -15 322 -15 311 -15 c 0,16,17
 285 -15 285 -15 251 -10.5 c 128,-1,18
 217 -6 217 -6 187 9.5 c 128,-1,19
 157 25 157 25 136.5 55 c 128,-1,20
 116 85 116 85 116 136 c 2,21,-1
 116 475 l 1,22,-1
 14 475 l 1,23,-1
 14 518 l 1,24,-1
 115 518 l 1,25,-1
 136 671 l 1,26,-1
 181 671 l 1,27,-1
 181 518 l 1,28,-1
 315 518 l 1,29,-1
 315 475 l 1,30,-1
 181 475 l 1,31,-1
 181 138 l 2,32,33
 181 102 181 102 195.5 82 c 128,-1,34
 210 62 210 62 231 51.5 c 128,-1,35
 252 41 252 41 274 38.5 c 128,-1,36
 296 36 296 36 311 36 c 0,37,38
 318 36 318 36 337.5 38 c 128,-1,39
 357 40 357 40 378 46.5 c 128,-1,40
 399 53 399 53 415 65 c 128,-1,41
 431 77 431 77 431 96 c 2,42,-1
 431 795 l 1,43,-1
 496 795 l 1,44,-1
 496 422 l 1,45,46
 511 444 511 444 533.5 463.5 c 128,-1,47
 556 483 556 483 583.5 497.5 c 128,-1,48
 611 512 611 512 642.5 520 c 128,-1,49
 674 528 674 528 706 528 c 0,50,51
 739 528 739 528 767 514.5 c 128,-1,52
 795 501 795 501 815 474 c 128,-1,53
 835 447 835 447 846 406 c 128,-1,54
 857 365 857 365 856 310 c 1,55,-1
 856 0 l 1,56,-1
 791 0 l 1,57,-1
 791 318 l 2,0,1
EndSplineSet
Ligature2: "'liga' Standard Ligatures in Latin lookup 0 subtable" t h
EndChar

StartChar: ck
Encoding: 65540 -1 126
Width: 1047
Flags: W
LayerCount: 2
Fore
SplineSet
1047 0 m 1,0,-1
 967 0 l 1,1,-1
 836 169 l 1,2,-1
 777 144 l 1,3,4
 776 151 776 151 776 162.5 c 128,-1,5
 776 174 776 174 776 196 c 1,6,7
 808 210 808 210 845 231 c 128,-1,8
 882 252 882 252 913.5 278 c 128,-1,9
 945 304 945 304 966 334.5 c 128,-1,10
 987 365 987 365 987 399 c 0,11,12
 987 444 987 444 959.5 471.5 c 128,-1,13
 932 499 932 499 890 499 c 0,14,15
 859 499 859 499 824 482 c 128,-1,16
 789 465 789 465 759.5 436.5 c 128,-1,17
 730 408 730 408 710 372 c 128,-1,18
 690 336 690 336 689 297 c 1,19,-1
 689 164 l 1,20,21
 666 142 666 142 631 111 c 128,-1,22
 596 80 596 80 548.5 52 c 128,-1,23
 501 24 501 24 442 4 c 128,-1,24
 383 -16 383 -16 313 -16 c 0,25,26
 180 -16 180 -16 110 52.5 c 128,-1,27
 40 121 40 121 40 263 c 0,28,29
 40 339 40 339 58.5 390.5 c 128,-1,30
 77 442 77 442 112.5 473.5 c 128,-1,31
 148 505 148 505 198.5 518.5 c 128,-1,32
 249 532 249 532 313 532 c 0,33,34
 356 532 356 532 396.5 521 c 128,-1,35
 437 510 437 510 475 494 c 1,36,-1
 475 437 l 1,37,38
 436 458 436 458 396 472 c 128,-1,39
 356 486 356 486 313 486 c 0,40,41
 274 486 274 486 237 477.5 c 128,-1,42
 200 469 200 469 172 445 c 128,-1,43
 144 421 144 421 127 378 c 128,-1,44
 110 335 110 335 110 265 c 0,45,46
 110 192 110 192 126.5 146.5 c 128,-1,47
 143 101 143 101 170.5 75 c 128,-1,48
 198 49 198 49 235 39.5 c 128,-1,49
 272 30 272 30 313 30 c 256,50,51
 354 30 354 30 396 41.5 c 128,-1,52
 438 53 438 53 477.5 72.5 c 128,-1,53
 517 92 517 92 554 119 c 128,-1,54
 591 146 591 146 621 178 c 1,55,-1
 621 795 l 1,56,-1
 689 795 l 1,57,-1
 689 406 l 1,58,59
 723 470 723 470 782 510 c 128,-1,60
 841 550 841 550 910 550 c 0,61,62
 941 550 941 550 966.5 539 c 128,-1,63
 992 528 992 528 1010.5 509 c 128,-1,64
 1029 490 1029 490 1039 464.5 c 128,-1,65
 1049 439 1049 439 1049 410 c 0,66,67
 1049 353 1049 353 1006.5 300.5 c 128,-1,68
 964 248 964 248 895 200 c 1,69,-1
 1047 0 l 1,0,-1
EndSplineSet
Ligature2: "'liga' Standard Ligatures in Latin lookup 0 subtable" c k
EndChar

StartChar: mm
Encoding: 65541 -1 127
Width: 1340
Flags: W
LayerCount: 2
Fore
SplineSet
1273 330 m 2,0,1
 1273 358 1273 358 1270.5 386 c 128,-1,2
 1268 414 1268 414 1259 435.5 c 128,-1,3
 1250 457 1250 457 1231.5 470.5 c 128,-1,4
 1213 484 1213 484 1181 484 c 0,5,6
 1144 484 1144 484 1116.5 469.5 c 128,-1,7
 1089 455 1089 455 1071 432 c 128,-1,8
 1053 409 1053 409 1044 379.5 c 128,-1,9
 1035 350 1035 350 1035 320 c 2,10,-1
 1035 0 l 1,11,-1
 969 0 l 1,12,-1
 969 320 l 2,13,14
 969 352 969 352 965 381.5 c 128,-1,15
 961 411 961 411 950.5 434 c 128,-1,16
 940 457 940 457 923 470.5 c 128,-1,17
 906 484 906 484 879 484 c 0,18,19
 844 484 844 484 817 469.5 c 128,-1,20
 790 455 790 455 771.5 432 c 128,-1,21
 753 409 753 409 743 381 c 128,-1,22
 733 353 733 353 732 325 c 1,23,-1
 735 0 l 1,24,-1
 671 0 l 1,25,-1
 671 330 l 2,26,27
 671 365 671 365 668 393.5 c 128,-1,28
 665 422 665 422 655.5 442 c 128,-1,29
 646 462 646 462 627.5 473 c 128,-1,30
 609 484 609 484 579 484 c 0,31,32
 541 484 541 484 513.5 469.5 c 128,-1,33
 486 455 486 455 468 432 c 128,-1,34
 450 409 450 409 441 379.5 c 128,-1,35
 432 350 432 350 432 320 c 2,36,-1
 432 0 l 1,37,-1
 367 0 l 1,38,-1
 367 320 l 2,39,40
 367 401 367 401 348 442.5 c 128,-1,41
 329 484 329 484 275 484 c 0,42,43
 237 484 237 484 209.5 469 c 128,-1,44
 182 454 182 454 164.5 430.5 c 128,-1,45
 147 407 147 407 138.5 377.5 c 128,-1,46
 130 348 130 348 130 320 c 2,47,-1
 130 0 l 1,48,-1
 62 0 l 1,49,-1
 62 517 l 1,50,-1
 120 517 l 1,51,-1
 130 418 l 1,52,53
 143 449 143 449 163 471 c 128,-1,54
 183 493 183 493 206.5 506.5 c 128,-1,55
 230 520 230 520 255.5 526.5 c 128,-1,56
 281 533 281 533 306 533 c 0,57,58
 323 533 323 533 341.5 526.5 c 128,-1,59
 360 520 360 520 376.5 506 c 128,-1,60
 393 492 393 492 406 470 c 128,-1,61
 419 448 419 448 425 418 c 1,62,63
 435 440 435 440 454 461 c 128,-1,64
 473 482 473 482 498 498 c 128,-1,65
 523 514 523 514 551.5 523.5 c 128,-1,66
 580 533 580 533 609 533 c 0,67,68
 628 533 628 533 647.5 526 c 128,-1,69
 667 519 667 519 684 504 c 128,-1,70
 701 489 701 489 713.5 465 c 128,-1,71
 726 441 726 441 732 406 c 1,72,73
 742 439 742 439 761.5 462.5 c 128,-1,74
 781 486 781 486 805 502 c 128,-1,75
 829 518 829 518 856 525.5 c 128,-1,76
 883 533 883 533 909 533 c 0,77,78
 927 533 927 533 946 527.5 c 128,-1,79
 965 522 965 522 982 508.5 c 128,-1,80
 999 495 999 495 1012 473 c 128,-1,81
 1025 451 1025 451 1030 418 c 1,82,83
 1039 443 1039 443 1058 464 c 128,-1,84
 1077 485 1077 485 1101.5 500.5 c 128,-1,85
 1126 516 1126 516 1155.5 524.5 c 128,-1,86
 1185 533 1185 533 1215 533 c 0,87,88
 1246 533 1246 533 1269 522 c 128,-1,89
 1292 511 1292 511 1307 486 c 128,-1,90
 1322 461 1322 461 1329.5 421 c 128,-1,91
 1337 381 1337 381 1337 323 c 2,92,-1
 1337 0 l 1,93,-1
 1273 0 l 1,94,-1
 1273 330 l 2,0,1
EndSplineSet
Ligature2: "'liga' Standard Ligatures in Latin lookup 0 subtable" m m
EndChar

StartChar: t
Encoding: 116 116 128
Width: 344
Flags: W
LayerCount: 2
Fore
SplineSet
126 518 m 1,0,1
 131 554 131 554 136 594 c 128,-1,2
 141 634 141 634 146 671 c 1,3,-1
 191 671 l 1,4,-1
 191 518 l 1,5,-1
 325 518 l 1,6,-1
 325 475 l 1,7,-1
 191 475 l 1,8,-1
 191 139 l 2,9,10
 191 106 191 106 193 85.5 c 128,-1,11
 195 65 195 65 201.5 54.5 c 128,-1,12
 208 44 208 44 219.5 40.5 c 128,-1,13
 231 37 231 37 250 37 c 0,14,15
 271 37 271 37 290 41.5 c 128,-1,16
 309 46 309 46 323 53 c 1,17,-1
 323 3 l 1,18,19
 288 -5 288 -5 265 -8.5 c 128,-1,20
 242 -12 242 -12 225 -12 c 0,21,22
 201 -12 201 -12 183 -7.5 c 128,-1,23
 165 -3 165 -3 152.5 10 c 128,-1,24
 140 23 140 23 133.5 45.5 c 128,-1,25
 127 68 127 68 127 104 c 2,26,-1
 127 475 l 1,27,-1
 25 475 l 1,28,-1
 25 518 l 1,29,-1
 126 518 l 1,0,1
EndSplineSet
EndChar

StartChar: oo
Encoding: 65542 -1 129
Width: 945
Flags: W
LayerCount: 2
Fore
SplineSet
692 533 m 0,0,1
 764 533 764 533 811.5 511.5 c 128,-1,2
 859 490 859 490 888 453 c 128,-1,3
 917 416 917 416 929 366.5 c 128,-1,4
 941 317 941 317 941 261 c 0,5,6
 941 193 941 193 929 141 c 128,-1,7
 917 89 917 89 889 54 c 128,-1,8
 861 19 861 19 815 1 c 128,-1,9
 769 -17 769 -17 701 -17 c 0,10,11
 638 -17 638 -17 588 8 c 128,-1,12
 538 33 538 33 498 80 c 1,13,14
 458 32 458 32 407.5 7.5 c 128,-1,15
 357 -17 357 -17 288 -17 c 256,16,17
 219 -17 219 -17 172 5.5 c 128,-1,18
 125 28 125 28 95.5 66.5 c 128,-1,19
 66 105 66 105 53.5 155 c 128,-1,20
 41 205 41 205 41 261 c 0,21,22
 41 326 41 326 53.5 377 c 128,-1,23
 66 428 66 428 94.5 462.5 c 128,-1,24
 123 497 123 497 168.5 515 c 128,-1,25
 214 533 214 533 281 533 c 0,26,27
 346 533 346 533 396 508.5 c 128,-1,28
 446 484 446 484 486 437 c 1,29,30
 527 485 527 485 576.5 509 c 128,-1,31
 626 533 626 533 692 533 c 0,0,1
113 261 m 0,32,33
 113 179 113 179 130 132.5 c 128,-1,34
 147 86 147 86 173 63 c 128,-1,35
 199 40 199 40 230 34.5 c 128,-1,36
 261 29 261 29 288 29 c 0,37,38
 302 29 302 29 320.5 30 c 128,-1,39
 339 31 339 31 358 37.5 c 128,-1,40
 377 44 377 44 395.5 58 c 128,-1,41
 414 72 414 72 428 98 c 128,-1,42
 442 124 442 124 451 163.5 c 128,-1,43
 460 203 460 203 460 261 c 0,44,45
 460 345 460 345 438.5 391 c 128,-1,46
 417 437 417 437 388 458 c 128,-1,47
 359 479 359 479 329 483 c 128,-1,48
 299 487 299 487 281 487 c 0,49,50
 260 487 260 487 231 484 c 128,-1,51
 202 481 202 481 175.5 460 c 128,-1,52
 149 439 149 439 131 393 c 128,-1,53
 113 347 113 347 113 261 c 0,32,33
519 261 m 0,54,55
 519 213 519 213 527 170.5 c 128,-1,56
 535 128 535 128 555.5 96.5 c 128,-1,57
 576 65 576 65 611 47 c 128,-1,58
 646 29 646 29 701 29 c 0,59,60
 715 29 715 29 733 30 c 128,-1,61
 751 31 751 31 769.5 37.5 c 128,-1,62
 788 44 788 44 805.5 58 c 128,-1,63
 823 72 823 72 837 98 c 128,-1,64
 851 124 851 124 859.5 163.5 c 128,-1,65
 868 203 868 203 868 261 c 0,66,67
 868 345 868 345 850 391 c 128,-1,68
 832 437 832 437 805 458 c 128,-1,69
 778 479 778 479 747.5 483 c 128,-1,70
 717 487 717 487 692 487 c 0,71,72
 636 487 636 487 602 468.5 c 128,-1,73
 568 450 568 450 549.5 418.5 c 128,-1,74
 531 387 531 387 525 346 c 128,-1,75
 519 305 519 305 519 261 c 0,54,55
EndSplineSet
Ligature2: "'liga' Standard Ligatures in Latin lookup 0 subtable" o o
EndChar

StartChar: ff
Encoding: 64256 64256 130
Width: 626
Flags: W
LayerCount: 2
Fore
SplineSet
746 698 m 1,0,1
 718 712 718 712 692 720 c 128,-1,2
 666 728 666 728 634 728 c 0,3,4
 582 728 582 728 554.5 715.5 c 128,-1,5
 527 703 527 703 514.5 681.5 c 128,-1,6
 502 660 502 660 500.5 630 c 128,-1,7
 499 600 499 600 499 564 c 2,8,-1
 499 518 l 1,9,-1
 628 518 l 1,10,-1
 628 475 l 1,11,-1
 499 475 l 1,12,-1
 499 -211 l 1,13,-1
 436 -211 l 1,14,-1
 436 475 l 1,15,-1
 170 475 l 1,16,-1
 170 -211 l 1,17,-1
 107 -211 l 1,18,-1
 107 475 l 1,19,-1
 21 475 l 1,20,-1
 21 518 l 1,21,-1
 107 518 l 1,22,-1
 107 564 l 2,23,24
 107 627 107 627 120 669 c 128,-1,25
 133 711 133 711 157.5 735.5 c 128,-1,26
 182 760 182 760 218.5 770 c 128,-1,27
 255 780 255 780 303 780 c 0,28,29
 336 780 336 780 369 768 c 128,-1,30
 402 756 402 756 427 742 c 1,31,-1
 427 690 l 1,32,33
 395 707 395 707 364.5 717.5 c 128,-1,34
 334 728 334 728 303 728 c 0,35,36
 252 728 252 728 225 715.5 c 128,-1,37
 198 703 198 703 186 681.5 c 128,-1,38
 174 660 174 660 172 630 c 128,-1,39
 170 600 170 600 170 564 c 2,40,-1
 170 518 l 1,41,-1
 436 518 l 1,42,-1
 436 564 l 2,43,44
 436 628 436 628 449 670 c 128,-1,45
 462 712 462 712 487.5 736.5 c 128,-1,46
 513 761 513 761 550 770.5 c 128,-1,47
 587 780 587 780 634 780 c 0,48,49
 661 780 661 780 691 770 c 128,-1,50
 721 760 721 760 745 749 c 1,51,-1
 746 698 l 1,0,1
EndSplineSet
Ligature2: "'liga' Standard Ligatures in Latin lookup 0 subtable" f f
EndChar

StartChar: ellipsis
Encoding: 8230 8230 131
Width: 813
Flags: W
LayerCount: 2
Fore
SplineSet
93 83 m 1,0,-1
 178 83 l 1,1,-1
 178 -1 l 1,2,-1
 93 -1 l 1,3,-1
 93 83 l 1,0,-1
387 83 m 1,4,-1
 472 83 l 1,5,-1
 472 -1 l 1,6,-1
 387 -1 l 1,7,-1
 387 83 l 1,4,-1
681 83 m 1,8,-1
 765 83 l 1,9,-1
 765 -1 l 1,10,-1
 681 -1 l 1,11,-1
 681 83 l 1,8,-1
EndSplineSet
EndChar

StartChar: yen
Encoding: 165 165 132
Width: 690
Flags: W
LayerCount: 2
Fore
SplineSet
24 731 m 1,0,-1
 107 731 l 1,1,-1
 352 328 l 1,2,3
 413 425 413 425 479.5 529.5 c 128,-1,4
 546 634 546 634 608 731 c 1,5,-1
 692 731 l 1,6,-1
 427 325 l 1,7,-1
 601 325 l 1,8,-1
 601 284 l 1,9,-1
 395 284 l 1,10,-1
 395 115 l 1,11,-1
 601 115 l 1,12,-1
 601 75 l 1,13,-1
 395 75 l 1,14,-1
 395 0 l 1,15,-1
 321 0 l 1,16,-1
 321 75 l 1,17,-1
 118 75 l 1,18,-1
 118 115 l 1,19,-1
 321 115 l 1,20,-1
 321 284 l 1,21,-1
 118 284 l 1,22,-1
 118 325 l 1,23,-1
 289 325 l 1,24,-1
 24 731 l 1,0,-1
EndSplineSet
EndChar

StartChar: cent
Encoding: 162 162 133
Width: 509
Flags: W
LayerCount: 2
Fore
SplineSet
288 604 m 1,0,-1
 321 604 l 1,1,-1
 321 529 l 1,2,3
 380 524 380 524 418.5 514 c 128,-1,4
 457 504 457 504 488 492 c 1,5,6
 486 478 486 478 484 467.5 c 128,-1,7
 482 457 482 457 480 445 c 1,8,9
 447 459 447 459 410.5 472 c 128,-1,10
 374 485 374 485 321 490 c 1,11,-1
 321 28 l 1,12,13
 384 34 384 34 428 47.5 c 128,-1,14
 472 61 472 61 497 73 c 1,15,16
 497 50 497 50 497 35.5 c 128,-1,17
 497 21 497 21 498 14 c 1,18,19
 477 8 477 8 458.5 3 c 128,-1,20
 440 -2 440 -2 420 -6 c 128,-1,21
 400 -10 400 -10 376.5 -12.5 c 128,-1,22
 353 -15 353 -15 321 -16 c 1,23,-1
 321 -124 l 1,24,-1
 288 -124 l 1,25,-1
 288 -14 l 1,26,27
 230 -14 230 -14 186 5.5 c 128,-1,28
 142 25 142 25 112.5 61.5 c 128,-1,29
 83 98 83 98 68 149 c 128,-1,30
 53 200 53 200 53 263 c 0,31,32
 53 394 53 394 116.5 461.5 c 128,-1,33
 180 529 180 529 288 529 c 1,34,-1
 288 604 l 1,0,-1
120 264 m 2,35,36
 120 210 120 210 132.5 166 c 128,-1,37
 145 122 145 122 167 91 c 128,-1,38
 189 60 189 60 220 43.5 c 128,-1,39
 251 27 251 27 288 27 c 1,40,-1
 288 490 l 1,41,42
 258 490 258 490 228 474 c 128,-1,43
 198 458 198 458 174 429 c 128,-1,44
 150 400 150 400 135 358 c 128,-1,45
 120 316 120 316 120 265 c 2,46,-1
 120 264 l 2,35,36
EndSplineSet
EndChar

StartChar: rt
Encoding: 65543 -1 134
Width: 677
Flags: W
LayerCount: 2
Fore
SplineSet
145 0 m 1,0,-1
 74 0 l 1,1,-1
 74 518 l 1,2,-1
 134 518 l 1,3,-1
 144 414 l 1,4,5
 152 445 152 445 168.5 467.5 c 128,-1,6
 185 490 185 490 205 504.5 c 128,-1,7
 225 519 225 519 247.5 526 c 128,-1,8
 270 533 270 533 290 533 c 0,9,10
 322 533 322 533 341.5 528 c 128,-1,11
 361 523 361 523 372 518 c 1,12,-1
 366 464 l 1,13,14
 340 472 340 472 324 476.5 c 128,-1,15
 308 481 308 481 290 481 c 0,16,17
 265 481 265 481 239.5 475 c 128,-1,18
 214 469 214 469 193 446 c 128,-1,19
 172 423 172 423 158.5 376 c 128,-1,20
 145 329 145 329 145 248 c 2,21,-1
 145 0 l 1,0,-1
481 537 m 1,22,-1
 501 671 l 1,23,-1
 546 671 l 1,24,-1
 546 518 l 1,25,-1
 680 518 l 1,26,-1
 680 475 l 1,27,-1
 546 475 l 1,28,-1
 546 139 l 2,29,30
 546 106 546 106 548 85.5 c 128,-1,31
 550 65 550 65 556 54.5 c 128,-1,32
 562 44 562 44 573.5 40.5 c 128,-1,33
 585 37 585 37 605 37 c 0,34,35
 623 37 623 37 641.5 43 c 128,-1,36
 660 49 660 49 678 57 c 1,37,-1
 678 2 l 1,38,39
 646 -7 646 -7 622.5 -9.5 c 128,-1,40
 599 -12 599 -12 580 -12 c 0,41,42
 556 -12 556 -12 537.5 -7.5 c 128,-1,43
 519 -3 519 -3 506.5 10 c 128,-1,44
 494 23 494 23 487.5 45.5 c 128,-1,45
 481 68 481 68 481 104 c 2,46,-1
 481 537 l 1,22,-1
EndSplineSet
Ligature2: "'liga' Standard Ligatures in Latin lookup 0 subtable" r t
EndChar

StartChar: approxequal
Encoding: 8776 8776 135
Width: 600
Flags: W
LayerCount: 2
Fore
SplineSet
207 216 m 0,0,1
 181 216 181 216 154.5 209.5 c 128,-1,2
 128 203 128 203 108 197 c 1,3,4
 108 211 108 211 107 218 c 128,-1,5
 106 225 106 225 106 237 c 1,6,7
 134 250 134 250 158 259 c 128,-1,8
 182 268 182 268 209 268 c 0,9,10
 245 268 245 268 267.5 263.5 c 128,-1,11
 290 259 290 259 311 254 c 128,-1,12
 332 249 332 249 356 244.5 c 128,-1,13
 380 240 380 240 419 240 c 0,14,15
 448 240 448 240 473 246.5 c 128,-1,16
 498 253 498 253 518 262 c 1,17,-1
 518 217 l 1,18,19
 477 200 477 200 455.5 194.5 c 128,-1,20
 434 189 434 189 419 189 c 0,21,22
 382 189 382 189 358 193 c 128,-1,23
 334 197 334 197 312.5 202.5 c 128,-1,24
 291 208 291 208 267.5 212 c 128,-1,25
 244 216 244 216 207 216 c 0,0,1
EndSplineSet
EndChar

StartChar: Oslash
Encoding: 216 216 136
Width: 824
Flags: W
LayerCount: 2
Fore
SplineSet
587 736 m 1,0,-1
 577 712 l 1,1,2
 693 668 693 668 746 580.5 c 128,-1,3
 799 493 799 493 799 356 c 0,4,5
 799 276 799 276 778.5 207.5 c 128,-1,6
 758 139 758 139 713 88.5 c 128,-1,7
 668 38 668 38 596.5 9 c 128,-1,8
 525 -20 525 -20 424 -20 c 0,9,10
 365 -20 365 -20 293 -8 c 1,11,-1
 289 -20 l 1,12,-1
 272 -20 l 1,13,-1
 279 -5 l 1,14,15
 216 16 216 16 172.5 51 c 128,-1,16
 129 86 129 86 101.5 132.5 c 128,-1,17
 74 179 74 179 61 235 c 128,-1,18
 48 291 48 291 47 356 c 1,19,20
 47 444 47 444 75 514 c 128,-1,21
 103 584 103 584 153.5 632 c 128,-1,22
 204 680 204 680 273 705.5 c 128,-1,23
 342 731 342 731 424 731 c 0,24,25
 458 731 458 731 491 727.5 c 128,-1,26
 524 724 524 724 558 716 c 1,27,28
 560 722 560 722 563 726 c 0,29,30
 564 728 564 728 565 729.5 c 128,-1,31
 566 731 566 731 567 733 c 256,32,33
 568 735 568 735 568 736 c 1,34,-1
 587 736 l 1,0,-1
125 357 m 0,35,36
 125 290 125 290 139 239 c 128,-1,37
 153 188 153 188 177 150 c 128,-1,38
 201 112 201 112 231.5 86 c 128,-1,39
 262 60 262 60 295 43 c 1,40,-1
 424 367 l 1,41,-1
 543 671 l 1,42,43
 520 677 520 677 504 680 c 128,-1,44
 488 683 488 683 475 684.5 c 128,-1,45
 462 686 462 686 450 686.5 c 128,-1,46
 438 687 438 687 423 687 c 0,47,48
 410 687 410 687 383.5 685.5 c 128,-1,49
 357 684 357 684 323.5 674.5 c 128,-1,50
 290 665 290 665 255 645 c 128,-1,51
 220 625 220 625 191 588 c 128,-1,52
 162 551 162 551 143.5 495 c 128,-1,53
 125 439 125 439 125 357 c 0,35,36
424 25 m 0,54,55
 434 25 434 25 461 26.5 c 128,-1,56
 488 28 488 28 522 37.5 c 128,-1,57
 556 47 556 47 593 67 c 128,-1,58
 630 87 630 87 661 124 c 128,-1,59
 692 161 692 161 712 217.5 c 128,-1,60
 732 274 732 274 732 357 c 0,61,62
 732 421 732 421 717.5 470.5 c 128,-1,63
 703 520 703 520 679 557.5 c 128,-1,64
 655 595 655 595 623.5 621 c 128,-1,65
 592 647 592 647 559 665 c 1,66,-1
 312 37 l 1,67,68
 342 29 342 29 372.5 27 c 128,-1,69
 403 25 403 25 424 25 c 0,54,55
EndSplineSet
EndChar

StartChar: oslash
Encoding: 248 248 137
Width: 565
Flags: W
LayerCount: 2
Fore
SplineSet
287 533 m 0,0,1
 328 533 328 533 371 524 c 128,-1,2
 414 515 414 515 443 492 c 1,3,-1
 461 518 l 1,4,-1
 472 518 l 1,5,-1
 450 486 l 1,6,7
 474 468 474 468 490.5 442 c 128,-1,8
 507 416 507 416 516.5 386.5 c 128,-1,9
 526 357 526 357 530.5 324.5 c 128,-1,10
 535 292 535 292 535 261 c 0,11,12
 535 193 535 193 523.5 141 c 128,-1,13
 512 89 512 89 484.5 54 c 128,-1,14
 457 19 457 19 411 1 c 128,-1,15
 365 -17 365 -17 297 -17 c 0,16,17
 263 -17 263 -17 228 -10.5 c 128,-1,18
 193 -4 193 -4 162 12 c 1,19,20
 159 6 159 6 155 0 c 0,21,22
 152 -5 152 -5 148.5 -10.5 c 128,-1,23
 145 -16 145 -16 143 -20 c 1,24,-1
 131 -20 l 1,25,-1
 153 17 l 1,26,27
 124 34 124 34 104.5 61.5 c 128,-1,28
 85 89 85 89 72.5 122 c 128,-1,29
 60 155 60 155 54.5 191 c 128,-1,30
 49 227 49 227 49 261 c 0,31,32
 49 326 49 326 61.5 377 c 128,-1,33
 74 428 74 428 102.5 462.5 c 128,-1,34
 131 497 131 497 176 515 c 128,-1,35
 221 533 221 533 287 533 c 0,0,1
121 261 m 0,36,37
 121 200 121 200 136.5 151.5 c 128,-1,38
 152 103 152 103 181 62 c 1,39,40
 240 158 240 158 298 252 c 128,-1,41
 356 346 356 346 415 443 c 1,42,43
 400 461 400 461 383.5 470.5 c 128,-1,44
 367 480 367 480 349.5 483.5 c 128,-1,45
 332 487 332 487 316 487 c 128,-1,46
 300 487 300 487 287 487 c 0,47,48
 261 487 261 487 231.5 484 c 128,-1,49
 202 481 202 481 177.5 460 c 128,-1,50
 153 439 153 439 137 393 c 128,-1,51
 121 347 121 347 121 261 c 0,36,37
297 29 m 0,52,53
 319 29 319 29 346.5 33 c 128,-1,54
 374 37 374 37 398.5 58.5 c 128,-1,55
 423 80 423 80 440 127 c 128,-1,56
 457 174 457 174 457 261 c 0,57,58
 457 277 457 277 456 300.5 c 128,-1,59
 455 324 455 324 451.5 349 c 128,-1,60
 448 374 448 374 440.5 397 c 128,-1,61
 433 420 433 420 421 436 c 1,62,-1
 187 56 l 1,63,64
 218 35 218 35 249 32 c 128,-1,65
 280 29 280 29 297 29 c 0,52,53
EndSplineSet
EndChar

StartChar: ordmasculine
Encoding: 186 186 138
Width: 400
Flags: W
LayerCount: 2
Fore
SplineSet
104 577 m 0,0,1
 104 534 104 534 117.5 511.5 c 128,-1,2
 131 489 131 489 148 479 c 128,-1,3
 165 469 165 469 181.5 468 c 128,-1,4
 198 467 198 467 203 467 c 0,5,6
 209 467 209 467 226 468.5 c 128,-1,7
 243 470 243 470 261 480.5 c 128,-1,8
 279 491 279 491 293 513.5 c 128,-1,9
 307 536 307 536 307 577 c 0,10,11
 307 619 307 619 293 641 c 128,-1,12
 279 663 279 663 261 673.5 c 128,-1,13
 243 684 243 684 226 685.5 c 128,-1,14
 209 687 209 687 203 687 c 256,15,16
 197 687 197 687 181 685.5 c 128,-1,17
 165 684 165 684 147.5 673.5 c 128,-1,18
 130 663 130 663 117 640.5 c 128,-1,19
 104 618 104 618 104 577 c 0,0,1
203 719 m 1,20,21
 278 718 278 718 311 682 c 128,-1,22
 344 646 344 646 344 577 c 0,23,24
 344 547 344 547 336.5 521.5 c 128,-1,25
 329 496 329 496 312 477 c 128,-1,26
 295 458 295 458 268 447.5 c 128,-1,27
 241 437 241 437 203 437 c 256,28,29
 165 437 165 437 138.5 447 c 128,-1,30
 112 457 112 457 95.5 475.5 c 128,-1,31
 79 494 79 494 71.5 519.5 c 128,-1,32
 64 545 64 545 64 577 c 0,33,34
 64 647 64 647 101 682.5 c 128,-1,35
 138 718 138 718 203 719 c 1,20,21
EndSplineSet
EndChar

StartChar: ring
Encoding: 730 730 139
Width: 400
Flags: W
LayerCount: 2
Fore
SplineSet
94 590 m 0,0,1
 94 541 94 541 109.5 515.5 c 128,-1,2
 125 490 125 490 144.5 478.5 c 128,-1,3
 164 467 164 467 182.5 466 c 128,-1,4
 201 465 201 465 207 465 c 0,5,6
 214 465 214 465 233.5 467 c 128,-1,7
 253 469 253 469 273.5 480.5 c 128,-1,8
 294 492 294 492 310 517.5 c 128,-1,9
 326 543 326 543 326 590 c 256,10,11
 326 637 326 637 310 662.5 c 128,-1,12
 294 688 294 688 273.5 699.5 c 128,-1,13
 253 711 253 711 233.5 713 c 128,-1,14
 214 715 214 715 207 715 c 256,15,16
 200 715 200 715 181.5 713 c 128,-1,17
 163 711 163 711 143.5 699.5 c 128,-1,18
 124 688 124 688 109 662.5 c 128,-1,19
 94 637 94 637 94 590 c 0,0,1
207 727 m 1,20,21
 280 726 280 726 311.5 691 c 128,-1,22
 343 656 343 656 343 590 c 0,23,24
 343 532 343 532 312 493.5 c 128,-1,25
 281 455 281 455 207 455 c 0,26,27
 170 455 170 455 144.5 464.5 c 128,-1,28
 119 474 119 474 103 492 c 128,-1,29
 87 510 87 510 80 535 c 128,-1,30
 73 560 73 560 73 590 c 0,31,32
 73 658 73 658 108.5 692 c 128,-1,33
 144 726 144 726 207 727 c 1,20,21
EndSplineSet
EndChar

StartChar: periodcentered
Encoding: 183 183 140
Width: 290
Flags: W
LayerCount: 2
Fore
SplineSet
106 391 m 1,0,-1
 191 391 l 1,1,-1
 191 306 l 1,2,-1
 106 306 l 1,3,-1
 106 391 l 1,0,-1
EndSplineSet
EndChar

StartChar: quotesinglbase
Encoding: 8218 8218 141
Width: 278
Flags: W
LayerCount: 2
Fore
SplineSet
106 84 m 1,0,-1
 193 84 l 1,1,2
 197 55 197 55 199 30 c 128,-1,3
 201 5 201 5 201 -15 c 0,4,5
 201 -60 201 -60 192 -91.5 c 128,-1,6
 183 -123 183 -123 167.5 -143.5 c 128,-1,7
 152 -164 152 -164 132.5 -174 c 128,-1,8
 113 -184 113 -184 92 -187 c 1,9,-1
 92 -152 l 1,10,11
 120 -149 120 -149 135 -134.5 c 128,-1,12
 150 -120 150 -120 157 -99 c 128,-1,13
 164 -78 164 -78 165 -52 c 128,-1,14
 166 -26 166 -26 166 0 c 1,15,-1
 106 0 l 1,16,-1
 106 84 l 1,0,-1
EndSplineSet
EndChar

StartChar: quotedblbase
Encoding: 8222 8222 142
Width: 487
Flags: W
LayerCount: 2
Fore
SplineSet
102 84 m 1,0,-1
 188 84 l 1,1,2
 197 25 197 25 197 -15 c 0,3,4
 197 -60 197 -60 188 -91.5 c 128,-1,5
 179 -123 179 -123 163.5 -143.5 c 128,-1,6
 148 -164 148 -164 128.5 -174 c 128,-1,7
 109 -184 109 -184 88 -187 c 1,8,-1
 88 -152 l 1,9,10
 115 -149 115 -149 130 -134.5 c 128,-1,11
 145 -120 145 -120 152 -99 c 128,-1,12
 159 -78 159 -78 160 -52 c 128,-1,13
 161 -26 161 -26 161 0 c 1,14,-1
 102 0 l 1,15,-1
 102 84 l 1,0,-1
328 84 m 1,16,-1
 415 84 l 1,17,18
 420 53 420 53 422.5 30.5 c 128,-1,19
 425 8 425 8 425 -15 c 0,20,21
 425 -61 425 -61 415.5 -92.5 c 128,-1,22
 406 -124 406 -124 390.5 -144 c 128,-1,23
 375 -164 375 -164 355 -174 c 128,-1,24
 335 -184 335 -184 315 -187 c 1,25,-1
 315 -152 l 1,26,27
 343 -149 343 -149 357.5 -135 c 128,-1,28
 372 -121 372 -121 378.5 -100.5 c 128,-1,29
 385 -80 385 -80 386 -54 c 128,-1,30
 387 -28 387 -28 387 -1 c 1,31,32
 374 -1 374 -1 358 -0.5 c 128,-1,33
 342 0 342 0 328 0 c 1,34,-1
 328 84 l 1,16,-1
EndSplineSet
EndChar

StartChar: fraction
Encoding: 8260 8260 143
Width: 347
Flags: W
LayerCount: 2
Fore
SplineSet
355 753 m 1,0,-1
 22 -20 l 1,1,-1
 9 -20 l 1,2,-1
 343 753 l 1,3,-1
 355 753 l 1,0,-1
EndSplineSet
EndChar

StartChar: caron
Encoding: 711 711 144
Width: 230
Flags: W
LayerCount: 2
Fore
SplineSet
122 651 m 1,0,-1
 201 754 l 1,1,-1
 244 754 l 1,2,-1
 141 625 l 1,3,-1
 102 625 l 1,4,-1
 -1 754 l 1,5,-1
 42 754 l 1,6,-1
 122 651 l 1,0,-1
EndSplineSet
EndChar

StartChar: florin
Encoding: 402 402 145
Width: 322
Flags: W
LayerCount: 2
Fore
SplineSet
423 697 m 1,0,1
 396 711 396 711 370 719 c 128,-1,2
 344 727 344 727 312 727 c 0,3,4
 260 727 260 727 232.5 714.5 c 128,-1,5
 205 702 205 702 192.5 680.5 c 128,-1,6
 180 659 180 659 178.5 629 c 128,-1,7
 177 599 177 599 177 563 c 2,8,-1
 177 517 l 1,9,-1
 306 517 l 1,10,-1
 306 474 l 1,11,-1
 177 474 l 1,12,-1
 177 -21 l 1,13,14
 175 -79 175 -79 160.5 -115.5 c 128,-1,15
 146 -152 146 -152 126.5 -173.5 c 128,-1,16
 107 -195 107 -195 86 -203.5 c 128,-1,17
 65 -212 65 -212 50 -215 c 1,18,-1
 50 -170 l 1,19,20
 65 -156 65 -156 76.5 -143.5 c 128,-1,21
 88 -131 88 -131 96.5 -115 c 128,-1,22
 105 -99 105 -99 109 -78.5 c 128,-1,23
 113 -58 113 -58 113 -28 c 2,24,-1
 113 474 l 1,25,-1
 27 474 l 1,26,-1
 27 517 l 1,27,-1
 113 517 l 1,28,-1
 113 563 l 2,29,30
 113 626 113 626 126 668 c 128,-1,31
 139 710 139 710 164.5 734.5 c 128,-1,32
 190 759 190 759 227 769 c 128,-1,33
 264 779 264 779 312 779 c 0,34,35
 338 779 338 779 368.5 769 c 128,-1,36
 399 759 399 759 422 748 c 1,37,-1
 423 697 l 1,0,1
EndSplineSet
EndChar

StartChar: periodcentered
Encoding: 65544 -1 146
Width: 290
Flags: W
LayerCount: 2
Fore
SplineSet
106 391 m 1,0,-1
 191 391 l 1,1,-1
 191 306 l 1,2,-1
 106 306 l 1,3,-1
 106 391 l 1,0,-1
EndSplineSet
EndChar

StartChar: onesuperior
Encoding: 185 185 147
Width: 297
Flags: W
LayerCount: 2
Fore
SplineSet
163 726 m 1,0,-1
 163 362 l 1,1,-1
 148 362 l 1,2,-1
 148 715 l 1,3,4
 143 714 143 714 136 713 c 128,-1,5
 129 712 129 712 122 711 c 0,6,7
 114 709 114 709 105 708 c 1,8,-1
 119 715 l 2,9,10
 124 718 124 718 130 721 c 128,-1,11
 136 724 136 724 140 726 c 1,12,-1
 163 726 l 1,0,-1
EndSplineSet
EndChar

StartChar: ordfeminine
Encoding: 170 170 148
Width: 277
Flags: W
LayerCount: 2
Fore
SplineSet
194 573 m 1,0,1
 180 567 180 567 159 566 c 128,-1,2
 138 565 138 565 126 565 c 0,3,4
 115 565 115 565 105 564.5 c 128,-1,5
 95 564 95 564 86.5 558.5 c 128,-1,6
 78 553 78 553 73 542 c 128,-1,7
 68 531 68 531 68 510 c 0,8,9
 68 480 68 480 85 466.5 c 128,-1,10
 102 453 102 453 125 453 c 0,11,12
 159 453 159 453 194 484 c 1,13,-1
 194 573 l 1,0,1
203 434 m 1,14,-1
 191 457 l 1,15,16
 180 444 180 444 161 437.5 c 128,-1,17
 142 431 142 431 125 431 c 0,18,19
 75 431 75 431 54.5 451.5 c 128,-1,20
 34 472 34 472 34 510 c 0,21,22
 34 525 34 525 38 539 c 128,-1,23
 42 553 42 553 51.5 563.5 c 128,-1,24
 61 574 61 574 77 580.5 c 128,-1,25
 93 587 93 587 116 587 c 0,26,27
 150 587 150 587 166 588 c 128,-1,28
 182 589 182 589 194 600 c 1,29,30
 194 628 194 628 191.5 644.5 c 128,-1,31
 189 661 189 661 182 668.5 c 128,-1,32
 175 676 175 676 163.5 678 c 128,-1,33
 152 680 152 680 134 680 c 0,34,35
 110 680 110 680 90.5 675.5 c 128,-1,36
 71 671 71 671 60 666 c 1,37,-1
 50 691 l 1,38,39
 67 697 67 697 91 701 c 128,-1,40
 115 705 115 705 139 705 c 0,41,42
 157 705 157 705 173 701.5 c 128,-1,43
 189 698 189 698 201.5 686.5 c 128,-1,44
 214 675 214 675 221 655 c 128,-1,45
 228 635 228 635 228 602 c 2,46,-1
 228 434 l 1,47,-1
 203 434 l 1,14,-1
EndSplineSet
EndChar

StartChar: gravecmb
Encoding: 768 768 153
Width: 222
Flags: W
LayerCount: 2
Fore
SplineSet
82 751 m 1,0,-1
 132 639 l 1,1,-1
 90 639 l 1,2,-1
 4 751 l 1,3,-1
 82 751 l 1,0,-1
EndSplineSet
EndChar

StartChar: acutecmb
Encoding: 769 769 155
Width: 222
Flags: W
LayerCount: 2
Fore
SplineSet
232 742 m 1,0,-1
 134 614 l 1,1,-1
 73 614 l 1,2,-1
 130 742 l 1,3,-1
 232 742 l 1,0,-1
EndSplineSet
EndChar

StartChar: circumflexcmb
Encoding: 770 770 157
Width: 240
Flags: W
LayerCount: 2
Fore
SplineSet
121 728 m 1,0,-1
 42 625 l 1,1,-1
 -1 625 l 1,2,-1
 102 754 l 1,3,-1
 141 754 l 1,4,-1
 244 625 l 1,5,-1
 201 625 l 1,6,-1
 121 728 l 1,0,-1
EndSplineSet
EndChar

StartChar: tildecmb
Encoding: 771 771 159
Width: 222
Flags: W
LayerCount: 2
Fore
SplineSet
-18 705 m 1,0,1
 -14 711 -14 711 -1.5 718 c 128,-1,2
 11 725 11 725 39 725 c 0,3,4
 59 725 59 725 78.5 720.5 c 128,-1,5
 98 716 98 716 117.5 711 c 128,-1,6
 137 706 137 706 157 701.5 c 128,-1,7
 177 697 177 697 198 697 c 0,8,9
 218 697 218 697 233.5 699.5 c 128,-1,10
 249 702 249 702 261 707 c 1,11,-1
 261 669 l 1,12,13
 233 646 233 646 199 646 c 0,14,15
 176 646 176 646 156.5 650 c 128,-1,16
 137 654 137 654 118 659 c 128,-1,17
 99 664 99 664 79 668 c 128,-1,18
 59 672 59 672 37 672 c 0,19,20
 8 672 8 672 -17 662 c 1,21,-1
 -18 705 l 1,0,1
EndSplineSet
EndChar

StartChar: ringcmb
Encoding: 778 778 163
Width: 400
Flags: W
LayerCount: 2
Fore
SplineSet
94 590 m 0,0,1
 94 541 94 541 109.5 515.5 c 128,-1,2
 125 490 125 490 144.5 478.5 c 128,-1,3
 164 467 164 467 182.5 466 c 128,-1,4
 201 465 201 465 207 465 c 0,5,6
 214 465 214 465 233.5 467 c 128,-1,7
 253 469 253 469 273.5 480.5 c 128,-1,8
 294 492 294 492 310 517.5 c 128,-1,9
 326 543 326 543 326 590 c 256,10,11
 326 637 326 637 310 662.5 c 128,-1,12
 294 688 294 688 273.5 699.5 c 128,-1,13
 253 711 253 711 233.5 713 c 128,-1,14
 214 715 214 715 207 715 c 256,15,16
 200 715 200 715 181.5 713 c 128,-1,17
 163 711 163 711 143.5 699.5 c 128,-1,18
 124 688 124 688 109 662.5 c 128,-1,19
 94 637 94 637 94 590 c 0,0,1
207 727 m 1,20,21
 280 726 280 726 311.5 691 c 128,-1,22
 343 656 343 656 343 590 c 0,23,24
 343 532 343 532 312 493.5 c 128,-1,25
 281 455 281 455 207 455 c 0,26,27
 170 455 170 455 144.5 464.5 c 128,-1,28
 119 474 119 474 103 492 c 128,-1,29
 87 510 87 510 80 535 c 128,-1,30
 73 560 73 560 73 590 c 0,31,32
 73 658 73 658 108.5 692 c 128,-1,33
 144 726 144 726 207 727 c 1,20,21
EndSplineSet
EndChar

StartChar: cedillacmb
Encoding: 807 807 165
Width: 245
Flags: W
LayerCount: 2
Fore
SplineSet
109 -90 m 0,0,1
 100 -90 100 -90 90.5 -91.5 c 128,-1,2
 81 -93 81 -93 72 -95 c 1,3,4
 75 -92 75 -92 80.5 -82 c 128,-1,5
 86 -72 86 -72 93 -58 c 128,-1,6
 100 -44 100 -44 107.5 -28 c 128,-1,7
 115 -12 115 -12 123 2 c 1,8,-1
 130 2 l 1,9,-1
 89 -78 l 1,10,11
 122 -75 122 -75 144.5 -80.5 c 128,-1,12
 167 -86 167 -86 180.5 -97.5 c 128,-1,13
 194 -109 194 -109 200 -123.5 c 128,-1,14
 206 -138 206 -138 206 -151 c 0,15,16
 206 -185 206 -185 184 -202.5 c 128,-1,17
 162 -220 162 -220 125 -224 c 1,18,19
 106 -224 106 -224 91 -222.5 c 128,-1,20
 76 -221 76 -221 61 -216 c 1,21,-1
 61 -196 l 1,22,23
 86 -206 86 -206 109 -206 c 0,24,25
 116 -206 116 -206 126.5 -204.5 c 128,-1,26
 137 -203 137 -203 146.5 -197.5 c 128,-1,27
 156 -192 156 -192 163 -181 c 128,-1,28
 170 -170 170 -170 170 -151 c 0,29,30
 170 -90 170 -90 109 -90 c 0,0,1
EndSplineSet
EndChar

StartChar: caroncmb
Encoding: 780 780 180
Width: 230
Flags: W
LayerCount: 2
Fore
SplineSet
122 651 m 1,0,-1
 201 754 l 1,1,-1
 244 754 l 1,2,-1
 141 625 l 1,3,-1
 102 625 l 1,4,-1
 -1 754 l 1,5,-1
 42 754 l 1,6,-1
 122 651 l 1,0,-1
EndSplineSet
EndChar

StartChar: backslash
Encoding: 92 92 217
Width: 347
Flags: W
LayerCount: 2
Fore
SplineSet
6 753 m 1,0,-1
 53 753 l 1,1,-1
 357 -19 l 1,2,-1
 310 -19 l 1,3,-1
 6 753 l 1,0,-1
EndSplineSet
EndChar

StartChar: g
Encoding: 103 103 218
Width: 563
Flags: W
LayerCount: 2
Fore
SplineSet
515 518 m 1,0,-1
 515 -6 l 2,1,2
 515 -14 515 -14 514 -33.5 c 128,-1,3
 513 -53 513 -53 506 -77 c 128,-1,4
 499 -101 499 -101 485 -127 c 128,-1,5
 471 -153 471 -153 445 -174 c 128,-1,6
 419 -195 419 -195 378.5 -209 c 128,-1,7
 338 -223 338 -223 280 -223 c 0,8,9
 213 -223 213 -223 164.5 -198.5 c 128,-1,10
 116 -174 116 -174 80 -132 c 1,11,-1
 120 -100 l 1,12,13
 141 -122 141 -122 167 -140 c 0,14,15
 189 -155 189 -155 217.5 -167 c 128,-1,16
 246 -179 246 -179 280 -179 c 0,17,18
 323 -179 323 -179 352 -168.5 c 128,-1,19
 381 -158 381 -158 400 -141.5 c 128,-1,20
 419 -125 419 -125 429 -105 c 128,-1,21
 439 -85 439 -85 443.5 -65.5 c 128,-1,22
 448 -46 448 -46 448.5 -30 c 128,-1,23
 449 -14 449 -14 449 -6 c 2,24,-1
 449 59 l 1,25,26
 434 38 434 38 418.5 23.5 c 128,-1,27
 403 9 403 9 384.5 -0.5 c 128,-1,28
 366 -10 366 -10 343.5 -14.5 c 128,-1,29
 321 -19 321 -19 291 -19 c 0,30,31
 223 -19 223 -19 177 4.5 c 128,-1,32
 131 28 131 28 102.5 67 c 128,-1,33
 74 106 74 106 62 157 c 128,-1,34
 50 208 50 208 50 263 c 0,35,36
 50 327 50 327 62 377.5 c 128,-1,37
 74 428 74 428 101 462.5 c 128,-1,38
 128 497 128 497 172 515 c 128,-1,39
 216 533 216 533 281 533 c 0,40,41
 319 533 319 533 347 527.5 c 128,-1,42
 375 522 375 522 396 510.5 c 128,-1,43
 417 499 417 499 433.5 482 c 128,-1,44
 450 465 450 465 465 442 c 1,45,-1
 470 518 l 1,46,-1
 515 518 l 1,0,-1
117 263 m 0,47,48
 117 182 117 182 134 135 c 128,-1,49
 151 88 151 88 176.5 64 c 128,-1,50
 202 40 202 40 233 33.5 c 128,-1,51
 264 27 264 27 291 27 c 0,52,53
 305 27 305 27 322.5 28.5 c 128,-1,54
 340 30 340 30 358 37.5 c 128,-1,55
 376 45 376 45 392.5 59.5 c 128,-1,56
 409 74 409 74 422 100.5 c 128,-1,57
 435 127 435 127 442.5 166.5 c 128,-1,58
 450 206 450 206 450 263 c 0,59,60
 450 346 450 346 434 391 c 128,-1,61
 418 436 418 436 394 457 c 128,-1,62
 370 478 370 478 341.5 482 c 128,-1,63
 313 486 313 486 288 486 c 0,64,65
 262 486 262 486 232 483 c 128,-1,66
 202 480 202 480 176.5 459.5 c 128,-1,67
 151 439 151 439 134 393.5 c 128,-1,68
 117 348 117 348 117 263 c 0,47,48
EndSplineSet
EndChar
